<?xml version="1.0" encoding="utf-8"?>
<!-- Generator: Adobe Illustrator 16.0.0, SVG Export Plug-In . SVG Version: 6.00 Build 0)  -->
<!DOCTYPE svg PUBLIC "-//W3C//DTD SVG 1.1//EN" "http://www.w3.org/Graphics/SVG/1.1/DTD/svg11.dtd">
<svg version="1.1" id="Layer_1" xmlns="http://www.w3.org/2000/svg" xmlns:xlink="http://www.w3.org/1999/xlink" x="0px" y="0px"
	 width="144px" height="216px" viewBox="0 0 144 216" enable-background="new 0 0 144 216" xml:space="preserve">
<g display="none">
	<path display="inline" fill="none" stroke="#EB008B" stroke-width="20" stroke-miterlimit="10" d="M105.227,124.809
		C104.651,128.208,106.242,121.641,105.227,124.809c3.931-4.175,4.638,0.536,4.638,0.536s-2.347,22.57-10.431,30.409
		c4.77,0.31,5.74,4.122,5.086,7.835c17.428,1.126,29.021,3.131,29.021,5.418c0,2.65-15.577,4.922-37.762,5.891
		c-0.081,1.737-0.541,3.983-1.552,6.699c-2.488,6.683-5.475,11.519-5.475,11.519s-3.944,3.129-5.332,3.129s-4.41-2.347-4.41-2.347
		c-1.563-3.767-15.377-3.626-16.943,0.142c0,0-2.844,2.348-4.408,2.348c-1.563,0-5.331-3.129-5.331-3.129s-2.987-4.836-5.475-11.52
		c-1.066-2.859-1.52-5.198-1.562-6.971c-20.692-1.031-34.98-3.223-34.98-5.761c0-2.163,10.378-4.075,26.258-5.229
		c-0.665-3.697,0.271-7.507,4.957-7.871l-0.003-0.014c-8.129-7.703-9.881-30.556-9.881-30.556s0.062-7.536,4.082-3.286l0,0
		c-1.4-4.196,0.594,4.467,0,0l-0.004-0.004c-1.06-2.802-1.863-5.909-2.329-9.214c-1.974-13.969,2.818-26.197,10.704-27.312
		c0.705-0.099,1.41-0.105,2.112-0.027l-0.005-0.001c5.188-10.943,13.584-18.467,23.168-19.732l0.467-0.055
		c10.592-6.518,13.305-20.847,10.737-26.534c-2.565-5.69-12.515-10.383-23.749-6.4c-5.897,2.091-15.87,7.251-21.658,14.931
		c-5.79,7.681-3.577,19.555-9.123,17.422c-5.548-2.132-5.014-14.932,6.078-24.53c11.092-9.6,22.185-15.252,31.89-15.146
		c9.707,0.107,24.745,4.692,24.104,17.812c-0.497,10.176-5.742,18.172-10.46,22.988l0,0c8.525,2.147,15.799,9.296,20.371,19.268
		l-0.002,0.006c7.886,1.114,12.679,13.343,10.704,27.312c-0.617,4.365-1.821,8.384-3.427,11.814"/>
	<path display="inline" fill="none" stroke="#FFFFFF" stroke-width="15" stroke-miterlimit="10" d="M105.227,124.809
		C104.651,128.208,106.242,121.641,105.227,124.809c3.931-4.175,4.638,0.536,4.638,0.536s-2.347,22.57-10.431,30.409
		c4.77,0.31,5.74,4.122,5.086,7.835c17.428,1.126,29.021,3.131,29.021,5.418c0,2.65-15.577,4.922-37.762,5.891
		c-0.081,1.737-0.541,3.983-1.552,6.699c-2.488,6.683-5.475,11.519-5.475,11.519s-3.944,3.129-5.332,3.129s-4.41-2.347-4.41-2.347
		c-1.563-3.767-15.377-3.626-16.943,0.142c0,0-2.844,2.348-4.408,2.348c-1.563,0-5.331-3.129-5.331-3.129s-2.987-4.836-5.475-11.52
		c-1.066-2.859-1.52-5.198-1.562-6.971c-20.692-1.031-34.98-3.223-34.98-5.761c0-2.163,10.378-4.075,26.258-5.229
		c-0.665-3.697,0.271-7.507,4.957-7.871l-0.003-0.014c-8.129-7.703-9.881-30.556-9.881-30.556s0.062-7.536,4.082-3.286l0,0
		c-1.4-4.196,0.594,4.467,0,0l-0.004-0.004c-1.06-2.802-1.863-5.909-2.329-9.214c-1.974-13.969,2.818-26.197,10.704-27.312
		c0.705-0.099,1.41-0.105,2.112-0.027l-0.005-0.001c5.188-10.943,13.584-18.467,23.168-19.732l0.467-0.055
		c10.592-6.518,13.305-20.847,10.737-26.534c-2.565-5.69-12.515-10.383-23.749-6.4c-5.897,2.091-15.87,7.251-21.658,14.931
		c-5.79,7.681-3.577,19.555-9.123,17.422c-5.548-2.132-5.014-14.932,6.078-24.53c11.092-9.6,22.185-15.252,31.89-15.146
		c9.707,0.107,24.745,4.692,24.104,17.812c-0.497,10.176-5.742,18.172-10.46,22.988l0,0c8.525,2.147,15.799,9.296,20.371,19.268
		l-0.002,0.006c7.886,1.114,12.679,13.343,10.704,27.312c-0.617,4.365-1.821,8.384-3.427,11.814"/>
	<path display="inline" fill="#FFFFFF" d="M105.227,124.809C104.651,128.208,106.242,121.641,105.227,124.809
		c3.931-4.175,4.638,0.536,4.638,0.536s-2.347,22.57-10.431,30.409c4.77,0.31,5.74,4.122,5.086,7.835
		c17.428,1.126,29.021,3.131,29.021,5.418c0,2.65-15.577,4.922-37.762,5.891c-0.081,1.737-0.541,3.983-1.552,6.699
		c-2.488,6.683-5.475,11.519-5.475,11.519s-3.944,3.129-5.332,3.129s-4.41-2.347-4.41-2.347c-1.563-3.767-15.377-3.626-16.943,0.142
		c0,0-2.844,2.348-4.408,2.348c-1.563,0-5.331-3.129-5.331-3.129s-2.987-4.836-5.475-11.52c-1.066-2.859-1.52-5.198-1.562-6.971
		c-20.692-1.031-34.98-3.223-34.98-5.761c0-2.163,10.378-4.075,26.258-5.229c-0.665-3.697,0.271-7.507,4.957-7.871l-0.003-0.014
		c-8.129-7.703-9.881-30.556-9.881-30.556s0.062-7.536,4.082-3.286l0,0c-1.4-4.196,0.594,4.467,0,0l-0.004-0.004
		c-1.06-2.802-1.863-5.909-2.329-9.214c-1.974-13.969,2.818-26.197,10.704-27.312c0.705-0.099,1.41-0.105,2.112-0.027l-0.005-0.001
		c5.188-10.943,13.584-18.467,23.168-19.732l0.467-0.055c10.592-6.518,13.305-20.847,10.737-26.534
		c-2.565-5.69-12.515-10.383-23.749-6.4c-5.897,2.091-15.87,7.251-21.658,14.931c-5.79,7.681-3.577,19.555-9.123,17.422
		c-5.548-2.132-5.014-14.932,6.078-24.53c11.092-9.6,22.185-15.252,31.89-15.146c9.707,0.107,24.745,4.692,24.104,17.812
		c-0.497,10.176-5.742,18.172-10.46,22.988l0,0c8.525,2.147,15.799,9.296,20.371,19.268l-0.002,0.006
		c7.886,1.114,12.679,13.343,10.704,27.312c-0.617,4.365-1.821,8.384-3.427,11.814"/>
</g>
<g>
	<ellipse fill="#202023" cx="71.926" cy="169.108" rx="61.615" ry="6.385"/>
	
		<ellipse transform="matrix(-0.9902 0.1399 -0.1399 -0.9902 110.3867 214.0746)" fill="#39404C" cx="47.67" cy="110.917" rx="14.421" ry="25.547"/>
	
		<ellipse transform="matrix(0.9999 0.0142 -0.0142 0.9999 1.5821 -1.0116)" fill="#39404C" cx="71.926" cy="110.741" rx="31.212" ry="45.071"/>
	
		<ellipse transform="matrix(0.9902 0.1399 -0.1399 0.9902 16.4425 -12.1207)" fill="#39404C" cx="94.451" cy="110.917" rx="14.421" ry="25.547"/>
	<path fill="#39404C" d="M69.838,65.807C80.43,59.29,83.143,44.96,80.575,39.272c-2.565-5.69-12.515-10.383-23.749-6.4
		c-5.897,2.09-15.87,7.253-21.658,14.932c-5.79,7.68-3.577,19.554-9.123,17.42c-5.548-2.132-5.014-14.93,6.078-24.53
		c11.092-9.598,22.185-15.251,31.89-15.144c9.707,0.105,24.745,4.692,24.104,17.811c-0.595,12.172-7.982,21.224-13.135,25.447"/>
	<g>
		<path fill="#4F586B" d="M77.624,123.665c4.374-5.04,22.434-19.546,26.843-16.56c4.408,2.987-0.07,33.586-8.07,39.191"/>
		<path fill="#8B97AF" d="M86.466,130.092c0.795-6.488,10.344-17.112,14.73-15.59c5.12,1.776-3.098,29.087-6.099,30.541"/>
	</g>
	<g>
		<path fill="#4F586B" d="M63.744,123.665c-4.374-5.04-22.436-19.546-26.844-16.56c-4.407,2.987,0.071,33.586,8.071,39.191"/>
		<path fill="#8B97AF" d="M54.902,130.092c-0.795-6.488-10.345-17.112-14.73-15.59c-5.12,1.776,3.099,29.087,6.1,30.541"/>
	</g>
	<g>
		<defs>
			<path id="SVGID_11_" d="M70.406,171.813c-16.049,0-25.852-2.728-27.489-14.7c-1.66-12.143,12.083-35.074,27.489-35.074
				c15.408,0,29.153,22.932,27.492,35.074C96.236,169.251,86.115,171.813,70.406,171.813z"/>
		</defs>
		<use xlink:href="#SVGID_11_"  overflow="visible" fill="#4F586B"/>
		<clipPath id="SVGID_12_">
			<use xlink:href="#SVGID_11_"  overflow="visible"/>
		</clipPath>
		<path clip-path="url(#SVGID_12_)" fill="#E5B232" d="M65.027,157.912c2.323-1.741,8.721-1.741,10.741,0.005
			c1.252,1.524,5.944-8.857,5.944-8.857s3.114-11.382-1.049-9.251s-15.902,1.692-20.54-0.017c-4.641-1.709-4.436,8.556-4.436,8.556"
			/>
	</g>
	<g>
		<path fill="#4F586B" d="M97.601,155.894c6.913-0.677,7.838,4.438,6.681,8.882c-1.155,4.446-10.641,12.672-16.191,12.227
			c-5.552-0.444-5.089-11.337,7.17-12.67"/>
		<path fill="#D8D7D6" d="M79.011,193.998c-1.563-3.768-0.496-11.163,0.784-15.074c1.279-3.91,5.118-10.239,6.754-8.746
			c1.635,1.494-3.334,10.886-3.959,13.154C81.964,185.601,79.011,193.998,79.011,193.998z"/>
		<path fill="#D8D7D6" d="M89.679,169.679c1.775,0.072,3.202,4.48,0,12.871c-3.201,8.392-6.258,13.795-6.258,13.795
			s1.361-18.362,2.636-21.589C87.332,171.528,87.903,169.606,89.679,169.679z"/>
		<path fill="#D8D7D6" d="M94.228,170.748c1.636,0.426,2.489,4.266,0,10.949c-2.488,6.684-5.475,11.519-5.475,11.519
			s1.511-11.616,2.055-14.118C91.35,176.594,92.593,170.32,94.228,170.748z"/>
	</g>
	<g>
		<path fill="#4F586B" d="M43.479,156.037c-6.913-0.679-7.837,4.435-6.682,8.88c1.155,4.447,10.64,12.672,16.193,12.228
			c5.552-0.445,5.089-11.337-7.171-12.672"/>
		<path fill="#D8D7D6" d="M62.067,194.141c1.566-3.768,0.499-11.163-0.78-15.074c-1.28-3.91-5.121-10.24-6.755-8.746
			c-1.637,1.493,3.334,10.887,3.958,13.154C59.115,185.744,62.067,194.141,62.067,194.141z"/>
		<path fill="#D8D7D6" d="M51.401,169.82c-1.775,0.073-3.201,4.481,0,12.873c3.202,8.391,6.258,13.794,6.258,13.794
			s-1.361-18.362-2.636-21.588C53.749,171.672,53.176,169.748,51.401,169.82z"/>
		<path fill="#D8D7D6" d="M46.854,170.89c-1.638,0.425-2.491,4.267,0,10.95c2.487,6.684,5.475,11.518,5.475,11.518
			s-1.513-11.616-2.055-14.118C49.73,176.736,48.487,170.462,46.854,170.89z"/>
	</g>
	<path fill="#202023" d="M75.697,157.847c-3.667-3.812,4.084-20.88,8.42-20.027c4.341,0.854,6.276,3.839,12.526,1.706
		c6.251-2.132,13.221-14.079,13.221-14.079s-2.704,26.002-12.304,31.882c0,0-6.603-0.519-10.129,2.002
		C84.249,161.604,77.874,160.11,75.697,157.847z"/>
	<g>
		<defs>
			<path id="SVGID_13_" d="M75.769,157.918c-0.111-7.75,9.036-27.235,15.592-7.195C89.055,167.438,75.769,157.918,75.769,157.918z"
				/>
		</defs>
		<use xlink:href="#SVGID_13_"  overflow="visible" fill="#F6D294"/>
		<clipPath id="SVGID_14_">
			<use xlink:href="#SVGID_13_"  overflow="visible"/>
		</clipPath>
		<path clip-path="url(#SVGID_14_)" fill="#201F24" d="M81.651,157.097c0,3.581,0.847,6.481,1.892,6.481
			c1.044,0,1.894-2.9,1.894-6.481c0-3.579-0.85-6.482-1.894-6.482C82.498,150.614,81.651,153.518,81.651,157.097z"/>
	</g>
	<g>
		<g>
			<path id="SVGID_1_" fill="#AF8BAA" d="M70.467,161.305c-0.971,1.907-3.966,3.096-6.116,1.907c0,0,0.519,5.821,6.104,5.786
				c5.586-0.034,6.011-5.786,6.011-5.786c-2.151,1.188-5.147,0-6.119-1.907"/>
		</g>
		<g>
			<g>
				<defs>
					<path id="SVGID_15_" d="M70.467,161.305c-0.971,1.907-3.966,3.096-6.116,1.907c0,0,0.519,5.821,6.104,5.786
						c5.586-0.034,6.011-5.786,6.011-5.786c-2.151,1.188-5.147,0-6.119-1.907"/>
				</defs>
				<clipPath id="SVGID_16_">
					<use xlink:href="#SVGID_15_"  overflow="visible"/>
				</clipPath>
				<path clip-path="url(#SVGID_16_)" fill="#D8D7D6" d="M75.421,163.264c0,0,0.159,1.248,0.458,1.379
					c0.299,0.135,0.583-1.396,0.583-1.396"/>
			</g>
		</g>
		<g>
			<g>
				<defs>
					<path id="SVGID_17_" d="M70.467,161.305c-0.971,1.907-3.966,3.096-6.116,1.907c0,0,0.519,5.821,6.104,5.786
						c5.586-0.034,6.011-5.786,6.011-5.786c-2.151,1.188-5.147,0-6.119-1.907"/>
				</defs>
				<clipPath id="SVGID_18_">
					<use xlink:href="#SVGID_17_"  overflow="visible"/>
				</clipPath>
				<path clip-path="url(#SVGID_18_)" fill="#D8D7D6" d="M64.421,163.264c0,0,0.158,1.248,0.458,1.379
					c0.297,0.135,0.585-1.396,0.585-1.396"/>
			</g>
		</g>
		<path fill="#201F24" d="M70.49,161.303c0.406,0.051,1.175-1.188,1.094-1.545c-0.08-0.354-2.13-0.377-2.232-0.074
			C69.251,159.986,70.087,161.252,70.49,161.303z"/>
	</g>
	<path fill="#202023" d="M65.098,157.841c3.668-3.813-4.081-20.882-8.42-20.03c-4.339,0.854-6.277,3.842-12.526,1.708
		c-6.25-2.135-12.509-14.08-12.509-14.08s1.993,26.003,11.593,31.883c0,0,6.603-0.519,10.13,2.002
		C56.547,161.599,62.922,160.103,65.098,157.841z"/>
	<g>
		<defs>
			<path id="SVGID_19_" d="M65.027,157.912c0.11-7.751-9.035-27.236-15.591-7.197C51.741,167.432,65.027,157.912,65.027,157.912z"/>
		</defs>
		<use xlink:href="#SVGID_19_"  overflow="visible" fill="#F6D294"/>
		<clipPath id="SVGID_20_">
			<use xlink:href="#SVGID_19_"  overflow="visible"/>
		</clipPath>
		<path clip-path="url(#SVGID_20_)" fill="#201F24" d="M59.146,157.09c0,3.581-0.848,6.48-1.894,6.48
			c-1.045,0-1.893-2.899-1.893-6.48c0-3.58,0.848-6.483,1.893-6.483C58.298,150.606,59.146,153.51,59.146,157.09z"/>
	</g>
	<g>
		<path fill="#0B1623" d="M46.903,162.031c0,0-0.115-0.024-0.308-0.081c-0.192-0.047-0.462-0.172-0.772-0.248
			c-0.154-0.044-0.318-0.092-0.483-0.152c-0.177-0.042-0.362-0.081-0.545-0.141c-0.377-0.084-0.77-0.167-1.167-0.207
			c-0.788-0.085-1.586-0.019-2.203,0.118c-0.615,0.132-1.057,0.298-1.057,0.298s0.225-0.434,0.829-0.824
			c0.296-0.196,0.681-0.384,1.123-0.483c0.439-0.126,0.93-0.129,1.412-0.102c0.478,0.068,0.944,0.187,1.35,0.37
			c0.402,0.181,0.755,0.399,1.027,0.628c0.291,0.203,0.452,0.431,0.593,0.577C46.833,161.937,46.903,162.031,46.903,162.031z"/>
	</g>
	<g>
		<path fill="#0B1623" d="M47.433,165.121c0,0-0.109,0.045-0.3,0.106c-0.186,0.069-0.479,0.118-0.778,0.229
			c-0.153,0.051-0.314,0.103-0.485,0.146c-0.17,0.064-0.346,0.137-0.53,0.19c-0.358,0.143-0.729,0.295-1.08,0.486
			c-0.699,0.373-1.32,0.878-1.753,1.34c-0.434,0.456-0.704,0.842-0.704,0.842s-0.06-0.485,0.219-1.148
			c0.135-0.329,0.347-0.701,0.655-1.033c0.292-0.352,0.695-0.631,1.109-0.88c0.434-0.213,0.886-0.379,1.324-0.454
			c0.434-0.077,0.85-0.096,1.203-0.06c0.354,0.004,0.616,0.102,0.814,0.143C47.321,165.082,47.433,165.121,47.433,165.121z"/>
	</g>
	<g>
		<path fill="#0B1623" d="M93.76,161.88c0,0,0.07-0.095,0.201-0.247c0.141-0.146,0.302-0.375,0.593-0.577
			c0.272-0.229,0.626-0.448,1.028-0.628c0.404-0.185,0.871-0.302,1.35-0.371c0.482-0.027,0.974-0.023,1.413,0.103
			c0.441,0.1,0.826,0.288,1.123,0.484c0.604,0.391,0.828,0.825,0.828,0.825s-0.441-0.166-1.057-0.299
			c-0.617-0.137-1.415-0.204-2.204-0.119c-0.396,0.039-0.789,0.122-1.166,0.207c-0.183,0.059-0.368,0.098-0.545,0.141
			c-0.166,0.061-0.329,0.107-0.484,0.152c-0.311,0.076-0.58,0.201-0.772,0.248C93.875,161.855,93.76,161.88,93.76,161.88z"/>
	</g>
	<g>
		<path fill="#0B1623" d="M93.232,164.967c0,0,0.111-0.039,0.306-0.092c0.198-0.041,0.46-0.139,0.814-0.143
			c0.354-0.035,0.769-0.018,1.203,0.061c0.438,0.075,0.89,0.241,1.324,0.454c0.413,0.249,0.817,0.528,1.109,0.88
			c0.309,0.332,0.52,0.704,0.654,1.033c0.278,0.663,0.219,1.148,0.219,1.148s-0.271-0.386-0.704-0.842
			c-0.433-0.462-1.054-0.967-1.753-1.34c-0.35-0.191-0.721-0.345-1.08-0.486c-0.185-0.055-0.359-0.127-0.529-0.191
			c-0.171-0.043-0.333-0.096-0.485-0.146c-0.3-0.111-0.593-0.16-0.778-0.229C93.342,165.012,93.232,164.967,93.232,164.967z"/>
	</g>
</g>
</svg>
