<?xml version="1.0" encoding="utf-8"?>
<!-- Generator: Adobe Illustrator 16.0.0, SVG Export Plug-In . SVG Version: 6.00 Build 0)  -->
<!DOCTYPE svg PUBLIC "-//W3C//DTD SVG 1.1//EN" "http://www.w3.org/Graphics/SVG/1.1/DTD/svg11.dtd">
<svg version="1.1" id="Layer_1" xmlns="http://www.w3.org/2000/svg" xmlns:xlink="http://www.w3.org/1999/xlink" x="0px" y="0px"
	 width="216px" height="216px" viewBox="0 0 216 216" enable-background="new 0 0 216 216" xml:space="preserve">
<g display="none">
	<path display="inline" fill="none" stroke="#EC008C" stroke-width="20" stroke-miterlimit="10" d="M165.047,190.126
		c0-15.791,5.773-31.621,5.773-31.621c-4.162,9.943,3.964,23.087,6.725,22.22c2.76-0.869-0.25-15.977,6.007-20.371
		s10.392-8.786,4.777-19.047c-5.614-10.262-1.425-13.452,6.335-24.638c7.759-11.185,12.691-24.761,4.248-41.133
		c-8.444-16.372,8.673-15.832,6.287-22.043s-12.412-8.989-13.601-10.936s0.881-4.757-4.435-8.341
		c-5.316-3.584-11.72,3.351-14.43,2.222c-2.71-1.13,0.814-20.898-5.211-20.443c-6.024,0.456-2.946,32.809-12.428,32.274
		c-9.481-0.533-6.353-9.158-6.353-9.158l-8.582-0.329c0.517-5.597,0.146-10.178-1.366-11.204
		c-4.036-2.733-20.578,10.551-24.584,15.166l0.077-0.187c-1.997-0.834-4.209-1.303-6.316-1.303s-4.181,0.469-6.178,1.303
		l0.077,0.187c-4.006-4.615-20.547-17.899-24.584-15.166c-1.513,1.026-1.883,5.607-1.365,11.204l-8.583,0.329
		c0,0,3.13,8.625-6.353,9.158c-9.481,0.534-5.125-31.496-12.428-32.274s-2.501,19.313-5.211,20.443
		c-2.71,1.129-7.65-2.954-14.43-2.222s-3.246,6.395-4.435,8.341s-13.142,6.047-13.6,10.936c-0.46,4.888,14.73,5.671,6.286,22.043
		c-8.443,16.372-3.511,29.948,4.249,41.133c7.761,11.186,11.948,14.376,6.334,24.638c-5.614,10.261-1.479,14.652,4.778,19.047
		s3.906,19.081,6.006,20.371c2.101,1.289,10.887-12.276,6.725-22.22c0,0,5.774,18.297,5.774,31.621
		c0,3.262,25.516,5.906,56.99,5.906C139.502,196.032,165.047,193.388,165.047,190.126z"/>
	<path display="inline" fill="none" stroke="#FFFFFF" stroke-width="15" stroke-miterlimit="10" d="M165.047,190.126
		c0-15.791,5.773-31.621,5.773-31.621c-4.162,9.943,3.964,23.087,6.725,22.22c2.76-0.869-0.25-15.977,6.007-20.371
		s10.392-8.786,4.777-19.047c-5.614-10.262-1.425-13.452,6.335-24.638c7.759-11.185,12.691-24.761,4.248-41.133
		c-8.444-16.372,8.673-15.832,6.287-22.043s-12.412-8.989-13.601-10.936s0.881-4.757-4.435-8.341
		c-5.316-3.584-11.72,3.351-14.43,2.222c-2.71-1.13,0.814-20.898-5.211-20.443c-6.024,0.456-2.946,32.809-12.428,32.274
		c-9.481-0.533-6.353-9.158-6.353-9.158l-8.582-0.329c0.517-5.597,0.146-10.178-1.366-11.204
		c-4.036-2.733-20.578,10.551-24.584,15.166l0.077-0.187c-1.997-0.834-4.209-1.303-6.316-1.303s-4.181,0.469-6.178,1.303
		l0.077,0.187c-4.006-4.615-20.547-17.899-24.584-15.166c-1.513,1.026-1.883,5.607-1.365,11.204l-8.583,0.329
		c0,0,3.13,8.625-6.353,9.158c-9.481,0.534-5.125-31.496-12.428-32.274s-2.501,19.313-5.211,20.443
		c-2.71,1.129-7.65-2.954-14.43-2.222s-3.246,6.395-4.435,8.341s-13.142,6.047-13.6,10.936c-0.46,4.888,14.73,5.671,6.286,22.043
		c-8.443,16.372-3.511,29.948,4.249,41.133c7.761,11.186,11.948,14.376,6.334,24.638c-5.614,10.261-1.479,14.652,4.778,19.047
		s3.906,19.081,6.006,20.371c2.101,1.289,10.887-12.276,6.725-22.22c0,0,5.774,18.297,5.774,31.621
		c0,3.262,25.516,5.906,56.99,5.906C139.502,196.032,165.047,193.388,165.047,190.126z"/>
	<path display="inline" fill="#FFFFFF" d="M165.047,190.126c0-15.791,5.773-31.621,5.773-31.621
		c-4.162,9.943,3.964,23.087,6.725,22.22c2.76-0.869-0.25-15.977,6.007-20.371s10.392-8.786,4.777-19.047
		c-5.614-10.262-1.425-13.452,6.335-24.638c7.759-11.185,12.691-24.761,4.248-41.133c-8.444-16.372,8.673-15.832,6.287-22.043
		s-12.412-8.989-13.601-10.936s0.881-4.757-4.435-8.341c-5.316-3.584-11.72,3.351-14.43,2.222c-2.71-1.13,0.814-20.898-5.211-20.443
		c-6.024,0.456-2.946,32.809-12.428,32.274c-9.481-0.533-6.353-9.158-6.353-9.158l-8.582-0.329
		c0.517-5.597,0.146-10.178-1.366-11.204c-4.036-2.733-20.578,10.551-24.584,15.166l0.077-0.187
		c-1.997-0.834-4.209-1.303-6.316-1.303s-4.181,0.469-6.178,1.303l0.077,0.187c-4.006-4.615-20.547-17.899-24.584-15.166
		c-1.513,1.026-1.883,5.607-1.365,11.204l-8.583,0.329c0,0,3.13,8.625-6.353,9.158c-9.481,0.534-5.125-31.496-12.428-32.274
		s-2.501,19.313-5.211,20.443c-2.71,1.129-7.65-2.954-14.43-2.222s-3.246,6.395-4.435,8.341s-13.142,6.047-13.6,10.936
		c-0.46,4.888,14.73,5.671,6.286,22.043c-8.443,16.372-3.511,29.948,4.249,41.133c7.761,11.186,11.948,14.376,6.334,24.638
		c-5.614,10.261-1.479,14.652,4.778,19.047s3.906,19.081,6.006,20.371c2.101,1.289,10.887-12.276,6.725-22.22
		c0,0,5.774,18.297,5.774,31.621c0,3.262,25.516,5.906,56.99,5.906C139.502,196.032,165.047,193.388,165.047,190.126z"/>
</g>
<g>
	<ellipse fill="#202023" cx="108.15" cy="190.579" rx="56.991" ry="5.905"/>
	<path fill="#39404C" d="M133.821,136.526c5.29,1.569,31.368,9.745,25.133,33.438c-4.511,17.136-21.126,13.227-29.953,17.136
		c-8.83,3.907-13.94,8.718-17.548,4.809c-3.606-3.907,3.571-10.211,12.453-13.828c5.577-2.271,26.028,0.602,26.629-12.927
		c0.602-13.529-5.755-16.543-18.06-23.304"/>
	<path fill="#39404C" d="M126.426,104.389c8.929,7.245,11.668,34.75,1.655,44.969c0,0,8.758,22.696,1.402,26.152
		c-7.354,3.456-6.019-27.204-12.323-31.112"/>
	<path fill="#39404C" d="M89.925,104.389c-8.928,7.245-11.666,34.75-1.655,44.969c0,0-8.755,22.696-1.4,26.152
		s6.018-27.204,12.323-31.112"/>
	<path fill="#4F586B" d="M93.231,85.525c0,0-9.561,38.938-2.548,61.382c7.015,22.446,9.02,25.051,11.823,24.447
		c2.807-0.599-3.902-23.244-2.953-26.251c0,0,4.909,1.804,8.766,1.804s8.32-1.804,8.32-1.804c0.949,3.007-5.757,25.652-2.953,26.251
		c2.806,0.604,4.812-2.001,11.824-24.447c7.014-22.444-2.548-61.382-2.548-61.382"/>
</g>
<g>
	<path fill="#CC4B32" d="M127.681,86.382c7.021-0.946,17.042-15.938,16.641-27.349c-0.4-11.41-6.301-6.355,4.065-24.471
		c0,0-7.271,10.954-2.061,14.324c5.209,3.372,6.304,6.596,2.061,10.146c-4.244,3.551-1.131,9.654,2.611,9.654
		c3.744,0,5.348-7.576,3.343-12.634c-2.001-5.061,12.025-8.853,12.826-21.491c0.803-12.637,0-18.115,0-18.115
		s1.202,17.293,5.211,20.443c4.009,3.149,1.603,25.329,5.21,28.143c3.607,2.812,8.417,3.098,11.623,0.006
		c3.207-3.092,10.421-12.78,15.632-11.095c0,0-10.821,5.896-8.818,13.479c2.004,7.583,10.021,28.648,4.408,40.023
		c-5.61,11.377-18.837,22.836-15.23,29.113c3.608,6.276,8.819,16.03,1.604,21.265c-7.215,5.235-16.433,16.188-9.619,23.351
		c0,0-14.028-15.166-3.607-26.543c10.422-11.375,7.615-14.323,2.807-24.013c-4.81-9.69,6.813-16.925,1.601-27.842
		c0,0-3.605,8.751-9.216,10.291c-5.612,1.541-6.414,11.651-6.414,11.651s-5.611-10.533,2.004-16.43
		c7.614-5.898-4.007-19.488-6.412-23.013c0,0,3.206,7.845-0.401,9.952s-4.009,7.584-5.611,10.109c0,0,2.055-6.951-1.552-10.585
		c-3.608-3.634-3.759-11.541-10.521-8.297c-6.764,3.242-8.765,2.613-12.173,1.663"/>
	<path fill="#CC4B32" d="M186.807,34.669c3.206,8.029,6.411,6.447,3.206,14.052c-3.206,7.606-8.016,10.878-4.811,14.053
		c0,0-0.398-6.446-2.805-10.054c-2.404-3.607,3.495-6.279,4.472-11.013C187.845,36.972,186.807,34.669,186.807,34.669z"/>
	<path fill="#CC4B32" d="M138.357,95.433c0.921,5.184-2.553,5.682-1.651,7.335s5.48,6.763,4.169,8.566c0,0,2.688-3.197,0-4.809
		c-2.689-1.611-0.643-3.006,0-4.51C141.517,100.513,138.357,95.433,138.357,95.433z"/>
	<path fill="#CC4B32" d="M29.043,34.669c-3.205,8.029-6.411,6.447-3.205,14.052c3.205,7.606,8.016,10.878,4.81,14.053
		c0,0,0.399-6.446,2.806-10.054c2.403-3.607-3.496-6.279-4.472-11.013C28.006,36.972,29.043,34.669,29.043,34.669z"/>
	<path fill="#CC4B32" d="M77.492,95.433c-0.92,5.184,2.553,5.682,1.651,7.335s-5.48,6.763-4.169,8.566c0,0-2.688-3.197,0-4.809
		c2.689-1.611,0.643-3.006,0-4.51C74.334,100.513,77.492,95.433,77.492,95.433z"/>
	<path fill="#CC7533" d="M137.797,82.145c4.767-0.645,11.568-10.82,11.297-18.565c-0.273-7.746-4.278-4.314,2.758-16.612
		c0,0-4.936,7.436-1.396,9.725c3.536,2.288,4.276,4.477,1.396,6.888c-2.88,2.41-0.768,6.552,1.774,6.552
		c2.54,0,3.628-5.141,2.269-8.576c-1.361-3.434,8.162-6.009,8.707-14.588s0-12.298,0-12.298s0.816,11.739,3.537,13.878
		c2.72,2.137,1.089,17.195,3.537,19.104s5.713,2.103,7.89,0.005c2.177-2.099,7.074-8.677,10.61-7.533c0,0-7.344,4.004-5.984,9.151
		c1.359,5.148,6.801,19.448,2.992,27.168c-3.809,7.724-12.789,15.502-10.339,19.763c2.449,4.262,5.987,10.884,1.09,14.438
		c-4.898,3.553-11.156,10.989-6.531,15.851c0,0-9.522-10.296-2.45-18.02c7.076-7.721,5.171-9.722,1.905-16.301
		c-3.264-6.578,4.628-11.489,1.089-18.899c0,0-2.45,5.941-6.259,6.986c-3.808,1.045-4.353,7.909-4.353,7.909
		s-3.809-7.149,1.358-11.154c5.171-4.003-2.718-13.228-4.352-15.621c0,0,2.177,5.325-0.271,6.756s-2.722,5.148-3.809,6.864
		c0,0,1.393-4.72-1.056-7.188c-2.448-2.466-2.549-7.831-7.142-5.632c-4.591,2.2-5.948,1.775-8.263,1.13"/>
	<path fill="#CC4B32" d="M88.169,86.382c-7.021-0.946-17.042-15.938-16.641-27.349c0.401-11.41,6.301-6.355-4.064-24.471
		c0,0,7.271,10.954,2.06,14.324c-5.209,3.372-6.303,6.596-2.06,10.146c4.244,3.551,1.13,9.654-2.614,9.654
		c-3.742,0-5.345-7.576-3.341-12.634c2.002-5.061-12.024-8.853-12.825-21.491c-0.803-12.637,0-18.115,0-18.115
		S47.48,33.74,43.473,36.891c-4.01,3.149-1.604,25.329-5.21,28.143c-3.607,2.812-8.417,3.098-11.623,0.006
		c-3.208-3.092-10.421-12.78-15.632-11.095c0,0,10.82,5.896,8.817,13.479c-2.003,7.583-10.02,28.648-4.408,40.023
		c5.61,11.377,18.837,22.836,15.23,29.113c-3.609,6.276-8.819,16.03-1.604,21.265c7.216,5.235,16.432,16.188,9.619,23.351
		c0,0,14.028-15.166,3.607-26.543c-10.421-11.375-7.614-14.323-2.807-24.013c4.811-9.69-6.812-16.925-1.601-27.842
		c0,0,3.606,8.751,9.217,10.291c5.611,1.541,6.414,11.651,6.414,11.651s5.611-10.533-2.004-16.43
		c-7.615-5.898,4.006-19.488,6.411-23.013c0,0-3.205,7.845,0.402,9.952s4.008,7.584,5.611,10.109c0,0-2.055-6.951,1.552-10.585
		c3.608-3.634,3.759-11.541,10.521-8.297c6.763,3.242,8.764,2.613,12.172,1.663"/>
	<path fill="#CC7533" d="M78.053,82.145c-4.767-0.645-11.567-10.82-11.296-18.565c0.272-7.746,4.277-4.314-2.759-16.612
		c0,0,4.936,7.436,1.397,9.725c-3.536,2.288-4.278,4.477-1.397,6.888c2.881,2.41,0.769,6.552-1.773,6.552
		c-2.541,0-3.628-5.141-2.27-8.576c1.36-3.434-8.162-6.009-8.707-14.588c-0.544-8.579,0-12.298,0-12.298s-0.815,11.739-3.536,13.878
		c-2.721,2.137-1.09,17.195-3.538,19.104s-5.713,2.103-7.889,0.005c-2.178-2.099-7.073-8.677-10.611-7.533
		c0,0,7.345,4.004,5.985,9.151c-1.36,5.148-6.801,19.448-2.993,27.168c3.809,7.724,12.789,15.502,10.338,19.763
		c-2.447,4.262-5.985,10.884-1.088,14.438c4.899,3.553,11.156,10.989,6.531,15.851c0,0,9.522-10.296,2.449-18.02
		c-7.075-7.721-5.171-9.722-1.905-16.301c3.264-6.578-4.628-11.489-1.088-18.899c0,0,2.448,5.941,6.259,6.986
		c3.808,1.045,4.352,7.909,4.352,7.909s3.81-7.149-1.359-11.154c-5.17-4.003,2.72-13.228,4.353-15.621c0,0-2.177,5.325,0.271,6.756
		s2.723,5.148,3.81,6.864c0,0-1.394-4.72,1.056-7.188c2.447-2.466,2.549-7.831,7.142-5.632c4.59,2.2,5.947,1.775,8.262,1.13"/>
</g>
<path fill="#468C20" d="M124.804,85.106c2.481,2.183,3.029,8.876-0.253,10.076c-3.283,1.204-28.275-2.203-32.023-5.21
	c-3.745-3.004-0.288-6.062,0.104-5.887"/>
<g>
	<g>
		<path fill="#4F586B" d="M114.706,43.197c4.006-4.616,20.544-17.901,24.583-15.168c4.037,2.736-0.065,30.758-7.391,35.892"/>
		<path fill="#8B97AF" d="M122.804,49.08c0.728-5.941,9.473-15.669,13.49-14.275c4.688,1.625-2.837,26.637-5.587,27.969"/>
	</g>
	<g>
		<path fill="#4F586B" d="M101.996,43.197c-4.006-4.616-20.548-17.901-24.585-15.168c-4.034,2.736,0.068,30.758,7.392,35.892"/>
		<path fill="#8B97AF" d="M93.897,49.08c-0.728-5.941-9.472-15.669-13.49-14.275c-4.688,1.625,2.838,26.637,5.587,27.969"/>
	</g>
	<g>
		<defs>
			<path id="SVGID_37_" d="M108.097,87.289c-14.697,0-23.676-2.498-25.175-13.462c-1.52-11.121,11.065-32.12,25.175-32.12
				c14.11,0,26.697,20.999,25.176,32.12C131.751,84.941,122.482,87.289,108.097,87.289z"/>
		</defs>
		<use xlink:href="#SVGID_37_"  overflow="visible" fill="#4F586B"/>
		<clipPath id="SVGID_12_">
			<use xlink:href="#SVGID_37_"  overflow="visible"/>
		</clipPath>
	</g>
	<g>
		<defs>
			<path id="SVGID_39_" d="M113.007,74.563c-0.102-7.099,8.275-24.941,14.278-6.589C125.174,83.281,113.007,74.563,113.007,74.563z"
				/>
		</defs>
		<use xlink:href="#SVGID_39_"  overflow="visible" fill="#F6D294"/>
		<clipPath id="SVGID_14_">
			<use xlink:href="#SVGID_39_"  overflow="visible"/>
		</clipPath>
		<path clip-path="url(#SVGID_14_)" fill="#201F24" d="M118.394,73.811c0,3.28,0.774,5.936,1.734,5.936
			c0.955,0,1.732-2.655,1.732-5.936c0-3.277-0.777-5.936-1.732-5.936C119.168,67.875,118.394,70.533,118.394,73.811z"/>
	</g>
	<g>
		<g>
			<path id="SVGID_9_" fill="#AF8BAA" d="M108.152,77.666c-0.891,1.744-3.632,2.832-5.604,1.744c0,0,0.477,5.332,5.591,5.3
				c5.116-0.031,5.504-5.3,5.504-5.3c-1.968,1.088-4.712,0-5.603-1.744"/>
		</g>
		<g>
			<g>
				<defs>
					<path id="SVGID_41_" d="M108.152,77.666c-0.891,1.744-3.632,2.832-5.604,1.744c0,0,0.477,5.332,5.591,5.3
						c5.116-0.031,5.504-5.3,5.504-5.3c-1.968,1.088-4.712,0-5.603-1.744"/>
				</defs>
				<clipPath id="SVGID_16_">
					<use xlink:href="#SVGID_41_"  overflow="visible"/>
				</clipPath>
				<path clip-path="url(#SVGID_16_)" fill="#D8D7D6" d="M112.688,79.459c0,0,0.146,1.143,0.42,1.262
					c0.273,0.124,0.533-1.278,0.533-1.278"/>
			</g>
		</g>
		<g>
			<g>
				<defs>
					<path id="SVGID_43_" d="M108.152,77.666c-0.891,1.744-3.632,2.832-5.604,1.744c0,0,0.477,5.332,5.591,5.3
						c5.116-0.031,5.504-5.3,5.504-5.3c-1.968,1.088-4.712,0-5.603-1.744"/>
				</defs>
				<clipPath id="SVGID_18_">
					<use xlink:href="#SVGID_43_"  overflow="visible"/>
				</clipPath>
				<path clip-path="url(#SVGID_18_)" fill="#D8D7D6" d="M102.616,79.459c0,0,0.145,1.143,0.419,1.262
					c0.271,0.124,0.535-1.278,0.535-1.278"/>
			</g>
		</g>
		<path fill="#201F24" d="M108.173,77.663c0.372,0.046,1.075-1.088,1.001-1.415c-0.072-0.323-1.949-0.344-2.044-0.068
			C107.038,76.458,107.805,77.617,108.173,77.663z"/>
	</g>
	<g>
		<defs>
			<path id="SVGID_45_" d="M103.17,74.558c0.103-7.097-8.272-24.942-14.277-6.591C91.004,83.274,103.17,74.558,103.17,74.558z"/>
		</defs>
		<use xlink:href="#SVGID_45_"  overflow="visible" fill="#F6D294"/>
		<clipPath id="SVGID_20_">
			<use xlink:href="#SVGID_45_"  overflow="visible"/>
		</clipPath>
		<path clip-path="url(#SVGID_20_)" fill="#201F24" d="M97.784,73.805c0,3.279-0.778,5.934-1.733,5.934
			c-0.957,0-1.733-2.654-1.733-5.934c0-3.277,0.776-5.938,1.733-5.938C97.006,67.866,97.784,70.527,97.784,73.805z"/>
	</g>
	<g>
		<path fill="#0B1623" d="M86.572,78.331c0,0-0.432-0.058-1.013-0.259c-0.146-0.049-0.304-0.104-0.464-0.169
			c-0.163-0.026-0.332-0.047-0.495-0.088c-0.165-0.039-0.335-0.066-0.5-0.122c-0.167-0.047-0.356-0.031-0.533-0.053
			c-0.178-0.015-0.358-0.068-0.534-0.058c-0.174,0.021-0.35,0.011-0.521,0.015c-0.174-0.009-0.334,0.024-0.493,0.046
			c-0.154,0.031-0.317,0.023-0.454,0.062c-0.276,0.067-0.529,0.108-0.697,0.166c-0.179,0.043-0.28,0.081-0.28,0.081
			s0.198-0.404,0.75-0.774c0.131-0.105,0.296-0.169,0.468-0.251c0.173-0.078,0.355-0.177,0.563-0.198
			c0.204-0.036,0.417-0.089,0.637-0.111c0.219-0.022,0.439,0.019,0.662,0.028c0.22,0.037,0.443,0.039,0.654,0.108
			c0.211,0.07,0.411,0.166,0.604,0.245c0.195,0.079,0.372,0.174,0.538,0.258c0.142,0.103,0.265,0.216,0.38,0.318
			C86.308,77.983,86.572,78.331,86.572,78.331z"/>
	</g>
	<g>
		<path fill="#0B1623" d="M87.058,81.16c0,0-0.39,0.195-0.983,0.355c-0.147,0.042-0.311,0.085-0.479,0.122
			c-0.148,0.07-0.3,0.147-0.458,0.206c-0.158,0.061-0.314,0.134-0.482,0.181c-0.164,0.056-0.312,0.175-0.47,0.257
			c-0.156,0.088-0.335,0.146-0.474,0.253c-0.133,0.115-0.283,0.205-0.422,0.306c-0.148,0.091-0.263,0.209-0.382,0.315
			c-0.109,0.113-0.249,0.199-0.34,0.309c-0.19,0.211-0.376,0.388-0.482,0.531c-0.124,0.136-0.186,0.225-0.186,0.225
			s-0.064-0.446,0.183-1.062c0.049-0.161,0.149-0.307,0.245-0.472c0.099-0.162,0.193-0.348,0.354-0.482
			c0.148-0.145,0.294-0.309,0.463-0.451c0.168-0.142,0.374-0.231,0.563-0.349c0.203-0.094,0.389-0.218,0.603-0.279
			s0.434-0.095,0.638-0.138c0.206-0.045,0.405-0.066,0.59-0.091c0.176,0.006,0.341,0.03,0.494,0.05
			C86.643,81.021,87.058,81.16,87.058,81.16z"/>
	</g>
	<g>
		<path fill="#0B1623" d="M129.483,78.19c0,0,0.265-0.348,0.729-0.755c0.115-0.102,0.238-0.215,0.38-0.318
			c0.166-0.084,0.343-0.178,0.538-0.257c0.193-0.08,0.394-0.176,0.604-0.246c0.211-0.068,0.435-0.07,0.654-0.107
			c0.223-0.011,0.443-0.052,0.662-0.029c0.22,0.022,0.433,0.076,0.637,0.112c0.208,0.021,0.391,0.12,0.564,0.198
			c0.172,0.083,0.336,0.146,0.467,0.251c0.552,0.371,0.75,0.775,0.75,0.775s-0.102-0.038-0.28-0.081
			c-0.168-0.058-0.421-0.1-0.697-0.167c-0.137-0.039-0.3-0.031-0.454-0.062c-0.158-0.021-0.319-0.055-0.493-0.046
			c-0.171-0.005-0.347,0.006-0.521-0.015c-0.176-0.011-0.356,0.043-0.534,0.058c-0.177,0.021-0.366,0.005-0.533,0.053
			c-0.165,0.055-0.335,0.082-0.5,0.122c-0.164,0.04-0.333,0.062-0.495,0.087c-0.16,0.065-0.318,0.121-0.465,0.169
			C129.915,78.133,129.483,78.19,129.483,78.19z"/>
	</g>
	<g>
		<path fill="#0B1623" d="M129.001,81.02c0,0,0.414-0.139,1.026-0.214c0.153-0.02,0.318-0.044,0.493-0.05
			c0.185,0.024,0.384,0.046,0.59,0.091c0.204,0.043,0.424,0.076,0.638,0.138c0.213,0.062,0.399,0.186,0.602,0.279
			c0.189,0.117,0.396,0.207,0.563,0.349c0.169,0.143,0.314,0.307,0.463,0.451c0.159,0.135,0.255,0.32,0.354,0.482
			c0.096,0.165,0.196,0.31,0.244,0.471c0.247,0.616,0.183,1.062,0.183,1.062s-0.062-0.089-0.186-0.225
			c-0.106-0.143-0.292-0.319-0.482-0.531c-0.09-0.108-0.229-0.194-0.339-0.308c-0.119-0.107-0.233-0.225-0.382-0.315
			c-0.139-0.101-0.289-0.19-0.422-0.306c-0.139-0.107-0.317-0.165-0.474-0.253c-0.157-0.083-0.305-0.202-0.47-0.257
			c-0.167-0.048-0.323-0.121-0.481-0.181c-0.158-0.059-0.31-0.137-0.458-0.207c-0.169-0.036-0.331-0.079-0.479-0.122
			C129.39,81.215,129.001,81.02,129.001,81.02z"/>
	</g>
</g>
<g>
	<g>
		<defs>
			<path id="SVGID_47_" d="M91.411,88.67c3.026,6.392,8.059,16.28,15.773,20.538c7.714,4.257,32.303,10.313,34.225,13.104
				l7.626,17.087c0,0-13.49-9.533-28.157-15.65c-14.669-6.118-19.721-12.396-23.157-16.886c-3.436-4.485-7.477-17.621-7.477-17.621"
				/>
		</defs>
		<use xlink:href="#SVGID_47_"  overflow="visible" fill="#468C20"/>
		<clipPath id="SVGID_22_">
			<use xlink:href="#SVGID_47_"  overflow="visible"/>
		</clipPath>
		<path clip-path="url(#SVGID_22_)" fill="#CE9D2E" d="M142.07,118.998c-4.404-1.333-6.602-1.167-6.602-1.167l7.864,20.167
			l8.5,4.667l-9.763-24.5"/>
	</g>
	<g>
		<defs>
			<path id="SVGID_49_" d="M92.146,88.555c0.154,4.769,0.151,17.407,4.6,27.983c4.449,10.574,9.622,19.528,14.96,24.726
				c0,0-2.063,10.29-4.878,13.928c0,0-10.788-26.562-13.489-35.946c-2.699-9.382-3.577-28.589-2.419-31.394"/>
		</defs>
		<use xlink:href="#SVGID_49_"  overflow="visible" fill="#468C20"/>
		<clipPath id="SVGID_24_">
			<use xlink:href="#SVGID_49_"  overflow="visible"/>
		</clipPath>
		<path clip-path="url(#SVGID_24_)" fill="#CE9D2E" d="M114.006,140.665c-2.84-2-4.186-2.58-4.186-2.58s-3.808,11.401-5.981,12.58
			s4.283,6.333,4.283,6.333L114.006,140.665z"/>
	</g>
	<path fill="#E5B232" d="M90.152,90.377c-1.236-0.353-2.171-1.611-2.171-1.611c2.171-0.683,2.174-2.16,2.174-2.16l-1.216-0.144
		c-0.136-2.311-3.02-1.504-3.02-1.504c0.703-2.34-1.594-2.194-1.594-2.194c1.274-2.131-2.392-3.568-2.392-3.568
		c3.918-0.803,6.539,2.167,6.854,3.51c0.315,1.34,1.387,1.819,1.904,1.436s0.796-1.938,2.322-0.594c0,0-0.674,0.273-0.315,0.935
		c0.36,0.661,1.521,0.676,2.445-0.342c0.926-1.022,4.657-2.349,7.694,0.252c0,0-3.9-0.519-3.818,1.963c0,0-1.938-1.241-2.456,1.146
		c0,0-2.133-2.106-3.371-0.15l-1.047-0.476c0,0-0.891,1.284,0.679,2.932C92.825,89.807,91.497,90.76,90.152,90.377z"/>
</g>
</svg>
