<?xml version="1.0" encoding="utf-8"?>
<!-- Generator: Adobe Illustrator 16.0.0, SVG Export Plug-In . SVG Version: 6.00 Build 0)  -->
<!DOCTYPE svg PUBLIC "-//W3C//DTD SVG 1.1//EN" "http://www.w3.org/Graphics/SVG/1.1/DTD/svg11.dtd">
<svg version="1.1" id="Layer_1" xmlns="http://www.w3.org/2000/svg" xmlns:xlink="http://www.w3.org/1999/xlink" x="0px" y="0px"
	 width="144px" height="216px" viewBox="0 0 144 216" enable-background="new 0 0 144 216" xml:space="preserve">
<g display="none">
	<path display="inline" fill="none" stroke="#EC008C" stroke-width="21" stroke-miterlimit="10" d="M44.402,125.971
		c-11.861,5.397-20.108,17.354-20.108,31.234c0,11.441,5.603,21.573,14.213,27.804V185c-16.297,1.088-27.086,2.986-27.086,5.145
		c0,3.38,26.435,6.12,59.044,6.12s59.045-2.74,59.045-6.12c0-1.28-3.796-2.469-10.284-3.452l-0.234-15.452
		c0.331-0.827,0.337-1.671-0.13-2.471c-2.041-3.496-9.327,0.583-11.658-4.955c-1.621-3.844-1.834-14.434-6.691-20.939
		c4.285-6.199,19.536-21.304,17.17-25.147c-2.466-4.007-16.951,3.192-20.958,12.846c0,0,4.817-14.206-3.504-21.911
		c-0.683-0.632-1.315-1.353-2.073-1.903l0,0c-4.749-3.712-3.975-12.609-3.975-12.609c0.263-0.915,1.918-7.766,0.991-8.196
		l0.002,0.01c2.739-0.136,6.479-0.835,10.021-2.031c5.387-1.821,8.74-4.785,10.614-7.922c1.916-2.77-0.492-7.326-1.659-10.933
		c0,0,7.81-1.294,10.923-0.83c3.114,0.465,4.655,2.263,5.835,1.113s-2.653-1.89,1.659-2.637c4.312-0.748,9.743-1.971,7.347-2.637
		c-2.396-0.668-9.743-0.133-10.382,0c-0.638,0.133-2.331-1.61-3.531-2.902c-1.2-1.294,2.702-3.355,0.24-2.7
		c-2.461,0.656-8.289,0.076-10.809,0c3.58-8.161,9.369-20.354,6.357-22.899c-4.372-3.697-18.944,8.65-22.013,13.79l-0.102-0.052
		c-1.283-0.632-2.593-1.038-3.91-1.163c-0.718-0.07-1.441-0.077-2.168-0.028l0,0c-3.417-3.096-5.618-18.469-9.114-19.562
		c-2.358-0.736-9.324,9.714-11.741,21.152c-1.387,0.361-5.159,0.062-6.657,1.679c-1.496,1.617-1.377,5.57-7.066,6.29
		c-5.689,0.718,5.33,0.838-0.959,2.873c-6.288,2.038-9.328,3.333-10.114,4.751V80.58v0.153c-2.688-0.574-17.471-0.462-18.499,0
		c-1.029,0.461-1.052,2.34,0.442,3.599c1.494,1.256,16.003-1.292,17.537,0h-0.028c-0.5,7.552-0.297,24.324,0.548,25.168
		c1.068,1.069,3.471,2.914,3.471,2.914v0.431c-3.703,0.057-6.212,0.206-6.482,0.39c-1.23,0.832-1.009,4.237,0,5.246
		c0.235,0.234,2.754,0.36,6.482,0.414L44.402,125.971z"/>
	<path display="inline" fill="none" stroke="#FFFFFF" stroke-width="15" stroke-miterlimit="10" d="M44.402,125.971
		c-11.861,5.397-20.108,17.354-20.108,31.234c0,11.441,5.603,21.573,14.213,27.804V185c-16.297,1.088-27.086,2.986-27.086,5.145
		c0,3.38,26.435,6.12,59.044,6.12s59.045-2.74,59.045-6.12c0-1.28-3.796-2.469-10.284-3.452l-0.234-15.452
		c0.331-0.827,0.337-1.671-0.13-2.471c-2.041-3.496-9.327,0.583-11.658-4.955c-1.621-3.844-1.834-14.434-6.691-20.939
		c4.285-6.199,19.536-21.304,17.17-25.147c-2.466-4.007-16.951,3.192-20.958,12.846c0,0,4.817-14.206-3.504-21.911
		c-0.683-0.632-1.315-1.353-2.073-1.903l0,0c-4.749-3.712-3.975-12.609-3.975-12.609c0.263-0.915,1.918-7.766,0.991-8.196
		l0.002,0.01c2.739-0.136,6.479-0.835,10.021-2.031c5.387-1.821,8.74-4.785,10.614-7.922c1.916-2.77-0.492-7.326-1.659-10.933
		c0,0,7.81-1.294,10.923-0.83c3.114,0.465,4.655,2.263,5.835,1.113s-2.653-1.89,1.659-2.637c4.312-0.748,9.743-1.971,7.347-2.637
		c-2.396-0.668-9.743-0.133-10.382,0c-0.638,0.133-2.331-1.61-3.531-2.902c-1.2-1.294,2.702-3.355,0.24-2.7
		c-2.461,0.656-8.289,0.076-10.809,0c3.58-8.161,9.369-20.354,6.357-22.899c-4.372-3.697-18.944,8.65-22.013,13.79l-0.102-0.052
		c-1.283-0.632-2.593-1.038-3.91-1.163c-0.718-0.07-1.441-0.077-2.168-0.028l0,0c-3.417-3.096-5.618-18.469-9.114-19.562
		c-2.358-0.736-9.324,9.714-11.741,21.152c-1.387,0.361-5.159,0.062-6.657,1.679c-1.496,1.617-1.377,5.57-7.066,6.29
		c-5.689,0.718,5.33,0.838-0.959,2.873c-6.288,2.038-9.328,3.333-10.114,4.751V80.58v0.153c-2.688-0.574-17.471-0.462-18.499,0
		c-1.029,0.461-1.052,2.34,0.442,3.599c1.494,1.256,16.003-1.292,17.537,0h-0.028c-0.5,7.552-0.297,24.324,0.548,25.168
		c1.068,1.069,3.471,2.914,3.471,2.914v0.431c-3.703,0.057-6.212,0.206-6.482,0.39c-1.23,0.832-1.009,4.237,0,5.246
		c0.235,0.234,2.754,0.36,6.482,0.414L44.402,125.971z"/>
	<path display="inline" fill="#FFFFFF" d="M44.402,125.971c-11.861,5.397-20.108,17.354-20.108,31.234
		c0,11.441,5.603,21.573,14.213,27.804V185c-16.297,1.088-27.086,2.986-27.086,5.145c0,3.38,26.435,6.12,59.044,6.12
		s59.045-2.74,59.045-6.12c0-1.28-3.796-2.469-10.284-3.452l-0.234-15.452c0.331-0.827,0.337-1.671-0.13-2.471
		c-2.041-3.496-9.327,0.583-11.658-4.955c-1.621-3.844-1.834-14.434-6.691-20.939c4.285-6.199,19.536-21.304,17.17-25.147
		c-2.466-4.007-16.951,3.192-20.958,12.846c0,0,4.817-14.206-3.504-21.911c-0.683-0.632-1.315-1.353-2.073-1.903l0,0
		c-4.749-3.712-3.975-12.609-3.975-12.609c0.263-0.915,1.918-7.766,0.991-8.196l0.002,0.01c2.739-0.136,6.479-0.835,10.021-2.031
		c5.387-1.821,8.74-4.785,10.614-7.922c1.916-2.77-0.492-7.326-1.659-10.933c0,0,7.81-1.294,10.923-0.83
		c3.114,0.465,4.655,2.263,5.835,1.113s-2.653-1.89,1.659-2.637c4.312-0.748,9.743-1.971,7.347-2.637
		c-2.396-0.668-9.743-0.133-10.382,0c-0.638,0.133-2.331-1.61-3.531-2.902c-1.2-1.294,2.702-3.355,0.24-2.7
		c-2.461,0.656-8.289,0.076-10.809,0c3.58-8.161,9.369-20.354,6.357-22.899c-4.372-3.697-18.944,8.65-22.013,13.79l-0.102-0.052
		c-1.283-0.632-2.593-1.038-3.91-1.163c-0.718-0.07-1.441-0.077-2.168-0.028l0,0c-3.417-3.096-5.618-18.469-9.114-19.562
		c-2.358-0.736-9.324,9.714-11.741,21.152c-1.387,0.361-5.159,0.062-6.657,1.679c-1.496,1.617-1.377,5.57-7.066,6.29
		c-5.689,0.718,5.33,0.838-0.959,2.873c-6.288,2.038-9.328,3.333-10.114,4.751V80.58v0.153c-2.688-0.574-17.471-0.462-18.499,0
		c-1.029,0.461-1.052,2.34,0.442,3.599c1.494,1.256,16.003-1.292,17.537,0h-0.028c-0.5,7.552-0.297,24.324,0.548,25.168
		c1.068,1.069,3.471,2.914,3.471,2.914v0.431c-3.703,0.057-6.212,0.206-6.482,0.39c-1.23,0.832-1.009,4.237,0,5.246
		c0.235,0.234,2.754,0.36,6.482,0.414L44.402,125.971z"/>
</g>
<g>
	<g>
		<path fill="#0B1623" d="M107.339,72.532c0,0,0.215-0.319,0.604-0.683c0.097-0.092,0.2-0.192,0.32-0.284
			c0.143-0.076,0.295-0.162,0.464-0.232c0.168-0.071,0.342-0.158,0.526-0.22c0.184-0.061,0.378-0.063,0.57-0.097
			c0.193-0.008,0.386-0.042,0.576-0.022c0.191,0.02,0.377,0.069,0.555,0.103c0.181,0.021,0.339,0.11,0.488,0.182
			c0.148,0.074,0.29,0.134,0.401,0.229c0.473,0.336,0.627,0.702,0.627,0.702s-0.091-0.028-0.248-0.058
			c-0.148-0.043-0.369-0.068-0.606-0.117c-0.117-0.028-0.258-0.018-0.389-0.041c-0.135-0.014-0.271-0.037-0.417-0.027
			c-0.145-0.002-0.292,0.011-0.438-0.007c-0.147-0.008-0.3,0.039-0.449,0.052c-0.148,0.018-0.308,0.003-0.448,0.042
			c-0.138,0.046-0.282,0.064-0.421,0.096c-0.139,0.032-0.283,0.045-0.422,0.062c-0.139,0.053-0.276,0.097-0.404,0.135
			C107.721,72.503,107.339,72.532,107.339,72.532z"/>
	</g>
	<g>
		<path fill="#0B1623" d="M106.926,74.955c0,0,0.357-0.143,0.883-0.224c0.132-0.021,0.273-0.047,0.425-0.056
			c0.16,0.018,0.335,0.032,0.515,0.07c0.179,0.035,0.371,0.062,0.558,0.114c0.187,0.054,0.349,0.161,0.525,0.241
			c0.165,0.103,0.344,0.183,0.489,0.307c0.147,0.124,0.272,0.27,0.4,0.397c0.137,0.118,0.218,0.282,0.301,0.425
			c0.081,0.146,0.164,0.274,0.203,0.416c0.2,0.543,0.121,0.933,0.121,0.933s-0.059-0.075-0.172-0.188
			c-0.099-0.119-0.267-0.265-0.436-0.438c-0.08-0.09-0.203-0.159-0.297-0.253c-0.104-0.088-0.203-0.184-0.329-0.258
			c-0.119-0.084-0.248-0.155-0.358-0.253c-0.118-0.09-0.27-0.137-0.4-0.21c-0.132-0.069-0.256-0.171-0.394-0.219
			c-0.14-0.039-0.27-0.104-0.401-0.157c-0.133-0.052-0.259-0.122-0.384-0.186c-0.145-0.034-0.283-0.076-0.409-0.117
			C107.258,75.146,106.926,74.955,106.926,74.955z"/>
	</g>
	<ellipse fill="#202023" cx="70.826" cy="189.873" rx="59.045" ry="6.118"/>
	<path fill="#4C5669" d="M86.949,43.86c-3.417-3.096-5.618-18.471-9.115-19.563c-3.496-1.093-17.116,22.4-11.036,37.249"/>
	<path fill="#4C5669" d="M93.129,45.103c3.068-5.14,17.641-17.488,22.013-13.791c4.371,3.696-9.799,27.711-8.842,30.234"/>
	<path fill="#8B97AF" d="M70.281,55.024c-0.516-6.036,5.119-24.886,7.645-24.107c2.526,0.776,3.63,14.096,5.451,13.633"/>
	<path fill="#8B97AF" d="M96.709,47.534c2.787-3.598,10.754-9.815,14.057-8.067c3.305,1.749-6.838,16.92-5.777,19.202"/>
	<g>
		<g>
			<path id="SVGID_3_" fill="#4C5669" d="M109.086,74.964c-0.402,6.856-15.312,10.85-21.741,10.748
				c-6.426-0.1-24.287-3.527-22.426-17.109c1.861-13.58,13.659-25.728,24.197-24.716C99.655,44.896,109.743,63.737,109.086,74.964z"
				/>
		</g>
		<g>
			<defs>
				<path id="SVGID_27_" d="M109.086,74.964c-0.229,3.899-5.152,6.873-10.538,8.694c-4.083,1.38-8.431,2.097-11.203,2.054
					c-6.426-0.1-24.287-3.527-22.426-17.109c1.861-13.58,13.659-25.728,24.197-24.716C99.655,44.896,109.743,63.737,109.086,74.964z
					"/>
			</defs>
			<clipPath id="SVGID_12_">
				<use xlink:href="#SVGID_27_"  overflow="visible"/>
			</clipPath>
		</g>
	</g>
	<g>
		<g>
			<path id="SVGID_7_" fill="#F4D193" d="M74.797,67.236c8.337-16.885,14.484-4.783,15.007,2.153
				C89.804,69.39,81.589,80.153,74.797,67.236z"/>
		</g>
		<g>
			<defs>
				<path id="SVGID_29_" d="M74.797,67.236c8.337-16.885,14.484-4.783,15.007,2.153C89.804,69.39,81.589,80.153,74.797,67.236z"/>
			</defs>
			<clipPath id="SVGID_14_">
				<use xlink:href="#SVGID_29_"  overflow="visible"/>
			</clipPath>
			<path clip-path="url(#SVGID_14_)" fill="#201F24" d="M79.848,55.841c-1.06-0.152-2.344,2.673-2.865,6.309
				c-0.521,3.635-0.083,6.705,0.979,6.856c1.061,0.152,2.344-2.671,2.865-6.307S80.909,55.992,79.848,55.841z"/>
		</g>
	</g>
	<g>
		<g>
			<path id="SVGID_6_" fill="#F4D193" d="M105.951,64.384c-1.352-11.405-7.354-3.451-7.354,4.991
				C98.598,69.375,104.6,73.989,105.951,64.384z"/>
		</g>
		<g>
			<defs>
				<path id="SVGID_31_" d="M105.951,64.384c-1.352-11.405-7.354-3.451-7.354,4.991C98.598,69.375,104.6,73.989,105.951,64.384z"/>
			</defs>
			<clipPath id="SVGID_16_">
				<use xlink:href="#SVGID_31_"  overflow="visible"/>
			</clipPath>
			<ellipse clip-path="url(#SVGID_16_)" fill="#201F24" cx="101.19" cy="62.378" rx="1.251" ry="3.92"/>
		</g>
	</g>
	<path fill="#201F24" d="M96.705,71.774c-0.076-0.294-2.014-0.38-2.109-0.05c-0.095,0.331,0.562,1.542,0.948,1.516
		C95.93,73.215,96.784,72.065,96.705,71.774z"/>
	<g>
		<g>
			<path id="SVGID_5_" fill="#AE8AA9" d="M94.031,80.438c-3.494-0.36-4.226-5.72-4.226-5.72c1.962,1.235,4.854,0.28,5.873-1.469
				c1.131,1.872,2.799,2.052,3.345,1.605C98.996,76.427,97.521,80.8,94.031,80.438z"/>
		</g>
		<g>
			<defs>
				<path id="SVGID_33_" d="M94.031,80.438c-3.494-0.36-4.226-5.72-4.226-5.72c1.962,1.235,4.854,0.28,5.873-1.469
					c1.131,1.872,2.799,2.052,3.345,1.605C98.996,76.427,97.521,80.8,94.031,80.438z"/>
			</defs>
			<clipPath id="SVGID_18_">
				<use xlink:href="#SVGID_33_"  overflow="visible"/>
			</clipPath>
			<path clip-path="url(#SVGID_18_)" fill="#D7D7D6" d="M98.513,74.862c0,0,0.118,0.929,0.302,0.859
				c0.186-0.068,0.323-0.812,0.323-0.812"/>
		</g>
		<g>
			<defs>
				<path id="SVGID_35_" d="M94.031,80.438c-3.494-0.36-4.226-5.72-4.226-5.72c1.962,1.235,4.854,0.28,5.873-1.469
					c1.131,1.872,2.799,2.052,3.345,1.605C98.996,76.427,97.521,80.8,94.031,80.438z"/>
			</defs>
			<clipPath id="SVGID_20_">
				<use xlink:href="#SVGID_35_"  overflow="visible"/>
			</clipPath>
			<path clip-path="url(#SVGID_20_)" fill="#D7D7D6" d="M89.843,74.625c0,0,0.188,1.461,0.475,1.352
				c0.289-0.11,0.508-1.279,0.508-1.279"/>
		</g>
	</g>
	<path fill="#D7D7D6" d="M84.443,85.67c0.955-0.82,2.89-0.544,4.081,0.01c0.928,0.43-0.729,7.281-0.991,8.196l-3.157-1.971
		L84.443,85.67z"/>
	<path fill="#201F24" d="M44.768,151.2c1.263,1.262,52.108,1.033,53.144,0c1.035-1.036,2.797-10.887-7.463-10.887
		c-7.454,0-34.896,3.808-45.681,6.95V151.2z"/>
	<path fill="#4C5669" d="M91.242,137.311c14.572,1.165,13.99,20.693,16.321,26.231c2.331,5.537,9.619,1.458,11.659,4.954
		c2.039,3.497-4.956,7.869-8.744,7.869c-3.789,0-12.532-3.206-11.659-10.783c0.875-7.578,0.583-18.07-7.87-23.608
		c-8.451-5.537-9.909,2.622-29.795,0c-19.887-2.623-7.803-34.976-5.18-38.764c2.624-3.791,10.201-18.362,10.359-27.434l17.039,6.739
		c0,0-1.546,20.493,1.07,23.019"/>
	<path fill="#201F24" d="M80.905,102.268c-0.646-2.691-0.323-8.716,0.064-9.299h2.851c0,0,2.938,9.806,7.688,13.517"/>
	<path fill="#4C5669" d="M100.14,144.146c3.418-5.856,20.369-22.456,17.903-26.606c-2.466-4.149-16.952,3.305-20.958,13.303
		c0,0,4.816-14.711-3.504-22.691c-8.322-7.979-22.791-10.082-31.372,4.283c-8.582,14.363,1.59,25.533,1.59,25.533"/>
	<path fill="#201F24" d="M79.545,85.438c0.947-0.949,3.498-0.81,5.053-0.118c1.883,0.84,0.319,6.6-0.777,7.842H80.97
		C80.97,93.162,77.474,87.514,79.545,85.438z"/>
	<path fill="#D7D7D6" d="M80.905,84.743c-2.591-3.109-13.811-9.581-15.649-9.055c-2.033,0.583-0.973,10.025-0.973,10.025
		l11.819,7.448L80.905,84.743z"/>
	<path fill="#201F24" d="M44.768,151.2v-40.802l9.841,0.674c0,0-9.346,27.549-0.658,34.062"/>
	<g>
		<path fill="#2B2B2B" d="M87.54,156.933c0,15.786-12.799,28.585-28.588,28.585c-15.788,0-28.588-12.799-28.588-28.585
			c0-15.791,12.8-28.589,28.588-28.589C74.741,128.344,87.54,141.142,87.54,156.933z M58.952,122.635
			c-18.942,0-34.298,15.356-34.298,34.298c0,18.94,15.355,34.296,34.298,34.296s34.297-15.355,34.297-34.296
			C93.249,137.991,77.895,122.635,58.952,122.635z"/>
		<rect x="57.752" y="126.273" fill="#2B2B2B" width="2.401" height="28.078"/>
		<rect x="57.752" y="158.92" fill="#2B2B2B" width="2.401" height="28.078"/>
		<rect x="28.591" y="155.731" fill="#2B2B2B" width="28.078" height="2.4"/>
		<rect x="61.235" y="155.731" fill="#2B2B2B" width="28.079" height="2.4"/>
		
			<rect x="46.21" y="154.435" transform="matrix(0.7071 0.7071 -0.7071 0.7071 133.0151 15.8204)" fill="#2B2B2B" width="2.402" height="28.078"/>
		
			<rect x="69.294" y="131.351" transform="matrix(0.7071 0.7071 -0.7071 0.7071 123.4539 -7.2638)" fill="#2B2B2B" width="2.403" height="28.079"/>
		
			<rect x="46.209" y="131.352" transform="matrix(-0.7069 0.7073 -0.7073 -0.7069 183.7605 214.6332)" fill="#2B2B2B" width="2.402" height="28.077"/>
		
			<rect x="69.293" y="154.435" transform="matrix(-0.7073 0.7069 -0.7069 -0.7073 239.45 237.8042)" fill="#2B2B2B" width="2.402" height="28.078"/>
		<circle fill="#201F24" cx="58.953" cy="156.933" r="5.002"/>
		<path fill="#999999" d="M83.508,156.933c0,13.561-10.993,24.556-24.556,24.556c-13.562,0-24.556-10.995-24.556-24.556
			c0-13.562,10.994-24.558,24.556-24.558C72.515,132.375,83.508,143.37,83.508,156.933z M58.952,130.358
			c-14.676,0-26.573,11.897-26.573,26.574c0,14.675,11.897,26.571,26.573,26.571s26.573-11.896,26.573-26.571
			C85.525,142.256,73.628,130.358,58.952,130.358z"/>
	</g>
	<path fill="#201F24" d="M44.768,112.142c0,0-2.402-1.847-3.471-2.914c-1.068-1.069-1.112-27.654,0-28.768
		c1.113-1.113,12.19-1.121,13.312,0s0.922,29.689,0,30.612c-0.924,0.923-5.061,1.069-5.061,1.069"/>
	<path fill="#999999" d="M82.46,118.207c0,0-43.165,1.009-44.174,0c-1.01-1.009-1.231-4.414,0-5.247
		C39.517,112.129,87.188,111.987,82.46,118.207z"/>
	<path fill="#999999" d="M41.297,80.46c-2.688-0.574-17.471-0.462-18.5,0c-1.028,0.462-1.051,2.341,0.443,3.598
		c1.493,1.258,16.003-1.29,17.537,0"/>
	<g>
		<path fill="#0B1623" d="M67.029,71.492c0,0-0.382-0.028-0.889-0.187c-0.127-0.037-0.266-0.081-0.404-0.134
			c-0.139-0.019-0.283-0.031-0.421-0.062c-0.14-0.031-0.283-0.05-0.421-0.097c-0.141-0.038-0.301-0.024-0.449-0.041
			c-0.149-0.013-0.301-0.06-0.448-0.052c-0.146,0.018-0.294,0.004-0.438,0.007c-0.146-0.011-0.282,0.013-0.417,0.027
			c-0.131,0.023-0.271,0.012-0.389,0.04c-0.237,0.049-0.458,0.074-0.606,0.117c-0.157,0.029-0.248,0.058-0.248,0.058
			s0.154-0.366,0.627-0.701c0.111-0.096,0.253-0.155,0.401-0.229c0.149-0.071,0.308-0.161,0.488-0.182
			c0.178-0.033,0.363-0.083,0.555-0.103c0.19-0.021,0.382,0.015,0.576,0.022c0.191,0.033,0.386,0.036,0.569,0.097
			c0.186,0.062,0.358,0.148,0.526,0.22c0.169,0.07,0.321,0.156,0.464,0.232c0.12,0.091,0.224,0.192,0.32,0.284
			C66.814,71.174,67.029,71.492,67.029,71.492z"/>
	</g>
	<g>
		<path fill="#0B1623" d="M67.444,73.918c0,0-0.332,0.191-0.84,0.346c-0.126,0.041-0.265,0.082-0.409,0.117
			c-0.125,0.063-0.252,0.134-0.384,0.186c-0.133,0.052-0.262,0.118-0.402,0.157c-0.138,0.048-0.261,0.149-0.394,0.219
			c-0.131,0.073-0.282,0.12-0.399,0.21c-0.111,0.098-0.24,0.169-0.358,0.253c-0.127,0.074-0.226,0.17-0.329,0.258
			c-0.095,0.094-0.218,0.163-0.298,0.253c-0.169,0.174-0.337,0.319-0.436,0.438c-0.113,0.112-0.172,0.188-0.172,0.188
			s-0.079-0.39,0.122-0.933c0.038-0.143,0.122-0.271,0.203-0.416c0.083-0.143,0.163-0.307,0.301-0.425
			c0.128-0.128,0.253-0.273,0.399-0.397s0.324-0.204,0.489-0.307c0.178-0.081,0.34-0.188,0.525-0.241
			c0.188-0.054,0.38-0.079,0.559-0.115c0.18-0.037,0.354-0.052,0.515-0.069c0.151,0.008,0.293,0.034,0.425,0.055
			C67.087,73.775,67.444,73.918,67.444,73.918z"/>
	</g>
	<path fill="#E5B232" d="M110.257,64.387c0,0,6.417-2.45,8.052-1.75l-2.45-0.7c0,0,3.968-1.751,5.951-1.168l-1.399-0.699
		c0,0,9.92-0.816,11.553,0.467c0,0-8.519,0.095-6.886,1.564c0,0-4.317-0.281-4.551,0.536s3.617,1.4,3.734,2.451
		C124.261,65.088,116.674,62.753,110.257,64.387z"/>
	<path fill="#E5B232" d="M107.339,61.041c0,0,5.253-2.685,7.118-1.985c1.867,0.702,0.234-1.166,1.634-1.166
		c1.4,0-0.232-2.981-5.834-2.865c0,0,2.567-0.752,5.018-0.401c2.451,0.351,2.567,0.462,4.318-0.411c0,0-2.218,1.578-1.634,2.512
		c0.583,0.933,3.15,1.517,3.15,1.517s-3.268-0.467-4.084,0.815c-0.817,1.285-1.285,1.985-1.285,1.985S112.941,59.524,107.339,61.041
		z"/>
	<path fill="#E5B232" d="M74.797,61.546c-6.256-0.81-15.452,0.892-19.42,3.225c0,0,1.371-1.4,1.137-2.802
		c-0.232-1.4-4.9-0.583-4.9-0.583s1.751-1.167,1.4-1.867c-0.351-0.699-11.121,1.253-11.121,1.253s12.521-3.821,12.521-4.87
		c0-1.051-2.917-2.101-2.917-2.101s7.701,0.233,9.451-0.818c0,0-4.667,1.868,3.735,1.402c0,0-12.838,1.517-7.236,2.8
		c0,0-2.333,1.4-1.517,2.1c0.817,0.701,3.852,0.118,3.852,0.118l-1.284,2.217C58.498,61.619,68,58.877,74.797,61.546z"/>
	<path fill="#E5B232" d="M58.359,49.631c1.518,0.233,5.242,0.593,6.875,1.703c0,0,1.41-3.104-0.341-3.688s-0.077-1.283,0.778-1.167
		c0.856,0.117,2.49-1.05,3.772-0.584c1.285,0.468-3.5-1.749-8.868,0.817c0,0,2.685,0.543,2.451,1.264
		C62.793,48.697,58.359,49.631,58.359,49.631z"/>
</g>
</svg>
