<?xml version="1.0" encoding="utf-8"?>
<!-- Generator: Adobe Illustrator 16.0.0, SVG Export Plug-In . SVG Version: 6.00 Build 0)  -->
<!DOCTYPE svg PUBLIC "-//W3C//DTD SVG 1.0//EN" "http://www.w3.org/TR/2001/REC-SVG-20010904/DTD/svg10.dtd">
<svg version="1.0" id="Layer_1" xmlns="http://www.w3.org/2000/svg" xmlns:xlink="http://www.w3.org/1999/xlink" x="0px" y="0px"
	 width="400px" height="400px" viewBox="0 0 400 400" style="enable-background:new 0 0 400 400;" xml:space="preserve">
<ellipse style="fill:#202023;" cx="205.757" cy="346.524" rx="158.281" ry="16.402"/>
<g>
	<path style="fill:#0E1824;" d="M58.997,212.389c0,0-0.428,0.038-1.172,0.073c-0.373,0.015-0.825,0.038-1.341,0.041
		c-0.258,0.005-0.533,0.01-0.823,0.016c-0.283,0.026-0.58,0.055-0.89,0.084c-0.618,0.059-1.28,0.115-1.975,0.157
		c-0.698,0.115-1.427,0.247-2.183,0.341c-0.755,0.103-1.499,0.371-2.278,0.516c-0.772,0.178-1.515,0.492-2.279,0.729
		c-0.73,0.316-1.485,0.596-2.176,0.968c-0.677,0.396-1.391,0.714-1.995,1.164c-0.641,0.397-1.207,0.854-1.763,1.274
		c-0.28,0.209-0.509,0.457-0.763,0.668c-0.252,0.213-0.496,0.421-0.704,0.645c-1.758,1.718-2.693,3.174-2.693,3.174
		s0.075-0.425,0.338-1.135c0.141-0.348,0.303-0.784,0.557-1.247c0.125-0.233,0.259-0.482,0.399-0.745
		c0.164-0.249,0.337-0.51,0.517-0.783c0.358-0.55,0.817-1.098,1.322-1.66c0.531-0.535,1.077-1.13,1.752-1.613
		c0.636-0.537,1.358-1.001,2.114-1.44c0.756-0.433,1.579-0.772,2.385-1.137c0.849-0.245,1.68-0.562,2.528-0.734
		c0.851-0.153,1.689-0.325,2.504-0.383c0.817-0.055,1.608-0.066,2.352-0.087c0.752,0.041,1.46,0.12,2.105,0.188
		c0.322,0.035,0.63,0.068,0.923,0.101c0.283,0.064,0.551,0.126,0.804,0.183c0.504,0.112,0.942,0.23,1.303,0.323
		C58.587,212.261,58.997,212.389,58.997,212.389z"/>
</g>
<g>
	<path style="fill:#0E1824;" d="M66.123,222.03c0,0-0.332,0.272-0.928,0.721c-0.3,0.221-0.661,0.495-1.086,0.788
		c-0.211,0.149-0.435,0.308-0.671,0.476c-0.219,0.182-0.449,0.372-0.688,0.57c-0.478,0.396-0.992,0.815-1.544,1.24
		c-0.511,0.488-1.04,1.008-1.612,1.511c-0.566,0.509-1.03,1.15-1.593,1.708c-0.538,0.581-0.974,1.259-1.472,1.885
		c-0.426,0.673-0.893,1.328-1.253,2.025c-0.336,0.708-0.747,1.373-0.992,2.085c-0.305,0.689-0.516,1.385-0.739,2.046
		c-0.113,0.33-0.163,0.664-0.254,0.981c-0.088,0.317-0.172,0.627-0.217,0.93c-0.484,2.409-0.435,4.139-0.435,4.139
		s-0.178-0.393-0.361-1.128c-0.08-0.367-0.191-0.818-0.243-1.344c-0.028-0.264-0.059-0.545-0.09-0.841
		c-0.005-0.298-0.01-0.611-0.015-0.938c-0.015-0.657,0.057-1.368,0.155-2.117c0.138-0.741,0.253-1.54,0.539-2.32
		c0.223-0.801,0.559-1.592,0.936-2.38c0.381-0.784,0.87-1.528,1.331-2.283c0.563-0.68,1.072-1.41,1.676-2.029
		c0.617-0.606,1.213-1.22,1.854-1.727c0.645-0.505,1.292-0.96,1.896-1.395c0.645-0.389,1.274-0.722,1.846-1.029
		c0.286-0.152,0.56-0.298,0.82-0.436c0.271-0.106,0.527-0.207,0.768-0.301c0.48-0.191,0.908-0.34,1.259-0.466
		C65.712,222.155,66.123,222.03,66.123,222.03z"/>
</g>
<path style="fill:#4D576A;" d="M46.86,156.452c0,0-8.263-46.784-0.386-77.807c7.879-31.024,12.137-42.582,20.653-43.798
	c8.515-1.22,29.199,46.812,29.199,46.812"/>
<path style="fill:#4D576A;" d="M110.69,81.948c0,0,31.662-6.343,50.318-15.466c18.654-9.129,45.163-33.603,54.328-31.76
	c9.16,1.848,7.006,82.797-16.057,114.151"/>
<path style="fill:#3B414E;" d="M160.084,269.688c0,0-16.452,36.537-24.697,48.704c-8.244,12.167-15.535,24.941-7.026,27.985
	c8.504,3.037,63.871-39.716,67.527-63.965"/>
<path style="fill:#8895AE;" d="M178.871,115.928c0,0-6.505-14.828,2.615-34.269c9.126-19.438,23.042-24.306,27.343-23.696
	c4.29,0.61,10.725,51.813-11.654,81.872"/>
<g>
	<defs>
		<path id="_x3C_Path_x3E_" d="M57.679,223.388c11.759,22.733,67.576,14.34,88.864,4.524c21.288-9.808,75.651-47.802,48.805-91.257
			c-26.849-43.454-84.678-67.395-118.296-48.43C43.435,107.194,38.419,186.17,57.679,223.388z"/>
	</defs>
	<use xlink:href="#_x3C_Path_x3E_"  style="overflow:visible;fill:#4D576A;"/>
	<clipPath id="_x3C_Path_x3E__1_">
		<use xlink:href="#_x3C_Path_x3E_"  style="overflow:visible;"/>
	</clipPath>
	<g style="clip-path:url(#_x3C_Path_x3E__1_);">
		<defs>
			<path id="SVGID_1_" d="M34.639,184.895c-14.806-45.866,22.007-26.031,36.778,6.161C71.417,191.056,56.599,219.163,34.639,184.895
				z"/>
		</defs>
		<use xlink:href="#SVGID_1_"  style="overflow:visible;fill:#F5D193;"/>
		<clipPath id="SVGID_2_">
			<use xlink:href="#SVGID_1_"  style="overflow:visible;"/>
		</clipPath>
		<path style="clip-path:url(#SVGID_2_);fill:#201F24;" d="M54.798,177.938c2.843,8.626,7.379,14.877,10.128,13.974
			c2.754-0.91,2.682-8.635-0.16-17.259c-2.842-8.626-7.378-14.881-10.131-13.975C51.885,161.58,51.958,169.312,54.798,177.938z"/>
	</g>
	<g style="clip-path:url(#_x3C_Path_x3E__1_);">
		<defs>
			<path id="SVGID_3_" d="M159.099,151.176c-53.635-58.01-63.966-2.001-57.808,26.522
				C101.292,177.698,147.153,211.221,159.099,151.176z"/>
		</defs>
		<use xlink:href="#SVGID_3_"  style="overflow:visible;fill:#F5D193;"/>
		<clipPath id="SVGID_4_">
			<use xlink:href="#SVGID_3_"  style="overflow:visible;"/>
		</clipPath>
		<path style="clip-path:url(#SVGID_4_);fill:#201F24;" d="M131.842,111.065c4.595-1.15,11.522,10.672,15.47,26.407
			c3.946,15.739,3.418,29.429-1.175,30.583c-4.594,1.151-11.521-10.671-15.468-26.408
			C126.722,125.909,127.249,112.216,131.842,111.065z"/>
	</g>
	<g style="clip-path:url(#_x3C_Path_x3E__1_);">
		<g>
			<defs>
				<path id="SVGID_5_" d="M101.103,222.495c9.709-3.811,7.553-19.729,7.553-19.729c-4.644,5.105-13.676,4.656-17.986,0.461
					c-1.747,6.253-6.375,8.101-8.296,7.25C83.704,214.962,91.395,226.3,101.103,222.495z"/>
			</defs>
			<use xlink:href="#SVGID_5_"  style="overflow:visible;fill:#AE8BA9;"/>
			<clipPath id="SVGID_6_">
				<use xlink:href="#SVGID_5_"  style="overflow:visible;"/>
			</clipPath>
			<path style="clip-path:url(#SVGID_6_);fill:#D8D7D6;" d="M108.472,202.532c0,0,0.621,4.327-0.292,4.244
				c-0.915-0.082-2.467-3.257-2.467-3.257"/>
			<path style="clip-path:url(#SVGID_6_);fill:#D8D7D6;" d="M83.844,210.097c0,0,0.397,2.758-0.183,2.699
				c-0.585-0.053-1.572-2.073-1.572-2.073"/>
		</g>
	</g>
	<path style="clip-path:url(#_x3C_Path_x3E__1_);fill:#201F24;" d="M86.088,199.722c0.008-0.9,5.508-2.584,6.028-1.709
		c0.521,0.878-0.474,4.851-1.599,5.064C89.39,203.286,86.075,200.623,86.088,199.722z"/>
</g>
<path style="fill:#4D576A;" d="M171.723,279.912c0,0-41.519,66.395-31.778,66.996c9.742,0.608,65.099-34.844,66.316-66.996"/>
<path style="fill:#4D576A;" d="M285.927,337.938c0,0,44.658-13.182,61.021-47.603c17.642-37.106,23.119-87.593-9.123-83.334
	c-32.24,4.26,20.577,50.247-27.262,106.412"/>
<path style="fill:#4D576A;" d="M211.072,324.161c-5.521-9.008-8.792-19.744-9.722-30.805l-0.269,0.023
	c-75.852,3.041-67.04-60.834-67.04-60.834l59.798-44.392c0,0,0.998,13.977,22.93,14.589c21.938,0.605,48.838-11.557,81.515,11.561
	c32.678,23.109,41.365,107.668-26.159,129.568c0,0-34.063,7.298-55.355,7.298c-21.291,0-36.049,1.107-37.129-7.146
	c-1.084-8.254,3.56-21.988,31.599-19.587"/>
<g>
	<path style="fill:#0E1824;" d="M189.759,159.408c0,0,0.206-0.377,0.59-1.017c0.195-0.317,0.426-0.707,0.711-1.138
		c0.142-0.217,0.292-0.447,0.45-0.69c0.188-0.227,0.386-0.465,0.593-0.714c0.417-0.498,0.87-1.047,1.382-1.6
		c0.548-0.503,1.125-1.044,1.75-1.573c0.626-0.525,1.348-0.984,2.065-1.466c0.729-0.466,1.547-0.816,2.327-1.23
		c0.833-0.299,1.659-0.626,2.504-0.841c0.849-0.21,1.69-0.379,2.52-0.436c0.821-0.123,1.628-0.074,2.381-0.06
		c0.754,0.054,1.465,0.128,2.104,0.273c0.319,0.071,0.625,0.139,0.916,0.203c0.283,0.091,0.553,0.178,0.806,0.259
		c0.504,0.155,0.924,0.355,1.267,0.508c0.683,0.327,1.032,0.58,1.032,0.58s-1.684-0.396-4.142-0.407
		c-0.305-0.017-0.625,0.004-0.954,0.025c-0.329,0.026-0.666,0.007-1.013,0.052c-0.692,0.085-1.416,0.15-2.152,0.311
		c-0.747,0.097-1.481,0.364-2.243,0.551c-0.755,0.213-1.491,0.537-2.236,0.817c-0.714,0.361-1.465,0.651-2.144,1.061
		c-0.66,0.438-1.381,0.763-1.996,1.214c-0.608,0.458-1.224,0.87-1.805,1.272c-0.528,0.453-1.043,0.873-1.528,1.26
		c-0.243,0.194-0.476,0.382-0.698,0.559c-0.212,0.197-0.414,0.385-0.603,0.561c-0.373,0.357-0.714,0.655-0.992,0.903
		C190.093,159.139,189.759,159.408,189.759,159.408z"/>
</g>
<g>
	<path style="fill:#0E1824;" d="M191.341,171.291c0,0,0.382-0.196,1.06-0.508c0.34-0.152,0.751-0.345,1.229-0.54
		c0.239-0.1,0.493-0.206,0.761-0.317c0.284-0.081,0.582-0.167,0.893-0.257c0.625-0.176,1.309-0.375,2.043-0.543
		c0.737-0.106,1.519-0.229,2.333-0.314c0.813-0.082,1.669-0.055,2.533-0.048c0.865,0.026,1.738,0.197,2.616,0.295
		c0.856,0.224,1.725,0.418,2.544,0.718c0.819,0.305,1.609,0.64,2.327,1.061c0.748,0.362,1.386,0.857,2,1.295
		c0.592,0.47,1.138,0.931,1.584,1.413c0.224,0.238,0.438,0.467,0.642,0.685c0.183,0.234,0.356,0.458,0.52,0.667
		c0.328,0.413,0.562,0.815,0.76,1.135c0.38,0.655,0.525,1.062,0.525,1.062s-1.167-1.277-3.19-2.673
		c-0.243-0.187-0.519-0.351-0.803-0.518c-0.286-0.164-0.555-0.37-0.865-0.529c-0.62-0.319-1.255-0.674-1.954-0.958
		c-0.671-0.341-1.428-0.534-2.163-0.81c-0.743-0.251-1.535-0.397-2.309-0.585c-0.793-0.104-1.578-0.288-2.369-0.333
		c-0.792-0.01-1.571-0.147-2.333-0.121c-0.76,0.036-1.501,0.03-2.208,0.034c-0.692,0.078-1.354,0.135-1.973,0.182
		c-0.311,0.024-0.608,0.047-0.892,0.068c-0.286,0.044-0.558,0.086-0.813,0.125c-0.509,0.085-0.959,0.139-1.329,0.188
		C191.769,171.256,191.341,171.291,191.341,171.291z"/>
</g>
<path style="fill:#8895AE;" d="M193.84,188.154c0,0,11.712,5.237,8.803,11.431c-2.905,6.198-52.789,65.809-60.083,80.327
	c-12.364-14.069-21.155-37.574-18-45.206C127.714,227.071,187.554,187.202,193.84,188.154z"/>
</svg>
