<?xml version="1.0" encoding="utf-8"?>
<!-- Generator: Adobe Illustrator 16.0.0, SVG Export Plug-In . SVG Version: 6.00 Build 0)  -->
<!DOCTYPE svg PUBLIC "-//W3C//DTD SVG 1.1//EN" "http://www.w3.org/Graphics/SVG/1.1/DTD/svg11.dtd">
<svg version="1.1" id="Layer_1" xmlns="http://www.w3.org/2000/svg" xmlns:xlink="http://www.w3.org/1999/xlink" x="0px" y="0px"
	 width="789.079px" height="672.734px" viewBox="0 0 789.079 672.734" enable-background="new 0 0 789.079 672.734"
	 xml:space="preserve">
<g id="Layer_3_1_">
	<polygon fill="#271E30" points="30.524,206.979 55.524,206.979 55.524,257.002 105.524,257.002 105.524,206.979 130.524,206.979 
		130.524,331.979 105.524,331.979 105.524,281.979 55.524,281.979 55.524,331.979 30.524,331.979 	"/>
	<path fill="#271E30" d="M240.523,332.376l-99.999-0.122l50.151-124.938L240.523,332.376z M205.558,307.34l-14.957-37.524
		l-15.046,37.481L205.558,307.34L205.558,307.34z"/>
	<polygon fill="#271E30" points="275.523,294.846 275.523,244.846 300.523,232.346 350.523,257.346 350.523,232.346 
		300.523,207.346 250.523,232.346 250.523,307.346 300.523,332.346 350.523,307.346 350.523,282.346 300.589,307.43 	"/>
	<polygon fill="#271E30" points="397.875,269.489 460.618,206.979 460.524,206.979 427.524,206.979 385.532,248.994 
		385.523,206.979 360.523,206.979 360.523,331.979 385.523,331.979 385.523,289.979 427.524,331.979 460.524,331.979 	"/>
	<path fill="#271E30" d="M105.524,342.468l25,62.5l-25,62.5h-75v-125H105.524z M55.509,367.467l0.019,74.982l35.021,0.02l15-37.5
		l0,0l-14.954-37.502H55.509L55.509,367.467z"/>
	<polygon fill="#271E30" points="190.502,442.609 215.5,429.59 215.523,342.376 240.523,342.376 240.523,442.523 190.523,467.561 
		140.523,442.523 140.523,342.376 165.523,342.376 165.525,429.506 190.523,442.523 	"/>
	<polygon fill="#271E30" points="287.829,404.979 350.571,342.468 350.477,342.468 317.477,342.468 275.484,384.484 
		275.477,342.468 250.477,342.468 250.477,467.469 275.477,467.469 275.477,425.469 317.477,467.469 350.477,467.469 	"/>
	<polygon fill="#271E30" points="460.571,342.468 360.571,342.468 360.571,467.469 460.571,467.469 460.571,442.553 
		385.431,442.553 385.431,417.469 435.571,417.469 435.571,392.468 385.431,392.468 385.431,367.468 460.571,367.468 	"/>
	<g>
		<path fill="#271E30" d="M509.805,212.999c-1.205,0-1.807,0.301-2.408,0.602l-0.9,0.903c-0.605,0.902-0.605,2.107-0.605,2.408
			v14.75h-6.02v-14.75c0-0.602,0-2.107,0.602-3.612c0.605-1.505,1.811-3.611,3.914-5.117c1.504-0.603,3.312-1.204,5.418-1.204
			V212.999L509.805,212.999z"/>
		<path fill="#271E30" d="M617.268,415.885v6.021h-86.996v-6.021h42.746V259.957c-6.623,9.332-33.414,25.888-49.668,25.888v-7.224
			c21.674,0,49.066-27.393,49.668-28.597h6.021v165.858L617.268,415.885L617.268,415.885z"/>
		<path fill="#271E30" d="M634.125,427.625l5.719-2.105c7.525,22.273,31.605,34.615,56.893,34.615
			c30.104,0,57.795-17.76,57.795-51.174c0-35.52-24.383-55.987-65.316-55.987v-6.021c27.992,0,61.707-4.816,61.707-40.637
			c0-30.104-25.586-51.775-54.785-51.775c-22.877,0-44.852,12.342-53.275,34.015l-5.42-2.106
			c8.729-24.081,33.715-37.929,58.695-37.929c33.113,0,60.811,25.286,60.811,57.796c0,24.081-15.955,39.73-38.832,44.249
			c26.188,4.214,42.439,31.604,42.439,58.396c0,37.627-31.904,57.193-63.812,57.193c-13.244,0-26.488-3.012-37.627-9.635
			C647.971,450.201,638.639,440.568,634.125,427.625z"/>
	</g>
</g>
<g id="Layer_3_2_">
	<polygon fill="#F1F2E7" points="29.524,205.979 54.524,205.979 54.524,256.002 104.524,256.002 104.524,205.979 129.524,205.979 
		129.524,330.979 104.524,330.979 104.524,280.979 54.524,280.979 54.524,330.979 29.524,330.979 	"/>
	<path fill="#F1F2E7" d="M239.523,331.376l-99.999-0.122l50.151-124.938L239.523,331.376z M204.558,306.34l-14.957-37.524
		l-15.046,37.481L204.558,306.34L204.558,306.34z"/>
	<polygon fill="#F1F2E7" points="274.523,293.846 274.523,243.846 299.523,231.346 349.523,256.346 349.523,231.346 
		299.523,206.346 249.523,231.346 249.523,306.346 299.523,331.346 349.523,306.346 349.523,281.346 299.589,306.43 	"/>
	<polygon fill="#F1F2E7" points="396.875,268.489 459.618,205.979 459.524,205.979 426.524,205.979 384.532,247.994 
		384.523,205.979 359.523,205.979 359.523,330.979 384.523,330.979 384.523,288.979 426.524,330.979 459.524,330.979 	"/>
	<path fill="#F1F2E7" d="M104.524,341.468l25,62.5l-25,62.5h-75v-125H104.524z M54.509,366.467l0.019,74.982l35.021,0.02l15-37.5
		l0,0l-14.954-37.502H54.509L54.509,366.467z"/>
	<polygon fill="#F1F2E7" points="189.502,441.609 214.5,428.59 214.523,341.376 239.523,341.376 239.523,441.523 189.523,466.561 
		139.523,441.523 139.523,341.376 164.523,341.376 164.525,428.506 189.523,441.523 	"/>
	<polygon fill="#F1F2E7" points="286.829,403.979 349.571,341.468 349.477,341.468 316.477,341.468 274.484,383.484 
		274.477,341.468 249.477,341.468 249.477,466.469 274.477,466.469 274.477,424.469 316.477,466.469 349.477,466.469 	"/>
	<polygon fill="#F1F2E7" points="459.571,341.468 359.571,341.468 359.571,466.469 459.571,466.469 459.571,441.553 
		384.431,441.553 384.431,416.469 434.571,416.469 434.571,391.468 384.431,391.468 384.431,366.468 459.571,366.468 	"/>
	<g>
		<path fill="#F1F2E7" d="M508.805,211.999c-1.205,0-1.807,0.301-2.408,0.602l-0.9,0.903c-0.605,0.902-0.605,2.107-0.605,2.408
			v14.75h-6.02v-14.75c0-0.602,0-2.107,0.602-3.612c0.605-1.505,1.811-3.611,3.914-5.117c1.504-0.603,3.312-1.204,5.418-1.204
			V211.999L508.805,211.999z"/>
		<path fill="#F1F2E7" d="M616.268,414.885v6.021h-86.996v-6.021h42.746V258.957c-6.623,9.332-33.414,25.888-49.668,25.888v-7.224
			c21.674,0,49.066-27.393,49.668-28.597h6.021v165.858L616.268,414.885L616.268,414.885z"/>
		<path fill="#F1F2E7" d="M633.125,426.625l5.719-2.105c7.525,22.273,31.605,34.615,56.893,34.615
			c30.104,0,57.795-17.76,57.795-51.174c0-35.52-24.383-55.987-65.316-55.987v-6.021c27.992,0,61.707-4.816,61.707-40.637
			c0-30.103-25.586-51.775-54.785-51.775c-22.877,0-44.852,12.342-53.275,34.015l-5.42-2.106
			c8.729-24.081,33.715-37.929,58.695-37.929c33.113,0,60.811,25.286,60.811,57.796c0,24.083-15.955,39.732-38.832,44.25
			c26.188,4.214,42.439,31.604,42.439,58.396c0,37.627-31.904,57.193-63.812,57.193c-13.244,0-26.488-3.012-37.627-9.635
			C646.971,449.201,637.639,439.568,633.125,426.625z"/>
	</g>
</g>
<g enable-background="new    ">
	<path fill="#271E30" d="M37.428,499.211v47.251H36.02v-49.998h1.056l38.238,47.956v-47.886h1.409v49.928h-1.62L37.428,499.211z"/>
	<path fill="#271E30" d="M85.95,521.463c0-13.31,10.14-25.351,23.309-25.351c13.802,0,23.238,12.887,23.238,25.351
		c0,13.38-10.14,25.14-23.238,25.352C95.457,546.392,85.95,534.279,85.95,521.463z M109.259,545.405
		c13.027,0,21.83-12.183,21.83-23.942c0-12.464-9.436-23.942-21.83-23.942c-13.027,0-21.9,12.112-21.9,23.942
		C87.71,533.928,96.583,545.405,109.259,545.405z"/>
	<path fill="#271E30" d="M139.614,496.464l21.055,48.237l20.985-48.237h1.549l-21.76,49.998h-1.549l-21.759-49.998H139.614z"/>
	<path fill="#271E30" d="M230.67,545.054v1.408h-20.352v-1.408h10v-36.478c-1.549,2.184-7.817,6.057-11.62,6.057v-1.69
		c5.07,0,11.479-6.408,11.62-6.689h1.408v38.801H230.67z"/>
	<path fill="#271E30" d="M253.98,547.166h-1.126c-9.225,0-16.479-7.394-17.183-15.703c0-0.212-0.352-3.169-0.352-7.324
		c0-10.985,3.521-28.026,17.042-28.026h0.493c6.831,0,12.534,4.295,14.506,10.422l-1.338,0.493
		c-1.972-5.986-7.323-9.507-13.168-9.507h-0.493c-12.887,0-15.633,17.534-15.633,26.548c2.676-6.689,9.084-11.056,16.126-11.056
		c9.718,0,17.041,8.028,17.252,17.112C269.543,539.561,262.783,546.603,253.98,547.166z M268.698,530.125
		c0-8.873-7.535-15.704-15.844-15.704c-8.803,0-15.845,7.324-15.845,15.704c0,8.802,7.605,15.633,15.845,15.633
		C261.586,545.405,268.698,538.716,268.698,530.125z"/>
	<path fill="#271E30" d="M313.346,497.873h-19.154v48.589h-1.409v-48.589H273.63v-1.409h39.716V497.873z"/>
	<path fill="#271E30" d="M356.515,496.464v49.998h-1.408v-24.858H320.39v24.858h-1.408v-49.998h1.408v23.731h34.717v-23.731H356.515
		z"/>
	<path fill="#271E30" d="M389.898,528.082v-1.408h19.929v1.408H389.898z"/>
	<path fill="#271E30" d="M444.758,499.211v47.251h-1.408v-49.998h1.056l38.238,47.956v-47.886h1.408v49.928h-1.62L444.758,499.211z"
		/>
	<path fill="#271E30" d="M493.281,521.463c0-13.31,10.141-25.351,23.309-25.351c13.802,0,23.238,12.887,23.238,25.351
		c0,13.38-10.141,25.14-23.238,25.352C502.788,546.392,493.281,534.279,493.281,521.463z M516.589,545.405
		c13.027,0,21.83-12.183,21.83-23.942c0-12.464-9.437-23.942-21.83-23.942c-13.027,0-21.9,12.112-21.9,23.942
		C495.042,533.928,503.914,545.405,516.589,545.405z"/>
	<path fill="#271E30" d="M546.943,496.464l21.056,48.237l20.985-48.237h1.549l-21.76,49.998h-1.549l-21.76-49.998H546.943z"/>
	<path fill="#271E30" d="M638,545.054v1.408h-20.351v-1.408h9.999v-36.478c-1.549,2.184-7.816,6.057-11.619,6.057v-1.69
		c5.07,0,11.479-6.408,11.619-6.689h1.408v38.801H638z"/>
	<path fill="#271E30" d="M669.057,506.815h-30.069v-1.408h32.394l-25.633,49.998h-1.62L669.057,506.815z"/>
	<path fill="#271E30" d="M711.873,497.873h-19.154v48.589h-1.408v-48.589h-19.154v-1.409h39.717V497.873z"/>
	<path fill="#271E30" d="M755.042,496.464v49.998h-1.409v-24.858h-34.716v24.858h-1.409v-49.998h1.409v23.731h34.716v-23.731
		H755.042z"/>
</g>
<g enable-background="new    ">
	<path fill="#F1F2E7" d="M36.425,498.211v47.251h-1.408v-49.998h1.056l38.238,47.956v-47.886h1.409v49.928h-1.62L36.425,498.211z"/>
	<path fill="#F1F2E7" d="M84.947,520.463c0-13.31,10.14-25.351,23.309-25.351c13.802,0,23.238,12.887,23.238,25.351
		c0,13.38-10.14,25.14-23.238,25.352C94.454,545.392,84.947,533.279,84.947,520.463z M108.256,544.405
		c13.027,0,21.83-12.183,21.83-23.942c0-12.464-9.436-23.942-21.83-23.942c-13.027,0-21.9,12.112-21.9,23.942
		C86.708,532.928,95.581,544.405,108.256,544.405z"/>
	<path fill="#F1F2E7" d="M138.611,495.464l21.055,48.237l20.985-48.237h1.549l-21.76,49.998h-1.549l-21.759-49.998H138.611z"/>
	<path fill="#F1F2E7" d="M229.667,544.054v1.408h-20.352v-1.408h10v-36.478c-1.549,2.184-7.817,6.057-11.62,6.057v-1.69
		c5.07,0,11.479-6.408,11.62-6.689h1.408v38.801H229.667z"/>
	<path fill="#F1F2E7" d="M252.978,546.166h-1.126c-9.225,0-16.479-7.394-17.183-15.703c0-0.212-0.352-3.169-0.352-7.324
		c0-10.985,3.521-28.026,17.042-28.026h0.493c6.831,0,12.534,4.295,14.506,10.422l-1.338,0.493
		c-1.972-5.986-7.323-9.507-13.168-9.507h-0.493c-12.887,0-15.633,17.534-15.633,26.548c2.676-6.689,9.084-11.056,16.126-11.056
		c9.718,0,17.041,8.028,17.252,17.112C268.54,538.561,261.78,545.603,252.978,546.166z M267.695,529.125
		c0-8.873-7.535-15.704-15.844-15.704c-8.803,0-15.845,7.324-15.845,15.704c0,8.802,7.605,15.633,15.845,15.633
		C260.583,544.405,267.695,537.716,267.695,529.125z"/>
	<path fill="#F1F2E7" d="M312.343,496.873h-19.154v48.589h-1.409v-48.589h-19.154v-1.409h39.716V496.873z"/>
	<path fill="#F1F2E7" d="M355.512,495.464v49.998h-1.408v-24.858h-34.717v24.858h-1.408v-49.998h1.408v23.731h34.717v-23.731
		H355.512z"/>
	<path fill="#F1F2E7" d="M388.895,527.082v-1.408h19.929v1.408H388.895z"/>
	<path fill="#F1F2E7" d="M443.755,498.211v47.251h-1.408v-49.998h1.056l38.238,47.956v-47.886h1.408v49.928h-1.62L443.755,498.211z"
		/>
	<path fill="#F1F2E7" d="M492.278,520.463c0-13.31,10.141-25.351,23.309-25.351c13.802,0,23.238,12.887,23.238,25.351
		c0,13.38-10.141,25.14-23.238,25.352C501.785,545.392,492.278,533.279,492.278,520.463z M515.586,544.405
		c13.027,0,21.83-12.183,21.83-23.942c0-12.464-9.437-23.942-21.83-23.942c-13.027,0-21.9,12.112-21.9,23.942
		C494.039,532.928,502.911,544.405,515.586,544.405z"/>
	<path fill="#F1F2E7" d="M545.94,495.464l21.056,48.237l20.985-48.237h1.549l-21.76,49.998h-1.549l-21.76-49.998H545.94z"/>
	<path fill="#F1F2E7" d="M636.997,544.054v1.408h-20.351v-1.408h9.999v-36.478c-1.549,2.184-7.816,6.057-11.619,6.057v-1.69
		c5.07,0,11.479-6.408,11.619-6.689h1.408v38.801H636.997z"/>
	<path fill="#F1F2E7" d="M668.054,505.815h-30.069v-1.408h32.394l-25.633,49.998h-1.62L668.054,505.815z"/>
	<path fill="#F1F2E7" d="M710.87,496.873h-19.154v48.589h-1.408v-48.589h-19.154v-1.409h39.717V496.873z"/>
	<path fill="#F1F2E7" d="M754.04,495.464v49.998h-1.409v-24.858h-34.716v24.858h-1.409v-49.998h1.409v23.731h34.716v-23.731H754.04z
		"/>
</g>
</svg>
