<?xml version="1.0" encoding="utf-8"?>
<!-- Generator: Adobe Illustrator 16.0.0, SVG Export Plug-In . SVG Version: 6.00 Build 0)  -->
<!DOCTYPE svg PUBLIC "-//W3C//DTD SVG 1.1//EN" "http://www.w3.org/Graphics/SVG/1.1/DTD/svg11.dtd">
<svg version="1.1" id="Layer_1" xmlns="http://www.w3.org/2000/svg" xmlns:xlink="http://www.w3.org/1999/xlink" x="0px" y="0px"
	 width="841.783px" height="1052.415px" viewBox="0 0 841.783 1052.415" enable-background="new 0 0 841.783 1052.415"
	 xml:space="preserve">
<g id="Layer_1_1_">
</g>
<ellipse fill="#201F23" cx="423.157" cy="1007.063" rx="415.528" ry="43.062"/>
<g id="Layer_2_1_">
	<path fill="#4D5669" d="M280.504,123.277C303.952,103.412,430.325-2.748,441.99,13.393s4.59,193.548-61.865,269.13"/>
	<path fill="#8996AF" d="M321.57,182.878c16.412-36.695,67.286-93.605,96.343-104.936c29.051-11.344-26.493,174.238-40.594,192.845"
		/>
	<path fill="#4D5669" d="M204.67,113.653C173.727,59.65,131.729-19.594,119.676,5.931C107.623,31.458,87.25,198.361,90.633,243.713"
		/>
	<path fill="#8996AF" d="M175.424,175.99c0.576-33.982-17.98-95.775-36.159-114.843c-18.169-19.075-42.092,142.982-37.962,162.279"
		/>
	<g>
		<g>
			<path id="SVGID_1_" fill="#4C5669" d="M229.11,108.255c73.879,0,147.76,94.303,151.648,191.996
				c3.889,97.691-122.486,109.885-167.202,106.218c-44.716-3.666-145.646-42.183-143.872-91.129
				C72.589,235.18,155.23,108.255,229.11,108.255z"/>
		</g>
		<g>
			<defs>
				<path id="SVGID_2_" d="M229.11,108.255c73.879,0,147.76,94.303,151.648,191.996c3.889,97.691-122.486,109.885-167.202,106.218
					c-44.716-3.666-145.646-42.183-143.872-91.129C72.589,235.18,155.23,108.255,229.11,108.255z"/>
			</defs>
			<clipPath id="SVGID_4_">
				<use xlink:href="#SVGID_2_"  overflow="visible"/>
			</clipPath>
			<path clip-path="url(#SVGID_4_)" fill="#201F23" d="M183.545,281.532c-24.429,25.049-84.474,39.632-106.326-37.817
				C62.07,190.019,119.03,117.803,119.03,117.803l134.876-41.546l140.528,157.593c0,0,12.335,18.258-12.327,47.684
				C357.447,310.957,267.031,370.746,183.545,281.532z"/>
		</g>
	</g>
	<g>
		<g>
			<path id="SVGID_3_" fill="#C5962C" d="M311.766,444.603c39.88,75.761,71.93,120.097,217.759,134.68
				c145.829,14.584,288.221,134.162,307.179,217.286c0,0-211.527-21.701-311.123,160.5L234.969,444.603"/>
		</g>
		<g>
			<defs>
				<path id="SVGID_6_" d="M311.766,444.603c39.88,75.761,71.93,120.097,217.759,134.68
					c145.829,14.584,288.221,134.162,307.179,217.286c0,0-211.527-21.701-311.123,160.5L234.969,444.603"/>
			</defs>
			<clipPath id="SVGID_8_">
				<use xlink:href="#SVGID_6_"  overflow="visible"/>
			</clipPath>
			<path clip-path="url(#SVGID_8_)" fill="#201F23" d="M288.484,455.626c35.066,122.132,80.64,138.24,248.343,148.448
				c84.81,5.162,244.983,33.54,301.857,192.494l26.249-156.037L311.766,444.603"/>
		</g>
	</g>
	<g>
		<g>
			<path id="SVGID_5_" fill="#4D5669" d="M77.219,704.154c16.868,66.102,43.281,241.743,55.022,251.507
				c26.908,22.376,61.521-228.115,46.985-271.808"/>
		</g>
		<g>
			<defs>
				<path id="SVGID_10_" d="M77.219,704.154c16.868,66.102,43.281,241.743,55.022,251.507
					c26.908,22.376,61.521-228.115,46.985-271.808"/>
			</defs>
			<clipPath id="SVGID_12_">
				<use xlink:href="#SVGID_10_"  overflow="visible"/>
			</clipPath>
			<path clip-path="url(#SVGID_12_)" fill="#FFCD33" d="M97.443,802.24c18.929,3.984,45.124,0.929,63.134-6.707
				c18.011-7.635-18.123,161.538-18.123,161.538H119.03L97.443,802.24z"/>
		</g>
	</g>
	<path fill="#4D5669" d="M279.463,954.394c-154.789-131.797-2.693-269.683,62.438-271.627L492.672,965.42l-132.296,27.891
		L279.463,954.394z"/>
	<g>
		<g>
			<path id="SVGID_7_" fill="#4D5669" d="M155.256,704.154c-4.859,68.047-32.36,237.271-24.303,250.24
				c18.47,29.726,130.383-197.03,130.383-243.078"/>
		</g>
		<g>
			<defs>
				<path id="SVGID_14_" d="M155.256,704.154c-4.859,68.047-32.36,237.271-24.303,250.24
					c18.47,29.726,130.383-197.03,130.383-243.078"/>
			</defs>
			<clipPath id="SVGID_15_">
				<use xlink:href="#SVGID_14_"  overflow="visible"/>
			</clipPath>
			<path clip-path="url(#SVGID_15_)" fill="#FFCD33" d="M243.719,804.281c-48.605,5.833-96.261,3.888-114.234-13.609
				c-17.973-17.498-24.509,180.353,0,185.969C153.994,982.255,243.719,804.281,243.719,804.281z"/>
		</g>
	</g>
	<path fill="#4D5669" d="M477.994,953.984c-94.293,58.326-227.471-30.134-354.817-19.442
		c-127.346,10.694-159.424,153.593-67.075,94.296c92.35-59.299,154.564-30.136,235.25-12.638
		c80.685,17.498,288.245,30.211,309.63-120.465c21.387-150.676-45.207-223.122-208.537-284.368
		c-99.338-37.254-113.732-163.848-100.98-211.471c12.75-47.623-97.531,2.839-97.531,2.839
		C131.926,444.603,87.163,518.482,72.604,604.027c-14.559,85.545,3.92,196.439,165.167,135.448
		c49.692-18.794,80.068,19.117,85.78,25.923"/>
	<path fill="#201F23" d="M317.597,407.024c-11.755-11.16-158.452-20.747-186.644-6.166c-28.192,14.581-49.202,82.188,7.18,193.009
		c62.216-104.016,150.384-137.887,173.632-149.265L317.597,407.024z"/>
	<g>
		<g>
			<path id="SVGID_9_" fill="#F4D193" d="M234.969,281.532c9.721-43.988,60.271-115.923,98.183,0
				C277.741,358.085,234.969,281.532,234.969,281.532z"/>
		</g>
		<g>
			<defs>
				<path id="SVGID_16_" d="M234.969,281.532c9.721-43.988,60.271-115.923,98.183,0
					C277.741,358.085,234.969,281.532,234.969,281.532z"/>
			</defs>
			<clipPath id="SVGID_17_">
				<use xlink:href="#SVGID_16_"  overflow="visible"/>
			</clipPath>
			<path clip-path="url(#SVGID_17_)" fill="#201F23" d="M288.552,249.333c0,23.79,5.634,43.072,12.579,43.072
				c6.945,0,12.579-19.282,12.579-43.072c0-23.788-5.634-43.077-12.579-43.077C294.187,206.256,288.552,225.544,288.552,249.333z"/>
		</g>
	</g>
	<g>
		<g>
			<path id="SVGID_11_" fill="#F4D193" d="M160.117,281.532c0-54.681-38.884-106.202-47.633-32.324
				C121.233,311.424,160.117,281.532,160.117,281.532z"/>
		</g>
		<g>
			<defs>
				<path id="SVGID_18_" d="M160.117,281.532c0-54.681-38.884-106.202-47.633-32.324
					C121.233,311.424,160.117,281.532,160.117,281.532z"/>
			</defs>
			<clipPath id="SVGID_19_">
				<use xlink:href="#SVGID_18_"  overflow="visible"/>
			</clipPath>
			<ellipse clip-path="url(#SVGID_19_)" fill="#201F23" cx="142.621" cy="239.312" rx="8.1" ry="25.382"/>
		</g>
	</g>
	<path fill="#FFCD33" d="M163.991,426.001l-7.407,6.672l-4.505-7.567l-4.309,5.517c0,0-9.768,0.995-14.658-12.623
		c0,0-14.428,12.704-14.076,38.675c0,0,11.191-13.62,15.589,5.453c0,0,8.375-12.317,24.354,15.273c0,0,5.204-36.987,37.159-13.972
		c0,0,12.352-27.625,29.243-3.275c0,0,3.2-27.416-21.433-44.164C203.951,415.992,184.28,453.435,163.991,426.001z"/>
	<path fill="#201F23" d="M183.69,312.635c2.478,0.307,7.189-7.285,6.693-9.452c-0.496-2.17-13.041-2.323-13.659-0.466
		C176.101,304.577,181.215,312.317,183.69,312.635z"/>
	<g>
		<g>
			<path id="SVGID_13_" fill="#AE8AA8" d="M160.593,321.776c3.373,3.104,14.22,2.547,22.22-9.133
				c5.947,11.681,24.281,18.951,37.45,11.681c0,0-6.731,34.381-29.448,35.414C168.097,360.771,160.188,331.963,160.593,321.776z"/>
		</g>
		<g>
			<defs>
				<path id="SVGID_20_" d="M160.593,321.776c3.373,3.104,14.22,2.547,22.22-9.133c5.947,11.681,24.281,18.951,37.45,11.681
					c0,0-6.731,34.381-29.448,35.414C168.097,360.771,160.188,331.963,160.593,321.776z"/>
			</defs>
			<clipPath id="SVGID_21_">
				<use xlink:href="#SVGID_20_"  overflow="visible"/>
			</clipPath>
			<path clip-path="url(#SVGID_21_)" fill="#D6D6D5" d="M159.831,322.083c0,0,0.621,4.868,1.787,5.388
				c1.164,0.519,2.281-5.45,2.281-5.45"/>
		</g>
		<g>
			<defs>
				<path id="SVGID_22_" d="M160.593,321.776c3.373,3.104,14.22,2.547,22.22-9.133c5.947,11.681,24.281,18.951,37.45,11.681
					c0,0-6.731,34.381-29.448,35.414C168.097,360.771,160.188,331.963,160.593,321.776z"/>
			</defs>
			<clipPath id="SVGID_23_">
				<use xlink:href="#SVGID_22_"  overflow="visible"/>
			</clipPath>
			<path clip-path="url(#SVGID_23_)" fill="#D6D6D5" d="M213.659,323.804c0,0,0.974,7.642,2.805,8.455
				c1.826,0.815,3.578-8.551,3.578-8.551"/>
		</g>
	</g>
	<polyline fill="#FFCD33" points="217.762,829.958 253.438,838.04 202.074,863.247 	"/>
	<polyline fill="#FFCD33" points="202.607,862.636 225.52,870.384 183.253,893.936 	"/>
	<polyline fill="#FFCD33" points="185.176,889.973 199.359,896.366 165.078,920.801 	"/>
</g>
</svg>
