<?xml version="1.0" encoding="utf-8"?>
<!-- Generator: Adobe Illustrator 16.0.0, SVG Export Plug-In . SVG Version: 6.00 Build 0)  -->
<!DOCTYPE svg PUBLIC "-//W3C//DTD SVG 1.1//EN" "http://www.w3.org/Graphics/SVG/1.1/DTD/svg11.dtd">
<svg version="1.1" id="Layer_1" xmlns="http://www.w3.org/2000/svg" xmlns:xlink="http://www.w3.org/1999/xlink" x="0px" y="0px"
	 width="852.404px" height="864.867px" viewBox="0 0 852.404 864.867" enable-background="new 0 0 852.404 864.867"
	 xml:space="preserve">
<path fill="#3A404D" d="M809.161,290.582C776.962,154.678,671.967,90.182,661.468,121.68s0,88.495,0,88.495"/>
<path fill="#4D576A" d="M628.47,225.674c-77.996-52.497-185.991-107.993-178.491-41.997s38.628,133.235,89.061,193.361"/>
<path fill="#8B97B0" d="M554.258,365.194c-40.421-3.994-92.105-164.213-66.366-159.208c25.74,4.992,77.176,45.613,96.919,74.487"/>
<g>
	<g>
		<path id="SVGID_10_" fill="#4D576A" d="M852.381,410.213c1.791,49.427-100.129,88.321-145.283,92.023
			c-45.155,3.702-172.77-8.611-168.843-107.261c3.926-98.65,78.532-193.879,153.136-193.879
			C765.995,201.097,849.447,329.267,852.381,410.213z"/>
	</g>
	<g>
		<defs>
			<path id="SVGID_1_" d="M852.381,410.213c1.791,49.427-100.129,88.321-145.283,92.023c-45.155,3.702-172.77-8.611-168.843-107.261
				c3.926-98.65,78.532-193.879,153.136-193.879C765.995,201.097,849.447,329.267,852.381,410.213z"/>
		</defs>
		<clipPath id="SVGID_3_">
			<use xlink:href="#SVGID_1_"  overflow="visible"/>
		</clipPath>
	</g>
</g>
<g>
	<g>
		<path id="SVGID_8_" fill="#F5D294" d="M586.328,376.074c38.284-117.061,89.33-44.419,99.146,0
			C685.475,376.074,642.282,453.378,586.328,376.074z"/>
	</g>
	<g>
		<defs>
			<path id="SVGID_5_" d="M586.328,376.074c38.284-117.061,89.33-44.419,99.146,0C685.475,376.074,642.282,453.378,586.328,376.074z
				"/>
		</defs>
		<clipPath id="SVGID_6_">
			<use xlink:href="#SVGID_5_"  overflow="visible"/>
		</clipPath>
		<path clip-path="url(#SVGID_6_)" fill="#201F24" d="M651.663,356.06c-7.013,0-12.702,19.479-12.702,43.5
			c0,24.022,5.689,43.494,12.702,43.494s12.702-19.472,12.702-43.494S658.676,356.06,651.663,356.06z"/>
	</g>
</g>
<g>
	<g>
		<path id="SVGID_2_" fill="#F5D294" d="M809.161,343.433c-8.835-74.604-48.101-22.576-48.101,32.641
			C761.061,376.074,800.326,406.259,809.161,343.433z"/>
	</g>
	<g>
		<defs>
			<path id="SVGID_7_" d="M809.161,343.433c-8.835-74.604-48.101-22.576-48.101,32.641
				C761.061,376.074,800.326,406.259,809.161,343.433z"/>
		</defs>
		<clipPath id="SVGID_9_">
			<use xlink:href="#SVGID_7_"  overflow="visible"/>
		</clipPath>
		<ellipse clip-path="url(#SVGID_9_)" fill="#201F24" cx="790.729" cy="368.439" rx="8.18" ry="25.632"/>
	</g>
</g>
<path fill="#3A404D" d="M664.825,651.559c98.471-27.897,183.967,32.099,185.467-12.898s-155.991-86.995-193.49-85.495"/>
<path fill="#3A404D" d="M210.873,620.224c0.747,45.568-51.544,95.617-76.196,82.172c-24.65-13.447,29.135-60.51,27.641-118.775"/>
<path fill="#4D576A" d="M416.03,569.175c14,107-81,152-176,139.978s-115-112.978-115-112.978c1,61-69,128-102,110s39-81,37-159
	s32-83,61-49c-2-58,91-142,191-130s233,146,290.895,118.253l130.057,11.303c0,0,13.049,157.444-112.951,198.444s-120-44-232-84"/>
<g>
	<defs>
		<path id="SVGID_11_" d="M595.147,482.967c0,0,139.283-3.408,150.32,19.831c15.593,32.833,8.084,142.719-14.486,208.25
			L583.811,490.186L595.147,482.967z"/>
	</defs>
	<use xlink:href="#SVGID_11_"  overflow="visible" fill="#D7D7D6"/>
	<clipPath id="SVGID_12_">
		<use xlink:href="#SVGID_11_"  overflow="visible"/>
	</clipPath>
	<g clip-path="url(#SVGID_12_)">
		<path fill="#9D1C28" d="M678.696,514.436l74.8,11.501l23.339,29.911c0,0-14.683,54.524-39.784,68.463
			c-20.388-20.771-59.525-61.252-79.59-76.331L678.696,514.436z"/>
		<g>
			<defs>
				<path id="SVGID_13_" d="M684.382,520.247l64.668,9.987l20.174,25.988c0,0-10,47.394-31.698,59.498
					c-17.625-18.044-54.158-53.234-71.508-66.334L684.382,520.247z"/>
			</defs>
			<use xlink:href="#SVGID_13_"  overflow="visible" fill="#F5D294"/>
			<clipPath id="SVGID_14_">
				<use xlink:href="#SVGID_13_"  overflow="visible"/>
			</clipPath>
			<path clip-path="url(#SVGID_14_)" fill="#9D1C28" d="M764.412,554.013c-10.001,2.055-11.584,4.973-17.544-0.166
				c-8.703-7.505-15.335-19.715-32.9-17.857c-17.563,1.861-7.556,14.101-0.159,16.871c7.398,2.77,51.211,1.831,58.148,20.791
				c6.94,18.963-5.617,34.938-16.722,35.212c-9.57,0.235-21.328-4.288-31.08-7.992c-10.032-3.811-22.185-8.98-7.625-14.243
				c14.559-5.263-2.432,12.386,36.057,5.064c6.76-1.287,8.912-14.763-53.139-18.723c-28.328-1.615-39.854-50.16,12.033-49.771
				c29.601,0.224,30.539,15.691,40.912,17.202C762.771,541.91,771.243,552.607,764.412,554.013z"/>
		</g>
	</g>
</g>
<path fill="#4E576A" d="M651.494,682.052c98.471-27.897,183.967,32.099,185.467-12.898s-155.991-86.995-193.49-85.495"/>
<path fill="#4E576A" d="M337.663,372.423c-149.971-25.019-205.147-63.791-211.159-132.96
	c-6.919-79.6,236.354-166.458,79.185-221.221C48.52-36.52,25.124,48.664,128.298,57.061c58.199,4.737,96.587,15.432,27.001,67.188
	c-52.737,39.225-172.765,196.76,89.983,269.946"/>
<path fill="#9D1C28" d="M583.811,490.186c-75.336-68.521-140.683-250.765-452.242-224.89c0,0,195.419,0.812-131.568,287.83
	c0,0,185.987-105.963,361.479-41.466s221.702,5.596,237.526,1.328"/>
<path fill="#201F24" d="M744.812,390.187c-0.624-1.875-13.292-1.721-13.793,0.471c-0.501,2.188,4.257,9.855,6.759,9.545
	C740.277,399.882,745.441,392.066,744.812,390.187z"/>
<g>
	<g>
		<path id="SVGID_4_" fill="#AF8BAA" d="M730.584,447.768c-22.94-1.043-29.737-35.762-29.737-35.762
			c13.298,7.342,31.812,0,37.817-11.795c8.078,11.795,19.031,12.356,22.438,9.223C761.511,419.721,753.523,448.811,730.584,447.768z
			"/>
	</g>
	<g>
		<defs>
			<path id="SVGID_15_" d="M730.584,447.768c-22.94-1.043-29.737-35.762-29.737-35.762c13.298,7.342,31.812,0,37.817-11.795
				c8.078,11.795,19.031,12.356,22.438,9.223C761.511,419.721,753.523,448.811,730.584,447.768z"/>
		</defs>
		<clipPath id="SVGID_16_">
			<use xlink:href="#SVGID_15_"  overflow="visible"/>
		</clipPath>
		<path clip-path="url(#SVGID_16_)" fill="#D7D7D6" d="M757.764,409.681c0,0,1.128,6.027,2.303,5.503
			c1.178-0.524,1.805-5.44,1.805-5.44"/>
	</g>
	<g>
		<defs>
			<path id="SVGID_17_" d="M730.584,447.768c-22.94-1.043-29.737-35.762-29.737-35.762c13.298,7.342,31.812,0,37.817-11.795
				c8.078,11.795,19.031,12.356,22.438,9.223C761.511,419.721,753.523,448.811,730.584,447.768z"/>
		</defs>
		<clipPath id="SVGID_18_">
			<use xlink:href="#SVGID_17_"  overflow="visible"/>
		</clipPath>
		<path clip-path="url(#SVGID_18_)" fill="#D7D7D6" d="M701.068,411.385c0,0,1.77,9.458,3.613,8.635
			c1.85-0.821,2.833-8.538,2.833-8.538"/>
	</g>
</g>
<ellipse fill="#201F24" cx="425.202" cy="821.382" rx="419.604" ry="43.484"/>
</svg>
