<?xml version="1.0" encoding="utf-8"?>
<!-- Generator: Adobe Illustrator 16.0.0, SVG Export Plug-In . SVG Version: 6.00 Build 0)  -->
<!DOCTYPE svg PUBLIC "-//W3C//DTD SVG 1.1//EN" "http://www.w3.org/Graphics/SVG/1.1/DTD/svg11.dtd">
<svg version="1.1" id="Layer_1" xmlns="http://www.w3.org/2000/svg" xmlns:xlink="http://www.w3.org/1999/xlink" x="0px" y="0px"
	 width="430.046px" height="260.49px" viewBox="0 0 430.046 260.49" enable-background="new 0 0 430.046 260.49"
	 xml:space="preserve">
<g id="Layer_1_1_">
	<polygon fill="#FFFFFF" points="0,0 25,0 25,50.023 75,50.023 75,0 100,0 100,125 75,125 75,75 25,75 25,125 0,125 	"/>
	<path fill="#FFFFFF" d="M209.999,125.397L110,125.275L160.151,0.337L209.999,125.397z M175.033,100.361l-14.957-37.524
		l-15.046,37.481L175.033,100.361L175.033,100.361z"/>
	<polygon fill="#FFFFFF" points="245,87.867 245,37.867 270,25.367 320,50.367 320,25.367 270,0.367 220,25.367 220,100.367 
		270,125.367 320,100.367 320,75.367 270.064,100.451 	"/>
	<polygon fill="#FFFFFF" points="367.351,62.51 430.093,0 430,0 397,0 355.007,42.016 355,0 330,0 330,125 355,125 355,83 397,125 
		430,125 	"/>
	<path fill="#FFFFFF" d="M75,135.49l25,62.5l-25,62.5H0v-125H75z M24.984,160.488l0.019,74.98l35.021,0.021l15-37.5l0,0
		L60.07,160.488H24.984z"/>
	<polygon fill="#FFFFFF" points="159.979,235.63 184.977,222.61 184.999,135.397 209.999,135.397 209.999,235.544 159.999,260.582 
		109.999,235.544 109.999,135.397 134.999,135.397 135.001,222.526 159.999,235.544 	"/>
	<polygon fill="#FFFFFF" points="257.305,198 320.046,135.49 319.953,135.49 286.953,135.49 244.96,177.505 244.953,135.49 
		219.953,135.49 219.953,260.49 244.953,260.49 244.953,218.49 286.953,260.49 319.953,260.49 	"/>
	<polygon fill="#FFFFFF" points="430.046,135.49 330.046,135.49 330.046,260.49 430.046,260.49 430.046,235.574 354.906,235.574 
		354.906,210.49 405.046,210.49 405.046,185.49 354.906,185.49 354.906,160.49 430.046,160.49 	"/>
</g>
<g id="Layer_2">
</g>
</svg>
