<?xml version="1.0" encoding="utf-8"?>
<!-- Generator: Adobe Illustrator 16.0.0, SVG Export Plug-In . SVG Version: 6.00 Build 0)  -->
<!DOCTYPE svg PUBLIC "-//W3C//DTD SVG 1.1//EN" "http://www.w3.org/Graphics/SVG/1.1/DTD/svg11.dtd">
<svg version="1.1" id="Layer_1" xmlns="http://www.w3.org/2000/svg" xmlns:xlink="http://www.w3.org/1999/xlink" x="0px" y="0px"
	 width="861.261px" height="948.674px" viewBox="0 0 861.261 948.674" enable-background="new 0 0 861.261 948.674"
	 xml:space="preserve">
<ellipse fill="#201F24" cx="424.459" cy="905.19" rx="419.603" ry="43.484"/>
<g>
	<g>
		<path id="SVGID_2_" fill="#4E576A" d="M509.595,653.392c-18.514,82.62-53.691,231.391-56.834,251.387
			c-3.141,19.997,71.611,15.196,130.033-217.558"/>
	</g>
	<g>
		<defs>
			<path id="SVGID_3_" d="M509.595,653.392c-18.514,82.62-53.691,231.391-56.834,251.387
				c-3.141,19.997,71.611,15.196,130.033-217.558"/>
		</defs>
		<clipPath id="SVGID_5_">
			<use xlink:href="#SVGID_3_"  overflow="visible"/>
		</clipPath>
		<path clip-path="url(#SVGID_5_)" fill="#74899A" d="M481.173,777.55c16.746,9.771,52.922,20.938,68.027,16.954
			s-42.895,103.568-59.484,101.382c-16.592-2.186-27.576-5.964-32.082-14.872C453.128,872.104,481.173,777.55,481.173,777.55z"/>
	</g>
</g>
<path fill="#4E576A" d="M815.472,249.422c68-78.964,47.178-240.233,20.783-237.713c0,0-89.646,91.354-132.807,85.408"/>
<path fill="#4E576A" d="M498.484,249.422c-68-78.964-47.178-240.233-20.781-237.713c0,0,89.645,90.013,132.807,84.066"/>
<path fill="#8B97B0" d="M516.763,237.176c-38.854-11.834-58.158-179.072-33.898-169.123c24.266,9.938,66.748,59.846,80.453,92.026"
	/>
<path fill="#8B97B0" d="M752.568,160.08c13.707-32.181,56.188-82.09,80.453-92.026c24.262-9.949,4.955,157.289-33.898,169.123"/>
<path fill="#4E576A" d="M657.166,381c-95.172,0-153.287-16.189-163.004-87.184c-9.854-71.986,71.65-207.96,163.004-207.96
	s172.857,135.974,163.006,207.96C810.318,365.802,750.312,381,657.166,381z"/>
<g>
	<g>
		<path id="SVGID_4_" fill="#39404C" d="M722.773,612.63c24.732,169.481,67.168,267.724,67.967,287.59
			c0.801,19.868-87.982,31.866-133.572-224.885"/>
	</g>
	<g>
		<defs>
			<path id="SVGID_7_" d="M722.773,612.63c24.732,169.481,67.168,267.724,67.967,287.59c0.801,19.868-87.982,31.866-133.572-224.885
				"/>
		</defs>
		<clipPath id="SVGID_9_">
			<use xlink:href="#SVGID_7_"  overflow="visible"/>
		</clipPath>
		<path clip-path="url(#SVGID_9_)" fill="#4F5E66" d="M759.419,777.852c-18.23,9.87-57.623,21.15-74.068,17.127
			c-16.447-4.024,46.701,104.618,64.77,102.41c18.062-2.209,30.025-6.024,34.932-15.023S759.419,777.852,759.419,777.852z"/>
	</g>
</g>
<path fill="#39404C" d="M294.225,758.267c-1.863,56.241-5.862,135.428,32.53,142.625c38.392,7.198,57.793,14.397,38.895-59.188
	c-18.899-73.585-17.467-73.483-11.384-107.527"/>
<g>
	<g>
		<path id="SVGID_6_" fill="#4E576A" d="M344.35,630.549c154.368-34.394,192.3,149.571,335.136,58.389
			c114.098-72.836,14.396-243.952,7.998-307.938c0,0-120.797-8.749-119.664-8.463c1.131,0.285-94.693,53.251-161.88,41.254
			c-67.188-11.998-132.774-75.186-226.356-20.796C86,447.384,105.196,563.362,108.396,600.955c0,0,28.794,73.683-10.398,113.626
			c-39.193,39.944-75.985,47.145-7.199,122.329c68.786,75.184,97.581,75.982,143.973,75.185s74.387-55.987,5.599-66.387
			c-68.787-10.398-92.782-60.789-90.383-82.385c2.399-21.597,291.943,77.584,260.75-206.359"/>
	</g>
</g>
<g>
	<g>
		<path id="SVGID_8_" fill="#F5D294" d="M700.281,285.017c-0.602-41.991,48.957-147.571,84.467-38.992
			C772.265,336.608,700.281,285.017,700.281,285.017z"/>
	</g>
	<g>
		<defs>
			<path id="SVGID_11_" d="M700.281,285.017c-0.602-41.991,48.957-147.571,84.467-38.992
				C772.265,336.608,700.281,285.017,700.281,285.017z"/>
		</defs>
		<clipPath id="SVGID_13_">
			<use xlink:href="#SVGID_11_"  overflow="visible"/>
		</clipPath>
		<path clip-path="url(#SVGID_13_)" fill="#201F24" d="M732.146,226.628c0,19.399,4.596,35.122,10.258,35.122
			s10.256-15.723,10.256-35.122c0-19.397-4.594-35.127-10.256-35.127S732.146,207.229,732.146,226.628z"/>
	</g>
</g>
<g>
	<g>
		<path id="SVGID_10_" fill="#F5D294" d="M622.173,281.381c0.602-41.991-48.959-147.571-84.467-38.992
			C550.187,332.972,622.173,281.381,622.173,281.381z"/>
	</g>
	<g>
		<defs>
			<path id="SVGID_14_" d="M622.173,281.381c0.602-41.991-48.959-147.571-84.467-38.992
				C550.187,332.972,622.173,281.381,622.173,281.381z"/>
		</defs>
		<clipPath id="SVGID_15_">
			<use xlink:href="#SVGID_14_"  overflow="visible"/>
		</clipPath>
		<path clip-path="url(#SVGID_15_)" fill="#201F24" d="M579.05,187.866c-5.664,0-10.258,15.729-10.258,35.127
			s4.594,35.123,10.258,35.123c5.662,0,10.256-15.725,10.256-35.123S584.712,187.866,579.05,187.866z"/>
	</g>
</g>
<g>
	<g>
		<path id="SVGID_12_" fill="#9D1C27" d="M554.974,368.65c22.33-15.245,166.984-13.362,178.939,6.691
			c19.756,47.648-76.746,166.426-76.746,166.426L552.019,381L554.974,368.65z"/>
	</g>
	<g>
		<defs>
			<path id="SVGID_16_" d="M554.974,368.65c22.33-15.245,166.984-13.362,178.939,6.691c19.756,47.648-76.746,166.426-76.746,166.426
				L552.019,381L554.974,368.65z"/>
		</defs>
		<clipPath id="SVGID_17_">
			<use xlink:href="#SVGID_16_"  overflow="visible"/>
		</clipPath>
		<path clip-path="url(#SVGID_17_)" fill="#FFCE35" d="M549.201,369c36.211-7.988,78.336,3.201,94.311,27.997l19.896-21.961
			l17.676,25.39c0,0,17.428-24.227,60.578-19.426l3.908,19.335c0,0-26.016-25.081-66.285,23.705l-17.098-23.846l-18.598,23.096
			c0,0-17.721-47.371-91.572-42.29"/>
	</g>
	<g>
		<defs>
			<path id="SVGID_18_" d="M554.974,368.65c22.33-15.245,166.984-13.362,178.939,6.691c19.756,47.648-76.746,166.426-76.746,166.426
				L552.019,381L554.974,368.65z"/>
		</defs>
		<clipPath id="SVGID_19_">
			<use xlink:href="#SVGID_18_"  overflow="visible"/>
		</clipPath>
		<path clip-path="url(#SVGID_19_)" fill="#FFCE35" d="M549.708,395.996c72.471-0.3,91.479,51.669,91.479,51.669l19.799-23.096
			l17.096,21.444c40.271-48.785,64.43-32.922,64.43-32.922l3.059-12.376c0,0-26.014-25.081-66.285,23.705l-17.096-23.846
			l-18.598,23.096c0,0-17.721-47.371-91.572-42.29"/>
	</g>
	<g>
		<defs>
			<path id="SVGID_20_" d="M554.974,368.65c22.33-15.245,166.984-13.362,178.939,6.691c19.756,47.648-76.746,166.426-76.746,166.426
				L552.019,381L554.974,368.65z"/>
		</defs>
		<clipPath id="SVGID_21_">
			<use xlink:href="#SVGID_20_"  overflow="visible"/>
		</clipPath>
		<path clip-path="url(#SVGID_21_)" fill="none" stroke="#791C28" stroke-miterlimit="10" d="M745.57,400.716
			c0,0-26.016-25.081-66.285,23.705l-17.098-23.846l-18.598,23.096c0,0-17.721-47.371-91.572-42.29"/>
	</g>
</g>
<path fill="#201F24" d="M660.523,297.34c1.506,0.187,4.361-4.419,4.062-5.733c-0.303-1.317-7.912-1.411-8.287-0.284
	C655.919,292.453,659.021,297.149,660.523,297.34z"/>
<g>
	<path fill="#FFCE35" d="M658.07,134.1l-95.254-0.206l0.062-29.256c25.658-1.155,65.631-10.603,95.324-32.712l-0.127-0.004
		c29.602,22.244,69.533,31.859,95.18,33.127l-0.061,29.256l-95.254-0.206L658.07,134.1z"/>
	<polygon fill="#9D1C27" points="658.228,88.317 663.455,99.076 675.281,100.872 666.664,109.167 668.611,120.969 658.058,115.334 
		647.433,120.834 649.533,109.058 641.017,100.655 652.867,99.01 	"/>
</g>
<path fill="#201F24" d="M660.953,298.539c2.502,0.311,7.26-7.356,6.76-9.545c-0.502-2.191-13.17-2.346-13.793-0.471
	C653.289,290.402,658.453,298.219,660.953,298.539z"/>
<g>
	<g>
		<path id="SVGID_1_" fill="#AF8BAA" d="M660.808,298.548c-6.006,11.795-24.52,19.137-37.816,11.795c0,0,3.205,35.979,37.736,35.763
			c34.531-0.217,37.156-35.763,37.156-35.763c-13.299,7.342-31.812,0-37.816-11.795"/>
	</g>
	<g>
		<defs>
			<path id="SVGID_22_" d="M660.808,298.548c-6.006,11.795-24.52,19.137-37.816,11.795c0,0,3.205,35.979,37.736,35.763
				c34.531-0.217,37.156-35.763,37.156-35.763c-13.299,7.342-31.812,0-37.816-11.795"/>
		</defs>
		<clipPath id="SVGID_23_">
			<use xlink:href="#SVGID_22_"  overflow="visible"/>
		</clipPath>
		<path clip-path="url(#SVGID_23_)" fill="#D7D7D6" d="M691.425,310.648c0,0,0.982,7.717,2.832,8.537
			c1.844,0.823,3.613-8.635,3.613-8.635"/>
	</g>
	<g>
		<defs>
			<path id="SVGID_24_" d="M660.808,298.548c-6.006,11.795-24.52,19.137-37.816,11.795c0,0,3.205,35.979,37.736,35.763
				c34.531-0.217,37.156-35.763,37.156-35.763c-13.299,7.342-31.812,0-37.816-11.795"/>
		</defs>
		<clipPath id="SVGID_25_">
			<use xlink:href="#SVGID_24_"  overflow="visible"/>
		</clipPath>
		<path clip-path="url(#SVGID_25_)" fill="#D7D7D6" d="M623.425,310.648c0,0,0.982,7.717,2.832,8.537
			c1.844,0.823,3.613-8.635,3.613-8.635"/>
	</g>
</g>
<path fill="#4E576A" d="M175.061,395.728C120.13,363.837,46.13,290.837,86.13,186.837s117-125.04,176-104.52s48,123.52,101,105.52
	s-9.054-182.981-144.192-161c-116.808,19-166.808,119-177.808,180s13.191,189,120,216"/>
</svg>
