<?xml version="1.0" encoding="utf-8"?>
<!-- Generator: Adobe Illustrator 16.0.0, SVG Export Plug-In . SVG Version: 6.00 Build 0)  -->
<!DOCTYPE svg PUBLIC "-//W3C//DTD SVG 1.1//EN" "http://www.w3.org/Graphics/SVG/1.1/DTD/svg11.dtd">
<svg version="1.1" id="Layer_1" xmlns="http://www.w3.org/2000/svg" xmlns:xlink="http://www.w3.org/1999/xlink" x="0px" y="0px"
	 width="240.956px" height="292.787px" viewBox="0 0 240.956 292.787" enable-background="new 0 0 240.956 292.787"
	 xml:space="preserve">
<path fill="#383F4C" d="M122.226,288.815c13.908-44.905,13.215-95.335-21.479-117.597c-48.91-31.381-105.977-19.197-100.364-1.697
	c4.808,14.984,48.345-20.354,93.579,11.028c34.092,23.649,23.849,81.096,16.77,108.266"/>
<path fill="#4C5568" d="M207.765,292.787c0-72.369-31.903-71.471-36.077-101.805c-4.173-30.334,0-41.867,0-41.867h-36.53
	c0,0,4.173,11.533,0,41.867c-4.174,30.334-35.754,29.547-35.754,101.916"/>
<path fill="#383F4C" d="M219.284,95.038c13.501-12.644,40.271-114.659,1.665-91.679c0,0-40.056,35.276-53.118,38.03"/>
<path fill="#383F4C" d="M87.017,95.038c-13.5-12.644-40.27-114.659-1.665-91.679c0,0,40.058,35.276,53.118,38.03"/>
<path fill="#8997B0" d="M199.513,57.055c0,0,9.625-32.671,25.418-38.144c15.791-5.478,0.53,61.283-7.134,70.271"/>
<path fill="#8997B0" d="M107.18,57.105c0,0-10.041-32.721-25.833-38.193c-15.792-5.478-0.529,61.283,7.135,70.271"/>
<g>
	<path fill="#FFFFFF" d="M222.92,127.866c0,0,0.191-0.247,0.544-0.662c0.178-0.206,0.393-0.456,0.641-0.743
		c0.124-0.144,0.256-0.296,0.396-0.456c0.158-0.146,0.325-0.298,0.499-0.457c0.35-0.317,0.729-0.668,1.146-1.021
		c0.446-0.311,0.917-0.639,1.404-0.979c0.496-0.326,1.058-0.591,1.612-0.882c0.562-0.277,1.18-0.464,1.773-0.7
		c0.621-0.153,1.241-0.329,1.864-0.421c0.626-0.086,1.243-0.156,1.845-0.139c0.601-0.031,1.178,0.053,1.722,0.11
		c0.54,0.088,1.05,0.181,1.505,0.322c0.46,0.121,0.868,0.274,1.221,0.43c0.355,0.145,0.653,0.302,0.897,0.425
		c0.482,0.263,0.728,0.46,0.728,0.46s-0.289-0.12-0.805-0.28c-0.258-0.076-0.569-0.175-0.936-0.251
		c-0.363-0.084-0.776-0.156-1.227-0.223c-0.447-0.074-0.941-0.098-1.455-0.14c-0.519-0.005-1.061-0.027-1.621,0.026
		c-0.562,0.007-1.132,0.133-1.713,0.211c-0.579,0.096-1.153,0.274-1.73,0.423c-0.558,0.214-1.139,0.374-1.673,0.626
		c-0.524,0.273-1.078,0.47-1.564,0.761c-0.491,0.286-0.966,0.562-1.416,0.825c-0.426,0.3-0.829,0.583-1.201,0.844
		c-0.38,0.254-0.728,0.501-1.015,0.75c-0.295,0.238-0.552,0.445-0.763,0.617C223.173,127.682,222.92,127.866,222.92,127.866z"/>
</g>
<g>
	<path fill="#FFFFFF" d="M223.153,136.669c0,0,0.298-0.096,0.822-0.24c0.263-0.07,0.582-0.156,0.948-0.254
		c0.183-0.049,0.378-0.1,0.583-0.154c0.213-0.03,0.437-0.062,0.67-0.097c0.468-0.065,0.979-0.141,1.522-0.196
		c0.544-0.006,1.117-0.012,1.711-0.018c0.594,0.009,1.207,0.107,1.829,0.179c0.622,0.088,1.236,0.281,1.86,0.42
		c0.599,0.225,1.21,0.428,1.776,0.703c0.565,0.282,1.115,0.571,1.603,0.925c0.514,0.312,0.943,0.707,1.36,1.061
		c0.397,0.377,0.766,0.741,1.062,1.114c0.312,0.36,0.562,0.716,0.767,1.043c0.213,0.319,0.369,0.617,0.501,0.856
		c0.252,0.489,0.343,0.79,0.343,0.79s-0.172-0.262-0.506-0.685c-0.171-0.209-0.373-0.466-0.633-0.734
		c-0.253-0.274-0.553-0.566-0.888-0.875c-0.327-0.314-0.723-0.612-1.123-0.936c-0.426-0.296-0.861-0.62-1.354-0.892
		c-0.469-0.312-1.009-0.528-1.534-0.791c-0.532-0.247-1.107-0.423-1.667-0.624c-0.582-0.139-1.151-0.334-1.735-0.426
		c-0.587-0.069-1.155-0.219-1.721-0.253c-0.567-0.04-1.115-0.078-1.635-0.115c-0.521,0.007-1.014,0.015-1.468,0.021
		c-0.457-0.005-0.883,0.004-1.261,0.048c-0.378,0.031-0.707,0.058-0.978,0.08C223.465,136.66,223.153,136.669,223.153,136.669z"/>
</g>
<g>
	<path fill="#FFFFFF" d="M83.357,125.675c0,0-0.253-0.184-0.679-0.523c-0.211-0.17-0.468-0.378-0.763-0.616
		c-0.287-0.249-0.635-0.497-1.014-0.75c-0.372-0.262-0.775-0.545-1.202-0.844c-0.45-0.263-0.924-0.54-1.416-0.826
		c-0.486-0.291-1.04-0.487-1.564-0.761c-0.534-0.253-1.115-0.412-1.673-0.626c-0.577-0.149-1.151-0.327-1.729-0.424
		c-0.582-0.078-1.15-0.204-1.713-0.211c-0.561-0.054-1.103-0.031-1.622-0.026c-0.513,0.041-1.007,0.064-1.455,0.14
		c-0.45,0.066-0.863,0.139-1.227,0.223c-0.366,0.076-0.677,0.175-0.936,0.251c-0.515,0.16-0.804,0.28-0.804,0.28
		s0.245-0.197,0.728-0.46c0.244-0.123,0.541-0.28,0.896-0.425c0.353-0.155,0.761-0.309,1.221-0.431
		c0.455-0.141,0.965-0.234,1.505-0.321c0.543-0.058,1.121-0.142,1.721-0.11c0.602-0.018,1.219,0.054,1.845,0.139
		c0.624,0.093,1.243,0.269,1.864,0.421c0.594,0.237,1.21,0.423,1.773,0.701c0.555,0.292,1.116,0.556,1.612,0.883
		c0.487,0.339,0.958,0.667,1.404,0.979c0.417,0.353,0.797,0.702,1.147,1.021c0.174,0.159,0.34,0.312,0.499,0.457
		c0.139,0.16,0.271,0.312,0.396,0.455c0.247,0.287,0.463,0.538,0.64,0.744C83.165,125.428,83.357,125.675,83.357,125.675z"/>
</g>
<g>
	<path fill="#FFFFFF" d="M83.125,134.476c0,0-0.312-0.01-0.855-0.05c-0.271-0.022-0.6-0.049-0.978-0.079
		c-0.378-0.045-0.804-0.053-1.26-0.049c-0.455-0.006-0.947-0.013-1.468-0.021c-0.52,0.037-1.067,0.075-1.635,0.116
		c-0.565,0.033-1.134,0.183-1.721,0.252c-0.583,0.093-1.153,0.287-1.735,0.426c-0.56,0.201-1.135,0.377-1.667,0.624
		c-0.525,0.263-1.065,0.479-1.534,0.791c-0.493,0.271-0.928,0.595-1.354,0.891c-0.4,0.324-0.795,0.622-1.123,0.936
		c-0.335,0.309-0.635,0.601-0.888,0.875c-0.26,0.269-0.461,0.525-0.632,0.734c-0.335,0.423-0.506,0.685-0.506,0.685
		s0.091-0.301,0.342-0.79c0.132-0.239,0.289-0.536,0.501-0.856c0.204-0.327,0.455-0.683,0.767-1.043
		c0.296-0.373,0.665-0.737,1.062-1.113c0.417-0.354,0.847-0.748,1.36-1.061c0.487-0.354,1.037-0.643,1.603-0.925
		c0.567-0.275,1.178-0.479,1.777-0.702c0.624-0.14,1.238-0.333,1.859-0.42c0.623-0.072,1.235-0.17,1.829-0.18
		c0.594,0.006,1.167,0.012,1.711,0.018c0.544,0.057,1.055,0.131,1.522,0.196c0.233,0.034,0.457,0.066,0.669,0.098
		c0.206,0.054,0.401,0.104,0.584,0.153c0.366,0.098,0.685,0.184,0.948,0.254C82.827,134.38,83.125,134.476,83.125,134.476z"/>
</g>
<path fill="#4C5568" d="M153.352,163.958c-30.793,0-78.128-4.933-70.774-48.134c7.354-43.199,25.736-75.709,70.774-75.709h0.04
	c45.039,0,63.42,32.51,70.775,75.709c7.352,43.201-39.983,48.427-70.775,48.427"/>
<path fill="#8997B0" d="M155.961,183.832c0,0,13.793-0.365,27.963,3.998c1.816,11.627,0,19.238,0,19.238s-21.8,22.047-30.521,33.047
	h-0.01c-8.721-11-30.522-33.047-30.522-33.047s-1.815-7.622,0-19.249c14.171-4.359,27.963-3.993,27.963-3.993"/>
<g>
	<defs>
		<path id="SVGID_1_" d="M133.169,114.899c-2.757-35.85-22.978-48.257-31.25-11.491
			C106.515,136.498,133.169,114.899,133.169,114.899z"/>
	</defs>
	<use xlink:href="#SVGID_1_"  overflow="visible" fill="#F3D194"/>
	<clipPath id="SVGID_2_">
		<use xlink:href="#SVGID_1_"  overflow="visible"/>
	</clipPath>
	<ellipse clip-path="url(#SVGID_2_)" fill="#201F24" cx="117.544" cy="87.25" rx="2.987" ry="17.191"/>
</g>
<g>
	<defs>
		<path id="SVGID_3_" d="M173.153,114.899c2.757-35.85,22.979-48.257,31.252-11.491
			C199.808,136.498,173.153,114.899,173.153,114.899z"/>
	</defs>
	<use xlink:href="#SVGID_3_"  overflow="visible" fill="#F3D194"/>
	<clipPath id="SVGID_4_">
		<use xlink:href="#SVGID_3_"  overflow="visible"/>
	</clipPath>
	<ellipse clip-path="url(#SVGID_4_)" fill="#201F24" cx="188.779" cy="87.25" rx="2.987" ry="17.191"/>
</g>
<g>
	<defs>
		<path id="SVGID_5_" d="M168.391,126.865c-3.459,6.203-14.985,0.25-14.985-9.75h0.05c0,10-11.524,15.953-14.985,9.75
			c0,0,3.771,24.232,14.902,24.232C164.5,151.097,168.391,126.865,168.391,126.865z"/>
	</defs>
	<use xlink:href="#SVGID_5_"  overflow="visible" fill="#AF8BA8"/>
	<clipPath id="SVGID_6_">
		<use xlink:href="#SVGID_5_"  overflow="visible"/>
	</clipPath>
	<path clip-path="url(#SVGID_6_)" fill="#D6D6D6" d="M164.213,126.84c0,0,0.638,4.999,1.836,5.533
		c1.195,0.532,2.342-5.596,2.342-5.596"/>
	<path clip-path="url(#SVGID_6_)" fill="#D6D6D6" d="M142.647,126.878c0,0-0.636,4.999-1.834,5.532
		c-1.197,0.53-2.343-5.596-2.343-5.596"/>
</g>
<g>
	<polygon fill="#FFFFFF" points="132.111,189.291 134.31,189.291 134.31,193.689 138.708,193.689 138.708,189.291 140.909,189.291 
		140.909,200.285 138.708,200.285 138.708,195.886 134.31,195.886 134.31,200.285 132.111,200.285 	"/>
	<path fill="#FFFFFF" d="M151.756,200.289l-8.796-0.014l4.411-10.989L151.756,200.289z M148.682,198.085l-1.315-3.302l-1.325,3.297
		L148.682,198.085L148.682,198.085z"/>
	<polygon fill="#FFFFFF" points="157.177,196.983 157.177,192.585 159.378,191.486 163.778,193.686 163.778,191.486 
		159.378,189.289 154.978,191.486 154.978,198.085 159.378,200.285 163.778,198.085 163.778,195.885 159.383,198.093 	"/>
	<polygon fill="#FFFFFF" points="170.285,194.789 175.804,189.291 175.794,189.291 172.891,189.291 169.199,192.984 
		169.197,189.291 167,189.291 167,200.285 169.197,200.285 169.197,196.589 172.891,200.285 175.794,200.285 	"/>
	<path fill="#FFFFFF" d="M138.708,202.38l2.201,5.498l-2.201,5.498h-6.597V202.38H138.708z M134.308,204.578l0.002,6.596
		l3.082,0.004l1.317-3.299l0,0l-1.313-3.301H134.308z"/>
	<polygon fill="#FFFFFF" points="147.357,211.189 149.555,210.044 149.556,202.372 151.756,202.372 151.756,211.182 
		147.359,213.385 142.96,211.182 142.96,202.372 145.159,202.372 145.159,210.036 147.359,211.182 	"/>
	<polygon fill="#FFFFFF" points="159.017,207.878 164.536,202.38 164.526,202.38 161.624,202.38 157.929,206.076 157.929,202.38 
		155.731,202.38 155.731,213.376 157.929,213.376 157.929,209.681 161.624,213.376 164.526,213.376 	"/>
	<polygon fill="#FFFFFF" points="174.628,202.38 165.83,202.38 165.83,213.376 174.628,213.376 174.628,211.183 168.018,211.183 
		168.018,208.977 172.43,208.977 172.43,206.778 168.018,206.778 168.018,204.58 174.628,204.58 	"/>
</g>
<path fill="#4C5568" d="M99.499,292.787c0-4.936-3.605-8.939-8.053-8.939s-8.052,4.004-8.052,8.939"/>
<path fill="#4C5568" d="M223.871,292.787c0-4.936-3.604-8.939-8.054-8.939c-4.446,0-8.052,4.004-8.052,8.939"/>
<path fill="#201F24" d="M153.456,118.41c1.434,0.178,4.159-4.215,3.872-5.469c-0.286-1.256-7.545-1.344-7.902-0.269
	C149.065,113.748,152.024,118.226,153.456,118.41z"/>
</svg>
