<?xml version="1.0" encoding="utf-8"?>
<!-- Generator: Adobe Illustrator 16.0.0, SVG Export Plug-In . SVG Version: 6.00 Build 0)  -->
<!DOCTYPE svg PUBLIC "-//W3C//DTD SVG 1.1//EN" "http://www.w3.org/Graphics/SVG/1.1/DTD/svg11.dtd">
<svg version="1.1" id="Layer_1" xmlns="http://www.w3.org/2000/svg" xmlns:xlink="http://www.w3.org/1999/xlink" x="0px" y="0px"
	 width="1920px" height="700px" viewBox="0 -246.867 1920 700" enable-background="new 0 -246.867 1920 700" xml:space="preserve">
<g id="Layer_2">
	<rect x="-0.5" y="-246.867" fill="#61616B" width="1920" height="700"/>
	<path fill="#271E30" d="M1919.5,453.133H-0.5c0,0,0.5-27.732,0.5-68.962c398.5-78.119,1550.5-170.581,1919.5-158.589V453.133z"/>
	<path fill="#F3D194" d="M395.217-154.667c-1.127-0.061-2.263-0.094-3.404-0.094c-33.288,0-60.278,26.989-60.278,60.282
		c0,33.289,26.99,60.278,60.278,60.278c18.596,0,35.224-8.422,46.277-21.661c-5.215,55.892-51.396,99.609-107.595,99.609
		c-59.694,0-108.089-49.324-108.089-110.168c0-60.843,48.395-110.166,108.089-110.166c24.276,0,46.687,8.16,64.729,21.935"/>
	<path fill="#3F2A31" d="M325.228-86.714c0,0,5.202,2.914,11.393,3.474c1.725-2.639,5.527-2.89,8.507-1.121
		c3.304-1.37,6.359-4.06,8.538-8.853c8.126-0.541,25.188,5.51,29.25,10.067c0,0-14.895-0.858-17.061,4.829
		c-11.916-11.375-11.916,2.98-21.666,5.418s-13.811-9.209-22.479,4.604c0,0-8.395-11.918-17.875,5.416
		C308.979-82.65,325.228-86.714,325.228-86.714z"/>
	<path fill="#3F2A31" d="M1560.107-30.252c0,0-8,5.049-17.762,6.446c-2.951-4.038-8.996-4.119-13.568-1.071
		c-5.349-1.896-10.409-5.904-14.258-13.316c-12.921-0.184-39.447,10.813-45.506,18.371c0,0,23.524-2.594,27.429,6.236
		c17.937-19.006,19.124,3.734,34.771,6.79c15.648,3.053,21.116-15.733,35.991,5.43c0,0,12.312-19.575,28.767,7.101
		C1586.186-25.159,1560.107-30.252,1560.107-30.252z"/>
	<path fill="#3F2A31" d="M136.122-60.119c0,0-2.779,1.754-6.171,2.239c-1.025-1.403-3.126-1.431-4.715-0.372
		c-1.858-0.659-3.617-2.052-4.954-4.627c-4.489-0.064-13.707,3.757-15.812,6.383c0,0,8.174-0.9,9.53,2.167
		c6.232-6.604,6.645,1.298,12.082,2.359s7.338-5.467,12.506,1.887c0,0,4.278-6.802,9.996,2.468
		C145.184-58.35,136.122-60.119,136.122-60.119z"/>
	<path fill="#3F2A31" d="M451.01,57.071c0,0-6.442,6.927-15.521,10.773c-3.886-3.149-9.75-1.682-13.394,2.435
		c-5.654-0.467-11.571-3.047-17.188-9.229c-12.538,3.126-35.371,20.54-39.295,29.395c0,0,22.079-8.521,28.109-0.982
		c12.48-22.961,19.443-1.28,35.354-2.327c15.909-1.051,16.391-20.61,36.183-3.954c0,0,6.897-22.072,29.625-0.49
		C477.524,55.327,451.01,57.071,451.01,57.071z"/>
	<path fill="#3F2A31" d="M1752.473-126.455c0,0,1.711,2.908,4.578,4.948c1.596-0.798,3.525,0.164,4.479,1.879
		c2.006,0.272,4.266-0.171,6.698-1.892c4.127,2.053,10.74,9.879,11.427,13.265c0,0-7.036-4.668-9.718-2.507
		c-2.58-8.959-6.676-1.941-12.138-3.531s-4.124-8.441-12.302-4.162c0,0-0.703-8.221-10.282-2.452
		C1743.37-129.104,1752.473-126.455,1752.473-126.455z"/>
	<path fill="#3F2A31" d="M988.229-176.702c0,0,5.201,2.914,11.394,3.474c1.725-2.639,5.526-2.89,8.507-1.121
		c3.305-1.37,6.358-4.06,8.538-8.853c8.126-0.541,25.188,5.51,29.25,10.067c0,0-14.896-0.858-17.062,4.829
		c-11.916-11.375-11.916,2.98-21.666,5.418s-13.812-9.209-22.479,4.604c0,0-8.396-11.918-17.875,5.416
		C971.979-172.638,988.229-176.702,988.229-176.702z"/>
</g>
<g id="Layer_1_1_">
	<path fill="#383F4C" d="M959.662,449.161c13.908-44.905,13.215-95.335-21.479-117.597c-48.908-31.382-105.976-19.197-100.363-1.697
		c4.807,14.983,48.345-20.354,93.579,11.027c34.092,23.649,23.849,81.097,16.77,108.267"/>
	<path fill="#4C5568" d="M1044.878,452.713c0-72.369-31.58-71.301-35.754-101.635c-4.173-30.334,0-42.117,0-42.117h-36.53
		c0,0,4.173,11.783,0,42.117c-4.174,30.334-35.754,29.672-35.754,102.041"/>
	<path fill="#383F4C" d="M1056.72,255.384c13.501-12.644,40.271-114.659,1.665-91.679c0,0-40.056,35.276-53.117,38.03"/>
	<path fill="#383F4C" d="M924.453,255.384c-13.5-12.644-40.271-114.659-1.665-91.679c0,0,40.058,35.276,53.118,38.03"/>
	<path fill="#8997B0" d="M1036.949,217.4c0,0,9.625-32.67,25.418-38.144c15.791-5.478,0.529,61.283-7.135,70.271"/>
	<path fill="#8997B0" d="M944.616,217.451c0,0-10.041-32.721-25.833-38.193c-15.792-5.478-0.53,61.283,7.134,70.271"/>
	<g>
		<path fill="#FFFFFF" d="M1060.355,288.212c0,0,0.191-0.247,0.545-0.662c0.178-0.206,0.393-0.456,0.641-0.743
			c0.124-0.144,0.256-0.296,0.396-0.456c0.158-0.146,0.325-0.298,0.499-0.457c0.351-0.316,0.729-0.668,1.146-1.021
			c0.446-0.312,0.917-0.639,1.404-0.979c0.496-0.325,1.058-0.591,1.611-0.882c0.562-0.276,1.181-0.464,1.773-0.7
			c0.621-0.152,1.241-0.328,1.864-0.421c0.626-0.086,1.243-0.155,1.845-0.139c0.601-0.031,1.178,0.053,1.722,0.11
			c0.54,0.088,1.05,0.181,1.505,0.321c0.46,0.121,0.868,0.274,1.222,0.431c0.354,0.145,0.652,0.302,0.896,0.425
			c0.482,0.263,0.729,0.46,0.729,0.46s-0.289-0.12-0.806-0.28c-0.258-0.076-0.568-0.175-0.936-0.251
			c-0.363-0.084-0.776-0.156-1.228-0.223c-0.446-0.074-0.94-0.099-1.455-0.141c-0.519-0.005-1.061-0.026-1.62,0.026
			c-0.562,0.007-1.133,0.133-1.714,0.211c-0.579,0.096-1.152,0.274-1.729,0.423c-0.559,0.214-1.139,0.374-1.673,0.626
			c-0.524,0.273-1.078,0.471-1.564,0.762c-0.491,0.285-0.966,0.562-1.416,0.824c-0.426,0.301-0.829,0.583-1.201,0.845
			c-0.38,0.254-0.728,0.501-1.015,0.75c-0.295,0.237-0.552,0.444-0.763,0.616C1060.609,288.028,1060.355,288.212,1060.355,288.212z"
			/>
	</g>
	<g>
		<path fill="#FFFFFF" d="M1060.589,297.016c0,0,0.298-0.096,0.822-0.239c0.263-0.07,0.582-0.156,0.948-0.255
			c0.183-0.049,0.378-0.1,0.583-0.153c0.213-0.03,0.437-0.062,0.67-0.098c0.468-0.064,0.979-0.141,1.521-0.195
			c0.544-0.006,1.117-0.013,1.711-0.019c0.595,0.01,1.207,0.107,1.829,0.18c0.622,0.088,1.236,0.28,1.86,0.42
			c0.599,0.225,1.21,0.428,1.776,0.703c0.564,0.281,1.114,0.57,1.603,0.925c0.514,0.312,0.943,0.707,1.36,1.061
			c0.396,0.377,0.766,0.741,1.062,1.114c0.312,0.36,0.562,0.716,0.767,1.043c0.214,0.319,0.369,0.617,0.502,0.856
			c0.252,0.488,0.343,0.79,0.343,0.79s-0.172-0.263-0.506-0.686c-0.171-0.209-0.373-0.466-0.634-0.734
			c-0.253-0.273-0.553-0.565-0.888-0.875c-0.327-0.313-0.723-0.611-1.123-0.936c-0.426-0.296-0.86-0.62-1.354-0.892
			c-0.47-0.312-1.01-0.528-1.534-0.791c-0.532-0.247-1.107-0.424-1.667-0.624c-0.582-0.14-1.151-0.334-1.735-0.427
			c-0.587-0.068-1.155-0.219-1.721-0.253c-0.567-0.04-1.115-0.078-1.635-0.114c-0.521,0.007-1.015,0.015-1.469,0.021
			c-0.457-0.005-0.883,0.004-1.261,0.048c-0.378,0.031-0.707,0.059-0.978,0.08C1060.901,297.006,1060.589,297.016,1060.589,297.016z
			"/>
	</g>
	<g>
		<path fill="#FFFFFF" d="M920.792,286.021c0,0-0.253-0.184-0.678-0.522c-0.212-0.171-0.47-0.378-0.763-0.616
			c-0.287-0.249-0.636-0.497-1.015-0.75c-0.372-0.262-0.774-0.545-1.202-0.845c-0.449-0.262-0.924-0.539-1.416-0.825
			c-0.486-0.291-1.04-0.487-1.563-0.761c-0.534-0.253-1.115-0.412-1.673-0.626c-0.577-0.149-1.151-0.328-1.729-0.424
			c-0.582-0.078-1.149-0.204-1.713-0.211c-0.562-0.055-1.104-0.031-1.622-0.026c-0.513,0.041-1.007,0.063-1.455,0.14
			c-0.45,0.066-0.863,0.14-1.227,0.224c-0.366,0.075-0.678,0.175-0.937,0.251c-0.515,0.159-0.804,0.279-0.804,0.279
			s0.245-0.196,0.728-0.46c0.244-0.123,0.541-0.279,0.896-0.425c0.353-0.155,0.761-0.309,1.221-0.431
			c0.455-0.142,0.965-0.234,1.505-0.321c0.543-0.058,1.121-0.142,1.722-0.11c0.602-0.018,1.219,0.054,1.845,0.14
			c0.624,0.093,1.243,0.269,1.864,0.421c0.594,0.237,1.21,0.423,1.772,0.701c0.555,0.292,1.116,0.556,1.612,0.883
			c0.487,0.339,0.958,0.667,1.403,0.978c0.418,0.354,0.798,0.703,1.147,1.021c0.174,0.159,0.34,0.312,0.499,0.457
			c0.139,0.16,0.271,0.312,0.396,0.455c0.246,0.287,0.463,0.538,0.64,0.744C920.602,285.773,920.792,286.021,920.792,286.021z"/>
	</g>
	<g>
		<path fill="#FFFFFF" d="M920.561,294.822c0,0-0.312-0.011-0.855-0.051c-0.271-0.021-0.6-0.049-0.979-0.078
			c-0.378-0.046-0.804-0.054-1.261-0.05c-0.455-0.006-0.946-0.013-1.468-0.021c-0.52,0.037-1.067,0.075-1.634,0.116
			c-0.565,0.032-1.134,0.183-1.722,0.252c-0.584,0.093-1.152,0.287-1.734,0.426c-0.561,0.201-1.135,0.377-1.667,0.624
			c-0.525,0.263-1.065,0.479-1.534,0.791c-0.493,0.271-0.929,0.596-1.354,0.891c-0.401,0.324-0.796,0.622-1.123,0.937
			c-0.336,0.309-0.636,0.601-0.889,0.875c-0.26,0.269-0.461,0.524-0.632,0.733c-0.335,0.424-0.506,0.686-0.506,0.686
			s0.091-0.301,0.342-0.79c0.132-0.239,0.289-0.536,0.501-0.856c0.204-0.327,0.455-0.683,0.768-1.043
			c0.296-0.373,0.664-0.736,1.062-1.112c0.417-0.354,0.847-0.748,1.36-1.062c0.486-0.354,1.037-0.643,1.603-0.925
			c0.567-0.275,1.179-0.479,1.777-0.702c0.624-0.14,1.237-0.333,1.858-0.42c0.623-0.072,1.235-0.17,1.83-0.18
			c0.594,0.006,1.167,0.012,1.711,0.018c0.543,0.057,1.055,0.131,1.522,0.196c0.233,0.034,0.457,0.065,0.669,0.098
			c0.206,0.054,0.401,0.104,0.584,0.153c0.366,0.098,0.686,0.184,0.948,0.254C920.263,294.727,920.561,294.822,920.561,294.822z"/>
	</g>
	<path fill="#4C5568" d="M990.788,324.304c-30.793,0-78.128-5.183-70.774-48.384c7.354-43.199,25.736-75.959,70.774-75.959h0.04
		c45.039,0,63.42,32.76,70.775,75.959c7.352,43.201-39.983,48.552-70.775,48.552"/>
	<path fill="#8997B0" d="M993.396,344.178c0,0,13.793-0.365,27.964,3.998c1.815,11.627,0,18.988,0,18.988
		s-21.8,21.797-30.521,32.797h-0.01c-8.722-11-30.522-32.797-30.522-32.797s-1.814-7.497,0-19.124
		c14.172-4.359,27.963-3.931,27.963-3.931"/>
	<g>
		<g>
			<path id="SVGID_1_" fill="#F3D194" d="M970.605,275.245c-2.758-35.851-22.979-48.257-31.25-11.491
				C943.951,296.844,970.605,275.245,970.605,275.245z"/>
		</g>
		<g>
			<defs>
				<path id="SVGID_2_" d="M970.605,275.245c-2.758-35.851-22.979-48.257-31.25-11.491
					C943.951,296.844,970.605,275.245,970.605,275.245z"/>
			</defs>
			<clipPath id="SVGID_4_">
				<use xlink:href="#SVGID_2_"  overflow="visible"/>
			</clipPath>
			<ellipse clip-path="url(#SVGID_4_)" fill="#201F24" cx="954.98" cy="247.596" rx="2.986" ry="17.191"/>
		</g>
	</g>
	<g>
		<g>
			<path id="SVGID_3_" fill="#F3D194" d="M1010.589,275.245c2.757-35.851,22.979-48.257,31.252-11.491
				C1037.244,296.844,1010.589,275.245,1010.589,275.245z"/>
		</g>
		<g>
			<defs>
				<path id="SVGID_6_" d="M1010.589,275.245c2.757-35.851,22.979-48.257,31.252-11.491
					C1037.244,296.844,1010.589,275.245,1010.589,275.245z"/>
			</defs>
			<clipPath id="SVGID_7_">
				<use xlink:href="#SVGID_6_"  overflow="visible"/>
			</clipPath>
			<ellipse clip-path="url(#SVGID_7_)" fill="#201F24" cx="1026.215" cy="247.596" rx="2.987" ry="17.191"/>
		</g>
	</g>
	<g>
		<g>
			<path id="SVGID_5_" fill="#AF8BA8" d="M1005.827,286.961c-3.459,6.203-14.985,0-14.985-10h0.051c0,10-11.524,16.203-14.985,10
				c0,0,3.771,24.232,14.901,24.232C1001.936,311.193,1005.827,286.961,1005.827,286.961z"/>
		</g>
		<g>
			<defs>
				<path id="SVGID_8_" d="M1005.827,286.961c-3.459,6.203-14.985,0-14.985-10h0.051c0,10-11.524,16.203-14.985,10
					c0,0,3.771,24.232,14.901,24.232C1001.936,311.193,1005.827,286.961,1005.827,286.961z"/>
			</defs>
			<clipPath id="SVGID_9_">
				<use xlink:href="#SVGID_8_"  overflow="visible"/>
			</clipPath>
			<path clip-path="url(#SVGID_9_)" fill="#D6D6D6" d="M1001.648,287.187c0,0,0.639,4.999,1.837,5.533
				c1.194,0.532,2.342-5.596,2.342-5.596"/>
		</g>
		<g>
			<defs>
				<path id="SVGID_10_" d="M1005.827,286.961c-3.459,6.203-14.985,0-14.985-10h0.051c0,10-11.524,16.203-14.985,10
					c0,0,3.771,24.232,14.901,24.232C1001.936,311.193,1005.827,286.961,1005.827,286.961z"/>
			</defs>
			<clipPath id="SVGID_11_">
				<use xlink:href="#SVGID_10_"  overflow="visible"/>
			</clipPath>
			<path clip-path="url(#SVGID_11_)" fill="#D6D6D6" d="M980.083,287.225c0,0-0.636,4.999-1.834,5.532
				c-1.197,0.53-2.343-5.596-2.343-5.596"/>
		</g>
	</g>
	<g>
		<polygon fill="#FFFFFF" points="969.547,349.637 971.746,349.637 971.746,354.035 976.145,354.035 976.145,349.637 
			978.345,349.637 978.345,360.631 976.145,360.631 976.145,356.232 971.746,356.232 971.746,360.631 969.547,360.631 		"/>
		<path fill="#FFFFFF" d="M989.192,361.838l-8.796-0.014l4.41-10.989L989.192,361.838z M986.118,359.635l-1.315-3.302l-1.324,3.297
			L986.118,359.635L986.118,359.635z"/>
		<polygon fill="#FFFFFF" points="994.613,358.534 994.613,354.137 996.814,353.037 1001.214,355.237 1001.214,353.037 
			996.814,350.84 992.414,353.037 992.414,359.637 996.814,361.836 1001.214,359.637 1001.214,357.437 996.819,359.645 		"/>
		<polygon fill="#FFFFFF" points="1007.721,355.135 1013.24,349.637 1013.23,349.637 1010.327,349.637 1006.635,353.33 
			1006.633,349.637 1004.436,349.637 1004.436,360.631 1006.633,360.631 1006.633,356.936 1010.327,360.631 1013.23,360.631 		"/>
		<path fill="#FFFFFF" d="M976.145,362.727l2.2,5.498l-2.2,5.498h-6.598v-10.996H976.145L976.145,362.727z M971.744,364.924
			l0.002,6.596l3.082,0.005l1.316-3.3l0,0l-1.312-3.301H971.744z"/>
		<polygon fill="#FFFFFF" points="984.793,375.048 986.991,373.903 986.992,366.23 989.192,366.23 989.192,375.041 984.795,377.244 
			980.396,375.041 980.396,366.23 982.595,366.23 982.595,373.895 984.795,375.041 		"/>
		<polygon fill="#FFFFFF" points="995.698,371.738 1001.217,366.24 1001.207,366.24 998.305,366.24 994.61,369.936 994.61,366.24 
			992.412,366.24 992.412,377.236 994.61,377.236 994.61,373.541 998.305,377.236 1001.207,377.236 		"/>
		<polygon fill="#FFFFFF" points="1012.064,362.727 1003.266,362.727 1003.266,373.723 1012.064,373.723 1012.064,371.529 
			1005.454,371.529 1005.454,369.323 1009.866,369.323 1009.866,367.124 1005.454,367.124 1005.454,364.926 1012.064,364.926 		"/>
	</g>
	<path fill="#4C5568" d="M936.936,453.133c0-4.936-3.605-8.938-8.054-8.938s-8.052,4.004-8.052,8.938"/>
	<path fill="#4C5568" d="M1061.307,453.133c0-4.936-3.604-8.938-8.054-8.938c-4.446,0-8.052,4.004-8.052,8.938"/>
	<path fill="#201F24" d="M990.893,278.756c1.434,0.178,4.158-4.215,3.871-5.469c-0.285-1.256-7.545-1.344-7.901-0.27
		C986.501,274.094,989.46,278.572,990.893,278.756z"/>
	<polygon fill="#271E30" points="1321.875,232.757 1296.873,234.846 1305.013,181.61 	"/>
	<polygon fill="#271E30" points="1723.539,217.222 1692.639,212.141 1713.871,179.514 	"/>
	<polygon fill="#271E30" points="1399.281,220.042 1332.462,222.986 1362.534,145.781 	"/>
	<polygon fill="#271E30" points="1472.506,228.204 1381.199,233.68 1423.446,174.107 	"/>
	<line fill="none" stroke="#271E30" stroke-width="4" stroke-miterlimit="10" x1="1308.5" y1="231.961" x2="1308.5" y2="246.961"/>
	
		<line fill="none" stroke="#271E30" stroke-width="4" stroke-miterlimit="10" x1="1365.987" y1="218.964" x2="1365.264" y2="244.958"/>
	<line fill="none" stroke="#271E30" stroke-width="4" stroke-miterlimit="10" x1="1424.5" y1="218.961" x2="1424.5" y2="241.961"/>
	
		<line fill="none" stroke="#271E30" stroke-width="4" stroke-miterlimit="10" x1="1709.405" y1="207.12" x2="1705.594" y2="229.802"/>
</g>
</svg>
