<?xml version="1.0" encoding="utf-8"?>
<!-- Generator: Adobe Illustrator 16.0.0, SVG Export Plug-In . SVG Version: 6.00 Build 0)  -->
<!DOCTYPE svg PUBLIC "-//W3C//DTD SVG 1.1//EN" "http://www.w3.org/Graphics/SVG/1.1/DTD/svg11.dtd">
<svg version="1.1" id="Layer_1" xmlns="http://www.w3.org/2000/svg" xmlns:xlink="http://www.w3.org/1999/xlink" x="0px" y="0px"
	 width="789.079px" height="672.734px" viewBox="0 0 789.079 672.734" enable-background="new 0 0 789.079 672.734"
	 xml:space="preserve">
<g id="Layer_3_1_">
	<polygon fill="#271E30" points="30.524,206.979 55.524,206.979 55.524,257.002 105.524,257.002 105.524,206.979 130.524,206.979 
		130.524,331.979 105.524,331.979 105.524,281.979 55.524,281.979 55.524,331.979 30.524,331.979 	"/>
	<path fill="#271E30" d="M240.523,332.376l-99.999-0.122l50.151-124.938L240.523,332.376z M205.558,307.34l-14.957-37.524
		l-15.046,37.481L205.558,307.34L205.558,307.34z"/>
	<polygon fill="#271E30" points="275.523,294.846 275.523,244.846 300.523,232.346 350.523,257.346 350.523,232.346 
		300.523,207.346 250.523,232.346 250.523,307.346 300.523,332.346 350.523,307.346 350.523,282.346 300.589,307.43 	"/>
	<polygon fill="#271E30" points="397.875,269.489 460.618,206.979 460.524,206.979 427.524,206.979 385.532,248.994 
		385.523,206.979 360.523,206.979 360.523,331.979 385.523,331.979 385.523,289.979 427.524,331.979 460.524,331.979 	"/>
	<path fill="#271E30" d="M105.524,342.468l25,62.5l-25,62.5h-75v-125H105.524z M55.509,367.467l0.019,74.982l35.021,0.02l15-37.5
		l0,0l-14.954-37.502H55.509L55.509,367.467z"/>
	<polygon fill="#271E30" points="190.502,442.609 215.5,429.59 215.523,342.376 240.523,342.376 240.523,442.523 190.523,467.561 
		140.523,442.523 140.523,342.376 165.523,342.376 165.525,429.506 190.523,442.523 	"/>
	<polygon fill="#271E30" points="287.829,404.979 350.571,342.468 350.477,342.468 317.477,342.468 275.484,384.484 
		275.477,342.468 250.477,342.468 250.477,467.469 275.477,467.469 275.477,425.469 317.477,467.469 350.477,467.469 	"/>
	<polygon fill="#271E30" points="460.571,342.468 360.571,342.468 360.571,467.469 460.571,467.469 460.571,442.553 
		385.431,442.553 385.431,417.469 435.571,417.469 435.571,392.468 385.431,392.468 385.431,367.468 460.571,367.468 	"/>
	<g>
		<path fill="#271E30" d="M509.805,212.999c-1.205,0-1.807,0.301-2.408,0.602l-0.9,0.903c-0.605,0.902-0.605,2.107-0.605,2.408
			v14.75h-6.02v-14.75c0-0.602,0-2.107,0.602-3.612c0.605-1.505,1.812-3.611,3.914-5.117c1.504-0.603,3.312-1.204,5.418-1.204
			V212.999L509.805,212.999z"/>
		<path fill="#271E30" d="M617.268,415.885v6.021h-86.996v-6.021h42.746V259.957c-6.623,9.332-33.414,25.888-49.668,25.888v-7.224
			c21.674,0,49.066-27.393,49.668-28.597h6.021v165.858L617.268,415.885L617.268,415.885z"/>
		<path fill="#271E30" d="M634.125,427.625l5.719-2.105c7.525,22.273,31.605,34.615,56.893,34.615
			c30.104,0,57.795-17.76,57.795-51.174c0-35.52-24.383-55.987-65.316-55.987v-6.021c27.992,0,61.707-4.816,61.707-40.637
			c0-30.104-25.586-51.775-54.785-51.775c-22.877,0-44.852,12.342-53.273,34.015l-5.42-2.106
			c8.729-24.081,33.715-37.929,58.693-37.929c33.113,0,60.812,25.286,60.812,57.796c0,24.081-15.955,39.729-38.832,44.249
			c26.188,4.214,42.438,31.604,42.438,58.396c0,37.627-31.902,57.193-63.811,57.193c-13.244,0-26.488-3.013-37.627-9.636
			C647.971,450.201,638.639,440.568,634.125,427.625z"/>
	</g>
</g>
<g id="Layer_3_2_">
	<polygon fill="#F1F2E7" points="29.524,205.979 54.524,205.979 54.524,256.002 104.524,256.002 104.524,205.979 129.524,205.979 
		129.524,330.979 104.524,330.979 104.524,280.979 54.524,280.979 54.524,330.979 29.524,330.979 	"/>
	<path fill="#F1F2E7" d="M239.523,331.376l-99.999-0.122l50.151-124.938L239.523,331.376z M204.558,306.34l-14.957-37.524
		l-15.046,37.481L204.558,306.34L204.558,306.34z"/>
	<polygon fill="#F1F2E7" points="274.523,293.846 274.523,243.846 299.523,231.346 349.523,256.346 349.523,231.346 
		299.523,206.346 249.523,231.346 249.523,306.346 299.523,331.346 349.523,306.346 349.523,281.346 299.589,306.43 	"/>
	<polygon fill="#F1F2E7" points="396.875,268.489 459.618,205.979 459.524,205.979 426.524,205.979 384.532,247.994 
		384.523,205.979 359.523,205.979 359.523,330.979 384.523,330.979 384.523,288.979 426.524,330.979 459.524,330.979 	"/>
	<path fill="#F1F2E7" d="M104.524,341.468l25,62.5l-25,62.5h-75v-125H104.524z M54.509,366.467l0.019,74.982l35.021,0.02l15-37.5
		l0,0l-14.954-37.502H54.509L54.509,366.467z"/>
	<polygon fill="#F1F2E7" points="189.502,441.609 214.5,428.59 214.523,341.376 239.523,341.376 239.523,441.523 189.523,466.561 
		139.523,441.523 139.523,341.376 164.523,341.376 164.525,428.506 189.523,441.523 	"/>
	<polygon fill="#F1F2E7" points="286.829,403.979 349.571,341.468 349.477,341.468 316.477,341.468 274.484,383.484 
		274.477,341.468 249.477,341.468 249.477,466.469 274.477,466.469 274.477,424.469 316.477,466.469 349.477,466.469 	"/>
	<polygon fill="#F1F2E7" points="459.571,341.468 359.571,341.468 359.571,466.469 459.571,466.469 459.571,441.553 
		384.431,441.553 384.431,416.469 434.571,416.469 434.571,391.468 384.431,391.468 384.431,366.468 459.571,366.468 	"/>
	<g>
		<path fill="#F1F2E7" d="M508.805,211.999c-1.205,0-1.807,0.301-2.408,0.602l-0.9,0.903c-0.605,0.902-0.605,2.107-0.605,2.408
			v14.75h-6.02v-14.75c0-0.602,0-2.107,0.602-3.612c0.605-1.505,1.812-3.611,3.914-5.117c1.504-0.603,3.312-1.204,5.418-1.204
			V211.999L508.805,211.999z"/>
		<path fill="#F1F2E7" d="M616.268,414.885v6.021h-86.996v-6.021h42.746V258.957c-6.623,9.332-33.414,25.888-49.668,25.888v-7.224
			c21.674,0,49.066-27.393,49.668-28.597h6.021v165.858L616.268,414.885L616.268,414.885z"/>
		<path fill="#F1F2E7" d="M633.125,426.625l5.719-2.105c7.525,22.273,31.605,34.615,56.893,34.615
			c30.104,0,57.795-17.76,57.795-51.174c0-35.52-24.383-55.987-65.316-55.987v-6.021c27.992,0,61.707-4.816,61.707-40.637
			c0-30.103-25.586-51.775-54.785-51.775c-22.877,0-44.852,12.342-53.273,34.015l-5.42-2.106
			c8.729-24.081,33.715-37.929,58.693-37.929c33.113,0,60.812,25.286,60.812,57.796c0,24.083-15.955,39.732-38.832,44.25
			c26.188,4.214,42.438,31.604,42.438,58.396c0,37.627-31.902,57.193-63.811,57.193c-13.244,0-26.488-3.013-37.627-9.636
			C646.971,449.201,637.639,439.568,633.125,426.625z"/>
	</g>
</g>
<g>
	<path fill="#271E30" d="M73.616,160.233v1.556H37.359v-55.241h35.557v1.556h-34v24.664h29.799v1.556H38.916v25.909H73.616z"/>
	<path fill="#271E30" d="M79.453,161.789v-55.241h35.557v1.556h-34v24.586h29.799v1.556H81.009v27.543H79.453z"/>
	<path fill="#271E30" d="M120.847,161.789v-55.241h35.557v1.556h-34v24.586h29.799v1.556h-29.799v27.543H120.847z"/>
	<path fill="#271E30" d="M185.117,106.548l21.318,32.056l21.396-32.056h1.79l-22.408,33.845v21.396h-1.556v-21.552l-22.33-33.689
		H185.117z"/>
	<path fill="#271E30" d="M273.349,160.233v1.556h-36.257v-55.241h35.557v1.556h-34v24.664h29.799v1.556h-29.799v25.909H273.349z"/>
	<path fill="#271E30" d="M275.295,161.789l24.119-55.241h1.4l24.042,55.241h-1.712l-8.636-19.762h-28.866l-8.636,19.762H275.295z
		 M300.115,108.804l-13.849,31.667h27.543L300.115,108.804z"/>
	<path fill="#271E30" d="M374.965,106.548v55.241h-1.556v-27.465h-38.357v27.465h-1.556v-55.241h1.556v26.22h38.357v-26.22H374.965z
		"/>
	<path fill="#271E30" d="M453.473,106.548v55.241h-1.556v-27.465h-38.358v27.465h-1.556v-55.241h1.556v26.22h38.358v-26.22H453.473z
		"/>
	<path fill="#271E30" d="M461.256,161.789l24.119-55.241h1.4l24.042,55.241h-1.712l-8.637-19.762h-28.865l-8.636,19.762H461.256z
		 M486.076,108.804l-13.849,31.667h27.542L486.076,108.804z"/>
	<path fill="#271E30" d="M540.853,106.237c11.438,0,17.584,5.057,21.085,12.06l-1.478,0.467
		c-4.202-7.78-11.049-10.971-19.607-10.971c-14.549,0-23.574,13.46-23.574,26.454c0,13.85,10.893,26.454,24.508,26.454
		c6.77,0,17.507-5.057,19.996-11.67l1.479,0.389c-2.957,8.092-13.693,12.838-21.475,12.838c-15.327,0-26.064-14.394-26.064-28.01
		C515.722,119.853,526.148,106.237,540.853,106.237z"/>
	<path fill="#271E30" d="M572.522,161.789v-55.164h1.556v35.79l38.591-35.868h2.257l-26.531,24.742l24.197,30.5h-2.023
		l-23.341-29.41l-13.149,12.215v17.195H572.522z"/>
	<path fill="#271E30" d="M660.676,160.233v1.556h-36.257v-55.241h35.557v1.556h-34v24.664h29.799v1.556h-29.799v25.909H660.676z"/>
	<path fill="#271E30" d="M666.824,161.789v-55.241h22.485c9.025,0,15.562,8.48,15.562,16.728c0,8.559-5.758,16.183-14.083,16.806
		l14.005,21.708h-1.867l-14.005-21.708h-20.54v21.708H666.824z M668.38,138.525h21.474c8.325,0,13.46-7.625,13.46-15.25
		c0-7.858-6.225-15.172-14.005-15.172H668.38V138.525z"/>
	<path fill="#271E30" d="M714.909,152.608c5.058,5.213,12.294,8.014,19.374,8.014c8.48,0,18.828-3.501,18.828-13.071
		c0-10.582-10.97-12.604-19.218-12.604c-10.036,0-19.373-3.345-19.373-14.549c0-10.659,10.426-14.238,19.14-14.238
		c9.104,0,13.694,2.723,17.195,7.703l-1.479,0.623c-3.501-5.291-9.959-6.769-15.717-6.769c-8.636,0-17.351,3.268-17.584,12.682
		c0,10.582,9.259,12.994,17.817,12.994c9.959,0,20.774,2.878,20.774,14.16c0,10.893-11.671,14.627-20.385,14.627
		c-9.104,0-15.872-3.89-20.541-8.559L714.909,152.608z"/>
</g>
<g>
	<path fill="#F1F2E7" d="M72.616,159.233v1.556H36.359v-55.241h35.557v1.556h-34v24.664h29.799v1.556H37.916v25.909H72.616z"/>
	<path fill="#F1F2E7" d="M78.453,160.789v-55.241h35.557v1.556h-34v24.586h29.799v1.556H80.009v27.543H78.453z"/>
	<path fill="#F1F2E7" d="M119.847,160.789v-55.241h35.557v1.556h-34v24.586h29.799v1.556h-29.799v27.543H119.847z"/>
	<path fill="#F1F2E7" d="M184.117,105.548l21.318,32.056l21.396-32.056h1.79l-22.408,33.845v21.396h-1.556v-21.552l-22.33-33.689
		H184.117z"/>
	<path fill="#F1F2E7" d="M272.349,159.233v1.556h-36.257v-55.241h35.557v1.556h-34v24.664h29.799v1.556h-29.799v25.909H272.349z"/>
	<path fill="#F1F2E7" d="M274.295,160.789l24.119-55.241h1.4l24.042,55.241h-1.712l-8.636-19.762h-28.866l-8.636,19.762H274.295z
		 M299.115,107.804l-13.849,31.667h27.543L299.115,107.804z"/>
	<path fill="#F1F2E7" d="M373.965,105.548v55.241h-1.556v-27.465h-38.357v27.465h-1.556v-55.241h1.556v26.22h38.357v-26.22H373.965z
		"/>
	<path fill="#F1F2E7" d="M452.473,105.548v55.241h-1.556v-27.465h-38.358v27.465h-1.556v-55.241h1.556v26.22h38.358v-26.22H452.473z
		"/>
	<path fill="#F1F2E7" d="M460.256,160.789l24.119-55.241h1.4l24.042,55.241h-1.712l-8.637-19.762h-28.865l-8.636,19.762H460.256z
		 M485.076,107.804l-13.849,31.667h27.542L485.076,107.804z"/>
	<path fill="#F1F2E7" d="M539.853,105.237c11.438,0,17.584,5.057,21.085,12.06l-1.478,0.467
		c-4.202-7.78-11.049-10.971-19.607-10.971c-14.549,0-23.574,13.46-23.574,26.454c0,13.85,10.893,26.454,24.508,26.454
		c6.77,0,17.507-5.057,19.996-11.67l1.479,0.389c-2.957,8.092-13.693,12.838-21.475,12.838c-15.327,0-26.064-14.394-26.064-28.01
		C514.722,118.853,525.148,105.237,539.853,105.237z"/>
	<path fill="#F1F2E7" d="M571.522,160.789v-55.164h1.556v35.79l38.591-35.868h2.257l-26.531,24.742l24.197,30.5h-2.023
		l-23.341-29.41l-13.149,12.215v17.195H571.522z"/>
	<path fill="#F1F2E7" d="M659.676,159.233v1.556h-36.257v-55.241h35.557v1.556h-34v24.664h29.799v1.556h-29.799v25.909H659.676z"/>
	<path fill="#F1F2E7" d="M665.824,160.789v-55.241h22.485c9.025,0,15.562,8.48,15.562,16.728c0,8.559-5.758,16.183-14.083,16.806
		l14.005,21.708h-1.867l-14.005-21.708h-20.54v21.708H665.824z M667.38,137.525h21.474c8.325,0,13.46-7.625,13.46-15.25
		c0-7.858-6.225-15.172-14.005-15.172H667.38V137.525z"/>
	<path fill="#F1F2E7" d="M713.909,151.608c5.058,5.213,12.294,8.014,19.374,8.014c8.48,0,18.828-3.501,18.828-13.071
		c0-10.582-10.97-12.604-19.218-12.604c-10.036,0-19.373-3.345-19.373-14.549c0-10.659,10.426-14.238,19.14-14.238
		c9.104,0,13.694,2.723,17.195,7.703l-1.479,0.623c-3.501-5.291-9.959-6.769-15.717-6.769c-8.636,0-17.351,3.268-17.584,12.682
		c0,10.582,9.259,12.994,17.817,12.994c9.959,0,20.774,2.878,20.774,14.16c0,10.893-11.671,14.627-20.385,14.627
		c-9.104,0-15.872-3.89-20.541-8.559L713.909,151.608z"/>
</g>
</svg>
