<?xml version="1.0" encoding="utf-8"?>
<!-- Generator: Adobe Illustrator 16.0.0, SVG Export Plug-In . SVG Version: 6.00 Build 0)  -->
<!DOCTYPE svg PUBLIC "-//W3C//DTD SVG 1.1//EN" "http://www.w3.org/Graphics/SVG/1.1/DTD/svg11.dtd">
<svg version="1.1" id="Layer_1" xmlns="http://www.w3.org/2000/svg" xmlns:xlink="http://www.w3.org/1999/xlink" x="0px" y="0px"
	 width="789.079px" height="672.734px" viewBox="0 0 789.079 672.734" enable-background="new 0 0 789.079 672.734"
	 xml:space="preserve">
<g id="Layer_3_1_">
	<polygon fill="#271E30" points="30.524,206.979 55.524,206.979 55.524,257.002 105.524,257.002 105.524,206.979 130.524,206.979 
		130.524,331.979 105.524,331.979 105.524,281.979 55.524,281.979 55.524,331.979 30.524,331.979 	"/>
	<path fill="#271E30" d="M240.523,332.376l-99.999-0.122l50.151-124.938L240.523,332.376z M205.558,307.34l-14.957-37.524
		l-15.046,37.481L205.558,307.34L205.558,307.34z"/>
	<polygon fill="#271E30" points="275.523,294.846 275.523,244.846 300.523,232.346 350.523,257.346 350.523,232.346 
		300.523,207.346 250.523,232.346 250.523,307.346 300.523,332.346 350.523,307.346 350.523,282.346 300.589,307.43 	"/>
	<polygon fill="#271E30" points="397.875,269.489 460.618,206.979 460.524,206.979 427.524,206.979 385.532,248.994 
		385.523,206.979 360.523,206.979 360.523,331.979 385.523,331.979 385.523,289.979 427.524,331.979 460.524,331.979 	"/>
	<path fill="#271E30" d="M105.524,342.468l25,62.5l-25,62.5h-75v-125H105.524z M55.509,367.467l0.019,74.982l35.021,0.02l15-37.5
		l0,0l-14.954-37.502H55.509z"/>
	<polygon fill="#271E30" points="190.502,442.609 215.5,429.59 215.523,342.376 240.523,342.376 240.523,442.523 190.523,467.561 
		140.523,442.523 140.523,342.376 165.523,342.376 165.525,429.506 190.523,442.523 	"/>
	<polygon fill="#271E30" points="287.829,404.979 350.571,342.468 350.477,342.468 317.477,342.468 275.484,384.484 
		275.477,342.468 250.477,342.468 250.477,467.469 275.477,467.469 275.477,425.469 317.477,467.469 350.477,467.469 	"/>
	<polygon fill="#271E30" points="460.571,342.468 360.571,342.468 360.571,467.469 460.571,467.469 460.571,442.553 
		385.431,442.553 385.431,417.469 435.571,417.469 435.571,392.468 385.431,392.468 385.431,367.468 460.571,367.468 	"/>
	<g>
		<path fill="#271E30" d="M509.805,212.999c-1.205,0-1.807,0.301-2.408,0.602l-0.9,0.903c-0.605,0.902-0.605,2.107-0.605,2.408
			v14.75h-6.02v-14.75c0-0.602,0-2.107,0.602-3.612c0.605-1.505,1.807-3.611,3.914-5.117c1.504-0.603,3.311-1.204,5.418-1.204
			V212.999z"/>
		<path fill="#271E30" d="M617.268,415.885v6.021h-86.996v-6.021h42.746V259.957c-6.623,9.332-33.414,25.888-49.668,25.888v-7.224
			c21.674,0,49.066-27.393,49.668-28.597h6.021v165.858L617.268,415.885L617.268,415.885z"/>
		<path fill="#271E30" d="M634.125,427.625l5.719-2.105c7.525,22.273,31.605,34.615,56.893,34.615
			c30.104,0,57.795-17.76,57.795-51.174c0-35.52-24.383-55.987-65.316-55.987v-6.021c27.992,0,61.707-4.816,61.707-40.637
			c0-30.103-25.586-51.775-54.785-51.775c-22.877,0-44.852,12.342-53.279,34.015l-5.42-2.106
			c8.73-24.081,33.715-37.929,58.699-37.929c33.113,0,60.807,25.286,60.807,57.796c0,24.081-15.955,39.732-38.832,44.249
			c26.189,4.214,42.443,31.604,42.443,58.396c0,37.627-31.908,57.193-63.816,57.193c-13.244,0-26.488-3.01-37.627-9.633
			C647.971,450.201,638.639,440.568,634.125,427.625z"/>
	</g>
</g>
<g id="Layer_3_2_">
	<polygon fill="#F1F2E7" points="29.524,205.979 54.524,205.979 54.524,256.002 104.524,256.002 104.524,205.979 129.524,205.979 
		129.524,330.979 104.524,330.979 104.524,280.979 54.524,280.979 54.524,330.979 29.524,330.979 	"/>
	<path fill="#F1F2E7" d="M239.523,331.376l-99.999-0.122l50.151-124.938L239.523,331.376z M204.558,306.34l-14.957-37.524
		l-15.046,37.481L204.558,306.34L204.558,306.34z"/>
	<polygon fill="#F1F2E7" points="274.523,293.846 274.523,243.846 299.523,231.346 349.523,256.346 349.523,231.346 
		299.523,206.346 249.523,231.346 249.523,306.346 299.523,331.346 349.523,306.346 349.523,281.346 299.589,306.43 	"/>
	<polygon fill="#F1F2E7" points="396.875,268.489 459.618,205.979 459.524,205.979 426.524,205.979 384.532,247.994 
		384.523,205.979 359.523,205.979 359.523,330.979 384.523,330.979 384.523,288.979 426.524,330.979 459.524,330.979 	"/>
	<path fill="#F1F2E7" d="M104.524,341.468l25,62.5l-25,62.5h-75v-125H104.524z M54.509,366.467l0.019,74.982l35.021,0.02l15-37.5
		l0,0l-14.954-37.502H54.509z"/>
	<polygon fill="#F1F2E7" points="189.502,441.609 214.5,428.59 214.523,341.376 239.523,341.376 239.523,441.523 189.523,466.561 
		139.523,441.523 139.523,341.376 164.523,341.376 164.525,428.506 189.523,441.523 	"/>
	<polygon fill="#F1F2E7" points="286.829,403.979 349.571,341.468 349.477,341.468 316.477,341.468 274.484,383.484 
		274.477,341.468 249.477,341.468 249.477,466.469 274.477,466.469 274.477,424.469 316.477,466.469 349.477,466.469 	"/>
	<polygon fill="#F1F2E7" points="459.571,341.468 359.571,341.468 359.571,466.469 459.571,466.469 459.571,441.553 
		384.431,441.553 384.431,416.469 434.571,416.469 434.571,391.468 384.431,391.468 384.431,366.468 459.571,366.468 	"/>
	<g>
		<path fill="#F1F2E7" d="M508.805,211.999c-1.205,0-1.807,0.301-2.408,0.602l-0.9,0.903c-0.605,0.902-0.605,2.107-0.605,2.408
			v14.75h-6.02v-14.75c0-0.602,0-2.107,0.602-3.612c0.605-1.505,1.807-3.611,3.914-5.117c1.504-0.603,3.311-1.204,5.418-1.204
			V211.999z"/>
		<path fill="#F1F2E7" d="M616.268,414.885v6.021h-86.996v-6.021h42.746V258.957c-6.623,9.332-33.414,25.888-49.668,25.888v-7.224
			c21.674,0,49.066-27.393,49.668-28.597h6.021v165.858L616.268,414.885L616.268,414.885z"/>
		<path fill="#F1F2E7" d="M633.125,426.625l5.719-2.105c7.525,22.273,31.605,34.615,56.893,34.615
			c30.104,0,57.795-17.76,57.795-51.174c0-35.52-24.383-55.987-65.316-55.987v-6.021c27.992,0,61.707-4.816,61.707-40.637
			c0-30.103-25.586-51.775-54.785-51.775c-22.877,0-44.852,12.342-53.279,34.015l-5.42-2.106
			c8.73-24.081,33.715-37.929,58.699-37.929c33.113,0,60.807,25.286,60.807,57.796c0,24.081-15.955,39.732-38.832,44.249
			c26.189,4.214,42.443,31.604,42.443,58.396c0,37.627-31.908,57.193-63.816,57.193c-13.244,0-26.488-3.01-37.627-9.633
			C646.971,449.201,637.639,439.568,633.125,426.625z"/>
	</g>
</g>
</svg>
