<?xml version="1.0" encoding="utf-8"?>
<!-- Generator: Adobe Illustrator 16.0.0, SVG Export Plug-In . SVG Version: 6.00 Build 0)  -->
<!DOCTYPE svg PUBLIC "-//W3C//DTD SVG 1.1//EN" "http://www.w3.org/Graphics/SVG/1.1/DTD/svg11.dtd">
<svg version="1.1" id="Layer_1" xmlns="http://www.w3.org/2000/svg" xmlns:xlink="http://www.w3.org/1999/xlink" x="0px" y="0px"
	 width="789.079px" height="672.734px" viewBox="0 0 789.079 672.734" enable-background="new 0 0 789.079 672.734"
	 xml:space="preserve">
<g id="Layer_2">
</g>
<g id="Layer_1_1_">
</g>
<g id="Layer_3">
	<polygon fill="#201F24" points="29.052,198.612 54.052,198.612 54.052,248.635 104.052,248.635 104.052,198.612 129.052,198.612 
		129.052,323.612 104.052,323.612 104.052,273.612 54.052,273.612 54.052,323.612 29.052,323.612 	"/>
	<path fill="#201F24" d="M239.051,324.009l-99.999-0.122l50.151-124.938L239.051,324.009z M204.085,298.973l-14.957-37.524
		l-15.046,37.481L204.085,298.973L204.085,298.973z"/>
	<polygon fill="#201F24" points="274.051,286.479 274.051,236.479 299.051,223.979 349.051,248.979 349.051,223.979 
		299.051,198.979 249.051,223.979 249.051,298.979 299.051,323.979 349.051,298.979 349.051,273.979 299.116,299.063 	"/>
	<polygon fill="#201F24" points="396.403,261.122 459.145,198.612 459.051,198.612 426.051,198.612 384.059,240.627 
		384.051,198.612 359.051,198.612 359.051,323.612 384.051,323.612 384.051,281.612 426.051,323.612 459.051,323.612 	"/>
	<path fill="#201F24" d="M104.052,334.101l25,62.5l-25,62.5h-75v-125H104.052z M54.036,359.1l0.019,74.982l35.021,0.02l15-37.5l0,0
		L89.122,359.1H54.036z"/>
	<polygon fill="#201F24" points="189.03,434.242 214.028,421.223 214.051,334.009 239.051,334.009 239.051,434.156 189.051,459.193 
		139.051,434.156 139.051,334.009 164.051,334.009 164.053,421.139 189.051,434.156 	"/>
	<polygon fill="#201F24" points="286.356,396.611 349.098,334.101 349.004,334.101 316.004,334.101 274.012,376.117 
		274.004,334.101 249.004,334.101 249.004,459.102 274.004,459.102 274.004,417.102 316.004,459.102 349.004,459.102 	"/>
	<polygon fill="#201F24" points="459.098,334.101 359.098,334.101 359.098,459.102 459.098,459.102 459.098,434.186 
		383.958,434.186 383.958,409.102 434.098,409.102 434.098,384.101 383.958,384.101 383.958,359.101 459.098,359.101 	"/>
	<g>
		<path fill="#201F24" d="M508.333,204.632c-1.205,0-1.807,0.301-2.408,0.602l-0.902,0.903c-0.604,0.902-0.604,2.107-0.604,2.408
			v14.75h-6.02v-14.75c0-0.602,0-2.107,0.602-3.612c0.604-1.505,1.807-3.611,3.914-5.117c1.504-0.603,3.311-1.204,5.418-1.204
			V204.632z"/>
		<path fill="#201F24" d="M615.795,407.518v6.021h-86.996v-6.021h42.746V251.59c-6.623,9.332-33.414,25.888-49.668,25.888v-7.224
			c21.674,0,49.066-27.393,49.668-28.597h6.021v165.859L615.795,407.518L615.795,407.518z"/>
		<path fill="#201F24" d="M632.653,419.258l5.719-2.106c7.525,22.274,31.605,34.616,56.893,34.616
			c30.102,0,57.795-17.76,57.795-51.174c0-35.52-24.383-55.988-65.318-55.988v-6.021c27.992,0,61.707-4.816,61.707-40.637
			c0-30.103-25.586-51.775-54.785-51.775c-22.877,0-44.852,12.342-53.279,34.015l-5.42-2.106
			c8.73-24.081,33.715-37.929,58.699-37.929c33.113,0,60.807,25.286,60.807,57.796c0,24.081-15.955,39.733-38.832,44.249
			c26.189,4.214,42.443,31.605,42.443,58.396c0,37.627-31.908,57.193-63.816,57.193c-13.244,0-26.488-3.01-37.627-9.633
			C646.499,441.834,637.167,432.201,632.653,419.258z"/>
	</g>
</g>
</svg>
