<?xml version="1.0" encoding="utf-8"?>
<!-- Generator: Adobe Illustrator 16.0.0, SVG Export Plug-In . SVG Version: 6.00 Build 0)  -->
<!DOCTYPE svg PUBLIC "-//W3C//DTD SVG 1.1//EN" "http://www.w3.org/Graphics/SVG/1.1/DTD/svg11.dtd">
<svg version="1.1" xmlns="http://www.w3.org/2000/svg" xmlns:xlink="http://www.w3.org/1999/xlink" x="0px" y="0px"
	 width="502.004px" height="416px" viewBox="0 0 502.004 416" enable-background="new 0 0 502.004 416" xml:space="preserve">
<g id="Layer_2">
</g>
<g id="Layer_1">
	<path fill="#4C5568" d="M389.644,394.214c0-22.011,16.076-39.872,35.917-39.872c19.833,0,35.911,17.861,35.911,39.872"/>
	<path fill="#4C5568" d="M41.31,394.214c0-22.011,16.063-39.872,35.911-39.872c19.833,0,35.903,17.861,35.903,39.872"/>
</g>
<g id="Layer_3">
</g>
<g id="Layer_5">
</g>
<g id="Layer_4">
	<g>
		<g>
			<path fill="#383F4C" d="M84.14,240.699C49.836,208.566-18.201-50.69,79.902,7.715c0,0,101.798,89.644,135,96.646"/>
			<path fill="#383F4C" d="M420.275,240.699c34.298-32.133,102.336-291.39,4.227-232.984c0,0-101.801,89.644-134.999,96.646"/>
			<path fill="#8997B0" d="M134.379,144.172c0,0-24.458-83.021-64.592-96.934c-40.124-13.92-1.353,155.734,18.13,178.577"/>
			<path fill="#8997B0" d="M369.023,144.295c0,0,25.519-83.145,65.649-97.057c40.142-13.92,1.354,155.734-18.126,178.577"/>
			<g>
				<path fill="#0C1826" d="M74.898,324.12c0,0-0.615-0.496-1.691-1.363c-0.529-0.442-1.173-0.979-1.91-1.597
					c-0.367-0.309-0.759-0.638-1.171-0.985c-0.435-0.309-0.892-0.633-1.368-0.972c-0.941-0.679-1.962-1.414-3.04-2.191
					c-1.15-0.677-2.364-1.379-3.596-2.139c-1.238-0.748-2.648-1.267-3.989-1.966c-0.664-0.369-1.406-0.562-2.118-0.836
					c-0.719-0.257-1.44-0.516-2.161-0.773c-0.731-0.222-1.479-0.385-2.216-0.581c-0.742-0.17-1.466-0.425-2.218-0.493
					c-0.745-0.103-1.483-0.215-2.213-0.336c-0.727-0.154-1.461-0.114-2.176-0.181c-1.436-0.13-2.823-0.056-4.148-0.031
					c-0.662,0.012-1.297,0.131-1.919,0.178c-0.623,0.054-1.226,0.108-1.793,0.228c-0.573,0.1-1.122,0.195-1.645,0.286
					c-0.517,0.121-1.008,0.236-1.469,0.345c-0.923,0.221-1.714,0.476-2.369,0.677c-0.646,0.229-1.163,0.393-1.501,0.539
					c-0.347,0.131-0.524,0.218-0.524,0.218s0.636-0.476,1.87-1.123c0.622-0.305,1.378-0.7,2.288-1.038
					c0.456-0.173,0.941-0.356,1.452-0.55c0.526-0.151,1.079-0.311,1.656-0.477c0.575-0.183,1.189-0.305,1.827-0.427
					c0.639-0.113,1.297-0.273,1.984-0.342c1.375-0.131,2.832-0.327,4.348-0.242c1.519-0.038,3.074,0.156,4.653,0.372
					c0.797,0.064,1.563,0.316,2.351,0.485c0.781,0.195,1.577,0.355,2.351,0.583c0.757,0.283,1.513,0.565,2.267,0.848
					c0.745,0.298,1.522,0.519,2.213,0.912c0.71,0.354,1.407,0.717,2.094,1.079c0.68,0.373,1.387,0.68,1.992,1.13
					c1.255,0.829,2.444,1.664,3.572,2.444c1.062,0.882,2.034,1.753,2.931,2.544c0.446,0.396,0.874,0.776,1.281,1.138
					c0.363,0.398,0.709,0.775,1.032,1.131c0.64,0.718,1.197,1.344,1.657,1.859C74.384,323.521,74.898,324.12,74.898,324.12z"/>
			</g>
			<g>
				<path fill="#0C1826" d="M74.305,346.5c0,0-0.787-0.063-2.165-0.175c-0.687-0.067-1.521-0.149-2.478-0.244
					c-0.478-0.049-0.986-0.101-1.521-0.156c-0.533-0.01-1.094-0.021-1.678-0.032c-1.16-0.031-2.417-0.065-3.746-0.101
					c-1.332,0.088-2.73,0.191-4.175,0.256c-1.445,0.078-2.902,0.445-4.403,0.621c-0.757,0.069-1.479,0.327-2.221,0.502
					c-0.739,0.192-1.48,0.385-2.222,0.578c-0.729,0.228-1.439,0.515-2.157,0.768c-0.709,0.277-1.451,0.474-2.11,0.841
					c-0.673,0.336-1.347,0.658-2.017,0.97c-0.688,0.281-1.272,0.729-1.9,1.076c-1.259,0.701-2.363,1.545-3.443,2.312
					c-0.541,0.383-0.997,0.839-1.485,1.229c-0.483,0.395-0.95,0.78-1.352,1.198c-0.417,0.405-0.817,0.794-1.197,1.163
					c-0.358,0.392-0.698,0.764-1.018,1.113c-0.639,0.702-1.147,1.358-1.575,1.895c-0.404,0.552-0.739,0.979-0.937,1.291
					c-0.212,0.304-0.31,0.476-0.31,0.476s0.257-0.751,0.911-1.981c0.342-0.603,0.743-1.355,1.304-2.147
					c0.279-0.399,0.576-0.825,0.89-1.273c0.349-0.421,0.716-0.864,1.099-1.326c0.372-0.476,0.811-0.922,1.269-1.383
					c0.464-0.454,0.917-0.957,1.446-1.4c1.062-0.883,2.155-1.866,3.455-2.65c1.232-0.887,2.628-1.603,4.054-2.313
					c0.694-0.396,1.471-0.619,2.216-0.924c0.755-0.278,1.503-0.594,2.271-0.842c0.784-0.192,1.568-0.385,2.35-0.576
					c0.784-0.174,1.55-0.428,2.343-0.492c0.785-0.107,1.566-0.199,2.337-0.286c0.772-0.075,1.529-0.219,2.283-0.188
					c1.504-0.021,2.956-0.001,4.327,0.009c1.375,0.132,2.668,0.305,3.854,0.453c0.593,0.077,1.159,0.15,1.699,0.22
					c0.524,0.124,1.022,0.242,1.489,0.353c0.933,0.234,1.746,0.438,2.416,0.605C73.542,346.295,74.305,346.5,74.305,346.5z"/>
			</g>
			<g>
				<path fill="#0C1826" d="M429.568,318.554c0,0,0.515-0.6,1.416-1.648c0.459-0.516,1.016-1.142,1.655-1.859
					c0.324-0.354,0.669-0.732,1.032-1.131c0.406-0.361,0.834-0.741,1.28-1.138c0.897-0.792,1.868-1.663,2.93-2.546
					c1.128-0.78,2.316-1.615,3.571-2.444c0.605-0.45,1.312-0.758,1.992-1.131c0.686-0.362,1.383-0.727,2.092-1.08
					c0.691-0.394,1.468-0.615,2.213-0.913c0.754-0.281,1.51-0.564,2.266-0.847c0.774-0.229,1.57-0.389,2.351-0.585
					c0.787-0.168,1.554-0.421,2.352-0.485c1.579-0.215,3.134-0.41,4.652-0.372c1.516-0.085,2.973,0.111,4.348,0.243
					c0.688,0.066,1.346,0.228,1.983,0.341c0.639,0.123,1.252,0.245,1.828,0.428c0.576,0.166,1.129,0.325,1.654,0.477
					c0.512,0.194,0.997,0.378,1.452,0.551c0.911,0.339,1.666,0.733,2.288,1.039c1.233,0.648,1.869,1.124,1.869,1.124
					s-0.178-0.087-0.523-0.218c-0.339-0.146-0.856-0.312-1.501-0.54c-0.655-0.201-1.446-0.457-2.369-0.678
					c-0.461-0.108-0.951-0.224-1.468-0.346c-0.522-0.091-1.072-0.187-1.645-0.286c-0.567-0.119-1.17-0.174-1.793-0.229
					c-0.622-0.047-1.256-0.166-1.919-0.177c-1.324-0.025-2.712-0.1-4.147,0.03c-0.715,0.065-1.449,0.026-2.176,0.181
					c-0.729,0.121-1.468,0.233-2.213,0.336c-0.752,0.067-1.475,0.324-2.217,0.494c-0.736,0.195-1.484,0.358-2.215,0.581
					c-0.722,0.259-1.443,0.517-2.161,0.774c-0.712,0.272-1.454,0.467-2.118,0.836c-1.34,0.7-2.75,1.218-3.988,1.967
					c-1.23,0.761-2.443,1.463-3.594,2.14c-1.078,0.778-2.098,1.514-3.039,2.193c-0.477,0.339-0.934,0.663-1.368,0.972
					c-0.412,0.347-0.803,0.677-1.17,0.985c-0.737,0.617-1.38,1.154-1.91,1.598C430.184,318.058,429.568,318.554,429.568,318.554z"/>
			</g>
			<g>
				<path fill="#0C1826" d="M430.162,340.921c0,0,0.763-0.205,2.098-0.563c0.67-0.168,1.483-0.371,2.416-0.604
					c0.468-0.11,0.965-0.228,1.489-0.353c0.54-0.069,1.107-0.143,1.699-0.219c1.187-0.148,2.479-0.32,3.854-0.452
					c1.371-0.01,2.823-0.029,4.327-0.008c0.754-0.031,1.511,0.112,2.282,0.188c0.771,0.087,1.553,0.18,2.338,0.287
					c0.792,0.064,1.559,0.317,2.342,0.492c0.781,0.191,1.565,0.384,2.35,0.576c0.769,0.246,1.516,0.562,2.271,0.841
					c0.745,0.305,1.521,0.526,2.216,0.923c1.426,0.712,2.821,1.427,4.055,2.313c1.299,0.784,2.393,1.767,3.454,2.649
					c0.53,0.443,0.983,0.946,1.447,1.4c0.457,0.461,0.896,0.907,1.269,1.383c0.383,0.462,0.75,0.904,1.099,1.326
					c0.313,0.448,0.61,0.873,0.89,1.272c0.561,0.793,0.963,1.545,1.305,2.147c0.653,1.23,0.91,1.981,0.91,1.981
					s-0.098-0.172-0.31-0.476c-0.197-0.312-0.532-0.739-0.937-1.291c-0.428-0.536-0.937-1.192-1.575-1.895
					c-0.319-0.35-0.659-0.721-1.018-1.112c-0.38-0.37-0.78-0.758-1.197-1.163c-0.401-0.418-0.868-0.804-1.353-1.198
					c-0.487-0.39-0.943-0.846-1.485-1.228c-1.079-0.768-2.185-1.61-3.443-2.312c-0.628-0.349-1.212-0.795-1.899-1.076
					c-0.671-0.311-1.344-0.634-2.018-0.969c-0.659-0.367-1.401-0.562-2.109-0.841c-0.719-0.253-1.429-0.54-2.158-0.768
					c-0.741-0.192-1.482-0.386-2.221-0.577c-0.742-0.177-1.465-0.433-2.222-0.502c-1.501-0.177-2.958-0.544-4.402-0.622
					c-1.445-0.064-2.843-0.168-4.175-0.257c-1.329,0.035-2.586,0.068-3.746,0.1c-0.584,0.011-1.145,0.021-1.678,0.032
					c-0.535,0.055-1.044,0.106-1.521,0.155c-0.957,0.094-1.791,0.176-2.478,0.243C430.949,340.857,430.162,340.921,430.162,340.921z
					"/>
			</g>
			<path fill="#4C5568" d="M251.689,415.842c78.252,0,198.547-14.092,179.863-123.881C412.866,182.176,366.15,98,251.689,98h-0.094
				c-13.146,0-25.395,2.412-36.806,4.508C126.776,118.701,88.275,195.44,71.725,292.619
				C53.046,402.412,173.336,416.141,251.596,416.141"/>
			<g>
				<defs>
					<path id="SVGID_35_" d="M302.984,291.17c7.002-91.104,58.388-122.643,79.41-29.204
						C370.723,346.062,302.984,291.17,302.984,291.17z"/>
				</defs>
				<use xlink:href="#SVGID_35_"  overflow="visible" fill="#F3D194"/>
				<clipPath id="SVGID_2_">
					<use xlink:href="#SVGID_35_"  overflow="visible"/>
				</clipPath>
				<path clip-path="url(#SVGID_2_)" fill="#201F24" d="M335.092,293.661c0,24.133,3.409,43.688,7.605,43.688
					c4.174,0,7.578-19.555,7.578-43.688c0-24.126-3.404-43.693-7.578-43.693C338.501,249.968,335.092,269.535,335.092,293.661z"/>
			</g>
			<g>
				<defs>
					<path id="SVGID_37_" d="M201.361,291.17c-6.996-91.104-58.386-122.643-79.418-29.204
						C133.629,346.062,201.361,291.17,201.361,291.17z"/>
				</defs>
				<use xlink:href="#SVGID_37_"  overflow="visible" fill="#F3D194"/>
				<clipPath id="SVGID_4_">
					<use xlink:href="#SVGID_37_"  overflow="visible"/>
				</clipPath>
				<path clip-path="url(#SVGID_4_)" fill="#201F24" d="M169.248,293.661c0,24.133-3.398,43.688-7.59,43.688
					c-4.189,0-7.598-19.555-7.598-43.688c0-24.126,3.408-43.693,7.598-43.693C165.85,249.968,169.248,269.535,169.248,293.661z"/>
			</g>
			<g>
				<defs>
					<path id="SVGID_39_" d="M213.471,311.113c8.794,11.154,38.088,4.887,38.088-20.113h-0.129c0,25,29.283,31.268,38.073,20.113
						c0,0-9.575,43.576-37.86,43.576C223.364,354.689,213.471,311.113,213.471,311.113z"/>
				</defs>
				<use xlink:href="#SVGID_39_"  overflow="visible" fill="#AF8BA8"/>
				<clipPath id="SVGID_6_">
					<use xlink:href="#SVGID_39_"  overflow="visible"/>
				</clipPath>
				<path clip-path="url(#SVGID_6_)" fill="#D6D6D6" d="M224.093,313.652c0,0-1.623,8.992-4.676,9.946
					c-3.032,0.958-5.946-10.055-5.946-10.055"/>
				<path clip-path="url(#SVGID_6_)" fill="#D6D6D6" d="M278.893,313.726c0,0,1.622,8.988,4.658,9.938
					c3.047,0.962,5.952-10.059,5.952-10.059"/>
			</g>
			<path fill="#201F24" d="M251.43,300.099c-3.643,0.448-10.566-10.718-9.834-13.901c0.719-3.194,19.166-3.418,20.074-0.687
				C262.582,288.244,255.062,299.628,251.43,300.099z"/>
		</g>
	</g>
</g>
<g id="Layer_6">
</g>
</svg>
